<svg xmlns="http://www.w3.org/2000/svg" xmlns:xlink="http://www.w3.org/1999/xlink" width="1092.5" height="760"><g transform="translate(-220 -220)"><path d="M424 924c-13.25 0-24-10.75-24-24 0-10.6 6.5-19.55 16.58-22.83C416 846 456 840 472 852c8-18 48-12 48 6 24-6 48 18 32 48 16 24 0 54-32 42-8 15.6-40 15.6-48 0-16 12-48 6-48-24z" stroke="#000" stroke-width="2" fill="url(#a)"/><use xlink:href="#b" transform="matrix(1,0,0,1,400,840) translate(62.37537037037036 66.33333333333334)"/><path d="M740 792c0 4.42-26.86 8-60 8s-60-3.58-60-8v-64c0-4.42 26.86-8 60-8s60 3.58 60 8z" stroke="#000" stroke-width="2" fill="#8b928c"/><path d="M740 728c0 4.42-26.86 8-60 8s-60-3.58-60-8" stroke="#000" stroke-width="2" fill="none"/><use xlink:href="#c" transform="matrix(1,0,0,1,620,741) translate(16.555 32.8375)"/><use xlink:href="#d" transform="matrix(1,0,0,1,620,741) translate(52.505 32.8375)"/><path d="M400 900l-4.7-.1-4.3-.27-3.96-.4-3.67-.55-3.42-.65-3.2-.75-3-.84-2.85-.93-2.7-1-2.57-1.07-2.45-1.15-2.36-1.24-2.27-1.3-2.2-1.4-2.1-1.47-2.08-1.57-2.02-1.67-1.97-1.77-1.93-1.9-1.9-2.02-1.86-2.16-1.86-2.33-1.82-2.5-1.8-2.74-1.8-2.95-1.8-3.24-1.76-3.56-1.75-3.95-1.74-4.42-1.72-4.96-1.7-5.63-1.66-6.5-1.6-7.55-1.52-9-1.37-10.95-1.16-13.87-.77-18.75.07-29.95L320 640" stroke="#000" stroke-width="2" fill="none"/><path d="M400 900l-14.56 3.6.66-9.25z"/><path d="M400.1 898.97L400 900l.06 1.02-15.72 3.88.86-12zm-13.57 3.33l10.24-2.53-9.77-3.97zM321 640.03l-1-.03h1z"/><use xlink:href="#e" transform="matrix(1,0,0,1,328.7461039758276,810.0294269167828) translate(0 14.4)"/><use xlink:href="#f" transform="matrix(1,0,0,1,328.7461039758276,810.0294269167828) translate(20 14.4)"/><use xlink:href="#g" transform="matrix(1,0,0,1,328.7461039758276,810.0294269167828) translate(69.95 14.4)"/><path d="M620 760l-109.13-.87-30.43-1.87L458.6 755l-17.02-2.5-13.83-2.64-11.56-2.7-9.86-2.75-8.52-2.75-7.45-2.77-6.58-2.77-5.9-2.75-5.26-2.76-4.77-2.76-4.34-2.75-3.96-2.76-3.64-2.76-3.35-2.77-3.1-2.78-2.88-2.82-2.67-2.85-2.5-2.9-2.33-2.93-2.17-3-2.04-3.06-1.9-3.14-1.8-3.24-1.65-3.33-1.54-3.46-1.4-3.6-1.32-3.76-1.18-3.93-1.06-4.12-.93-4.36-.77-4.62-.62-4.93-.43-5.28-.24-5.7-.03-3" stroke="#000" stroke-width="2" fill="none"/><path d="M620 760l-14.3 4.52.07-9.27z"/><path d="M620 758.95v2.1l-15.32 4.84.1-12.03zm-13.3 4.2l10.06-3.18-10-3.33zM319 640.06V640h1z"/><use xlink:href="#h" transform="matrix(1,0,0,1,418.7550390225214,708.811161758985) translate(0 14.4)"/><use xlink:href="#f" transform="matrix(1,0,0,1,418.7550390225214,708.811161758985) translate(20 14.4)"/><use xlink:href="#i" transform="matrix(1,0,0,1,418.7550390225214,708.811161758985) translate(69.95 14.4)"/><use xlink:href="#j" transform="matrix(1,0,0,1,418.7550390225214,708.811161758985) translate(0 36)"/><use xlink:href="#k" transform="matrix(1,0,0,1,418.7550390225214,708.811161758985) translate(20 36)"/><use xlink:href="#g" transform="matrix(1,0,0,1,418.7550390225214,708.811161758985) translate(67.95 36)"/><path d="M740 300c0 33.14-26.86 60-60 60s-60-26.86-60-60 26.86-60 60-60 60 26.86 60 60z" stroke="#000" stroke-width="2" fill="#76a882"/><use xlink:href="#l" transform="matrix(1,0,0,1,620,240) translate(39.08 51.9)"/><use xlink:href="#m" transform="matrix(1,0,0,1,620,240) translate(35.555 73.5)"/><path d="M240 565c0-2.76 2.24-5 5-5h150c2.76 0 5 2.24 5 5v70c0 2.76-2.24 5-5 5H245c-2.76 0-5-2.24-5-5z" stroke="#000" stroke-width="2" fill="url(#n)"/><use xlink:href="#o" transform="matrix(1,0,0,1,240,560) translate(37.105 31.9)"/><use xlink:href="#p" transform="matrix(1,0,0,1,240,560) translate(76.005 31.9)"/><use xlink:href="#q" transform="matrix(1,0,0,1,240,560) translate(50.07999999999999 53.5)"/><path d="M680 360l-.04 1.73-.1 1.7-.18 1.66-.24 1.64-.3 1.63-.4 1.63-.45 1.62-.54 1.63-.6 1.64-.7 1.65-.8 1.68-.9 1.72-1 1.75-1.15 1.8-1.28 1.85-1.46 1.92-1.65 2-1.87 2.1-2.16 2.18-2.47 2.33-2.87 2.47-3.35 2.65-3.94 2.86-4.7 3.13-5.7 3.43-7.02 3.85-8.86 4.4-11.57 5.13-15.93 6.3-24.28 8.4-60.22 17.8-86.77 25.2-24.27 8.4-15.92 6.3-11.56 5.13-8.86 4.4-7.02 3.84-5.7 3.44-4.7 3.14-3.94 2.86-3.35 2.65-2.87 2.47-2.47 2.33-2.16 2.2-1.88 2.08-1.66 2-1.46 1.92-1.3 1.85-1.13 1.8-1.02 1.75-.9 1.72-.78 1.68-.7 1.66-.6 1.65-.54 1.63-.45 1.62-.38 1.63-.3 1.63-.25 1.65-.18 1.68-.1 1.7L320 560" stroke="#000" stroke-width="2" fill="none"/><path d="M680.98 360.2l-1-.2h.02l1.02-.04zM327.2 546.84L320 560l-1.9-14.88z"/><path d="M328.73 546.1l-7.6 13.9H319l-2.08-16.1zm-8.13 10.72l5.06-9.25-6.4-1.2z"/><use xlink:href="#r" transform="matrix(1,0,0,1,409.3473205968991,443.98561242082155) translate(0 14.4)"/><use xlink:href="#s" transform="matrix(1,0,0,1,409.3473205968991,443.98561242082155) translate(20 14.4)"/><path d="M740 648c0 6.63-26.86 12-60 12s-60-5.37-60-12v-96c0-6.63 26.86-12 60-12s60 5.37 60 12z" stroke="#000" stroke-width="2" fill="#3e78a6"/><path d="M740 552c0 6.63-26.86 12-60 12s-60-5.37-60-12" stroke="#000" stroke-width="2" fill="none"/><use xlink:href="#t" transform="matrix(1,0,0,1,620,569) translate(29.054999999999993 37.15)"/><use xlink:href="#u" transform="matrix(1,0,0,1,620,569) translate(20.07999999999999 58.75)"/><path d="M401 600h219" stroke="#000" stroke-width="2" fill="none"/><path d="M401 601h-1v-2h1zM620 600l-14.27 4.64v-9.28z"/><path d="M620 598.95v2.1L604.73 606v-12zm-13.27 4.3l10.03-3.25-10.03-3.26z"/><use xlink:href="#v" transform="matrix(1,0,0,1,459.026642483575,574.4000000000001) translate(0 14.4)"/><use xlink:href="#k" transform="matrix(1,0,0,1,459.026642483575,574.4000000000001) translate(20 14.4)"/><use xlink:href="#w" transform="matrix(1,0,0,1,459.026642483575,574.4000000000001) translate(67.95 14.4)"/><path d="M989.65 544.4c1.3-2.42 4.6-4.4 7.35-4.4h107c8.84 0 16 26.86 16 60s-7.16 60-16 60H997c-2.76 0-6.05-1.98-7.35-4.4l-27.3-51.2c-1.3-2.42-1.3-6.38 0-8.8z" stroke="#000" stroke-width="2" fill="url(#x)"/><use xlink:href="#o" transform="matrix(1,0,0,1,960,540) translate(43.10499999999999 51.9)"/><use xlink:href="#p" transform="matrix(1,0,0,1,960,540) translate(82.005 51.9)"/><use xlink:href="#y" transform="matrix(1,0,0,1,960,540) translate(50.78 73.5)"/><path d="M740 600h220" stroke="#000" stroke-width="2" fill="none"/><path d="M754.27 604.64L740 600l14.27-4.64z"/><path d="M755.27 606L740 601.06v-2.1l15.27-4.96zm-12.03-6l10.03 3.26v-6.52zM961.4 600.45l.06.55H960v-2h1.47z"/><use xlink:href="#z" transform="matrix(1,0,0,1,781.7016499834999,574.4000000000002) translate(0 14.4)"/><use xlink:href="#A" transform="matrix(1,0,0,1,781.7016499834999,574.4000000000002) translate(25 14.4)"/><use xlink:href="#B" transform="matrix(1,0,0,1,781.7016499834999,574.4000000000002) translate(53.65 14.4)"/><use xlink:href="#w" transform="matrix(1,0,0,1,781.7016499834999,574.4000000000002) translate(101.6 14.4)"/><path d="M960 900c0 33.14-26.86 60-60 60s-60-26.86-60-60 26.86-60 60-60 60 26.86 60 60z" stroke="#000" stroke-width="2" fill="#76a882"/><use xlink:href="#C" transform="matrix(1,0,0,1,840,840) translate(20.10499999999999 63.15)"/><path d="M900 840l.07-3.54.22-3.38.33-3.23.45-3.12.58-3 .7-2.94.8-2.87.9-2.82 1.03-2.76 1.15-2.76 1.3-2.74 1.43-2.76 1.6-2.77 1.8-2.8 2-2.9 2.25-2.96 2.55-3.08 2.92-3.24 3.4-3.46 4-3.75 4.87-4.2 6.24-4.94 8.95-6.46 49.84-33.46 6.23-4.94 4.87-4.2 4-3.76 3.4-3.46 2.92-3.24 2.55-3.08 2.25-2.97 2-2.9 1.8-2.8 1.6-2.78 1.44-2.76 1.3-2.74 1.15-2.76 1.04-2.77.9-2.83.8-2.86.7-2.92.58-3 .45-3.13.34-3.23.23-3.38.07-3.54" stroke="#000" stroke-width="2" fill="none"/><path d="M900.05 840H900l-1 .04v-.14zM1043.28 674.64l-9.23-.87L1040 660z"/><path d="M1044.56 675.76l-11.97-1.12 6.3-14.64h2.12zm-9.04-2.86l6.5.6-2.32-10.28z"/><g><use xlink:href="#D" transform="matrix(1,0,0,1,830.6115325352108,737.7754192092985) translate(0 14.4)"/><use xlink:href="#E" transform="matrix(1,0,0,1,830.6115325352108,737.7754192092985) translate(30 14.4)"/><use xlink:href="#F" transform="matrix(1,0,0,1,830.6115325352108,737.7754192092985) translate(94.9 14.4)"/></g><path d="M1159.9 525c0-2.76 2.24-5 5-5h33.2c2.76 0 5 2.24 5 5v310c0 2.76-2.24 5-5 5h-33.2c-2.76 0-5-2.24-5-5z" fill="none"/><g><use xlink:href="#G" transform="matrix(-1.8369701987210297e-16,1,-1,-1.8369701987210297e-16,1203.1000000000001,520.0000000000001) translate(50.14999999999998 25.6)"/><use xlink:href="#H" transform="matrix(-1.8369701987210297e-16,1,-1,-1.8369701987210297e-16,1203.1000000000001,520.0000000000001) translate(70.14999999999998 25.6)"/><use xlink:href="#I" transform="matrix(-1.8369701987210297e-16,1,-1,-1.8369701987210297e-16,1203.1000000000001,520.0000000000001) translate(117.14999999999998 25.6)"/><use xlink:href="#J" transform="matrix(-1.8369701987210297e-16,1,-1,-1.8369701987210297e-16,1203.1000000000001,520.0000000000001) translate(218 25.6)"/></g><path d="M1120 600l3.68.08 3.34.2 3.04.32 2.78.4 2.56.5 2.36.56 2.2.6 2.05.67 1.93.72 1.8.75 1.7.8 1.6.84 1.52.88 1.45.92 1.37.95 1.32 1 1.25 1.04 1.2 1.1 1.17 1.12 1.12 1.2 1.08 1.24 1.03 1.3 1 1.4.97 1.44.93 1.53.9 1.62.84 1.72.8 1.83.78 1.96.74 2.1.68 2.27.62 2.44.56 2.65.5 2.86.38 3.14.3 3.43.14 3.77v4.17l-.2 4.62-.43 5.13-.72 5.73-1.1 6.4-1.52 7.17-2.06 8.03-2.72 8.97-3.47 9.98-4.37 11-5.34 12-6.4 12.87-7.42 13.5-8.38 13.84-9.17 13.8-9.75 13.4-10.05 12.7-10.12 11.7-9.97 10.64-9.67 9.48-9.28 8.37-8.83 7.3-8.35 6.34-7.86 5.47-7.4 4.7-6.95 4.02-6.55 3.42-6.17 2.9-5.83 2.46-5.52 2.05-5.23 1.7-4.98 1.4-4.76 1.1-4.54.87-4.37.65-4.2.44-4.07.26-3.93.08" stroke="#000" stroke-width="2" fill="none"/><path d="M1120.1 599l-.1 1.08V600l-.03-1zM974.6 903.5L960 900l13.85-5.75z"/><path d="M975.7 904.78l-15.74-3.76.04-1.02-.04-1.07 14.78-6.13zm-12.47-5.04l10.25 2.46-.5-6.5z"/><path d="M680 360v179" stroke="#000" stroke-width="2" fill="none"/><path d="M680 360l1-.04v.04h-2v-.04zM680 539l-4.64-14.27h9.28z"/><path d="M680.72 540.03L680 540l-.72.02-5.3-16.3h12.03zm-3.98-14.3l3.26 10.03 3.26-10.03z"/><g><use xlink:href="#K" transform="matrix(1,0,0,1,558.0999999998465,474.7999999999789) translate(0 14.4)"/><use xlink:href="#L" transform="matrix(1,0,0,1,558.0999999998465,474.7999999999789) translate(20 14.4)"/><use xlink:href="#M" transform="matrix(1,0,0,1,558.0999999998465,474.7999999999789) translate(0 36)"/><use xlink:href="#N" transform="matrix(1,0,0,1,558.0999999998465,474.7999999999789) translate(54.900000000000006 36)"/></g><path d="M680 360l.03 1.4.1 1.38.13 1.36.2 1.34.25 1.34.33 1.33.37 1.34.43 1.33.5 1.35.58 1.37.67 1.4.74 1.4.85 1.47.95 1.5 1.08 1.54 1.22 1.6 1.38 1.68 1.58 1.75 1.8 1.83 2.1 1.95 2.4 2.1 2.82 2.22 3.33 2.4 3.98 2.65 4.8 2.9 5.9 3.23 7.4 3.67 9.56 4.25 12.86 5.07 18.5 6.42 31.02 9.27L953.2 475.4l18.5 6.43 12.86 5.07 9.56 4.25 7.4 3.67 5.9 3.23 4.8 2.9 3.97 2.64 3.32 2.4 2.82 2.23 2.4 2.1 2.1 1.94 1.8 1.84 1.58 1.76 1.38 1.68 1.22 1.6 1.08 1.54.95 1.5.84 1.46.73 1.42.66 1.4.56 1.36.5 1.35.44 1.34.37 1.35.32 1.33.24 1.34.2 1.34.14 1.36.1 1.38.02 1.4" stroke="#000" stroke-width="2" fill="none"/><path d="M680 360l-.97.23-.07-.27zM1040 540l-7.73-12.85 9.03-2.1z"/><path d="M1041 540h-2.17l-8.13-13.52 11.7-2.7zm-7.17-12.2l5.44 9.05.9-10.5z"/><g><use xlink:href="#O" transform="matrix(1,0,0,1,869.8821865685703,436.4105407584955) translate(0 14.4)"/><use xlink:href="#P" transform="matrix(1,0,0,1,869.8821865685703,436.4105407584955) translate(20 14.4)"/><use xlink:href="#Q" transform="matrix(1,0,0,1,869.8821865685703,436.4105407584955) translate(81.15 14.4)"/></g><defs><linearGradient gradientUnits="userSpaceOnUse" id="a" x1="560" y1="840" x2="560" y2="960"><stop offset="0%" stop-color="#95d8d1"/><stop offset="100%" stop-color="#76a8a6"/></linearGradient><path d="M136-208V0H84v-208H4v-40h212v40h-80" id="R"/><path d="M185-48c-13 30-37 53-82 52C43 2 14-33 14-96s30-98 90-98c62 0 83 45 84 108H66c0 31 8 55 39 56 18 0 30-7 34-22zm-45-69c5-46-57-63-70-21-2 6-4 13-4 21h74" id="S"/><path d="M88-194c31-1 46 15 58 34l-1-101h50l1 261h-48c-2-10 0-23-3-31C134-8 116 4 84 4 32 4 16-41 15-95c0-56 19-97 73-99zm17 164c33 0 40-30 41-66 1-37-9-64-41-64s-38 30-39 65c0 43 13 65 39 65" id="T"/><g id="b"><use transform="matrix(0.07407407407407408,0,0,0.07407407407407408,0,0)" xlink:href="#R"/><use transform="matrix(0.07407407407407408,0,0,0.07407407407407408,14.222222222222225,0)" xlink:href="#S"/><use transform="matrix(0.07407407407407408,0,0,0.07407407407407408,29.03703703703704,0)" xlink:href="#T"/></g><path fill="#fff" d="M76-208v77h127v40H76V0H24v-248h183v40H76" id="U"/><path fill="#fff" d="M25-224v-37h50v37H25zM25 0v-190h50V0H25" id="V"/><path fill="#fff" d="M25 0v-261h50V0H25" id="W"/><path fill="#fff" d="M185-48c-13 30-37 53-82 52C43 2 14-33 14-96s30-98 90-98c62 0 83 45 84 108H66c0 31 8 55 39 56 18 0 30-7 34-22zm-45-69c5-46-57-63-70-21-2 6-4 13-4 21h74" id="X"/><g id="c"><use transform="matrix(0.05,0,0,0.05,0,0)" xlink:href="#U"/><use transform="matrix(0.05,0,0,0.05,10.950000000000001,0)" xlink:href="#V"/><use transform="matrix(0.05,0,0,0.05,15.950000000000001,0)" xlink:href="#W"/><use transform="matrix(0.05,0,0,0.05,20.950000000000003,0)" xlink:href="#X"/></g><path fill="#fff" d="M190-63c-7 42-38 67-86 67-59 0-84-38-90-98-12-110 154-137 174-36l-49 2c-2-19-15-32-35-32-30 0-35 28-38 64-6 74 65 87 74 30" id="Y"/><path fill="#fff" d="M133-34C117-15 103 5 69 4 32 3 11-16 11-54c-1-60 55-63 116-61 1-26-3-47-28-47-18 1-26 9-28 27l-52-2c7-38 36-58 82-57s74 22 75 68l1 82c-1 14 12 18 25 15v27c-30 8-71 5-69-32zm-48 3c29 0 43-24 42-57-32 0-66-3-65 30 0 17 8 27 23 27" id="Z"/><path fill="#fff" d="M114-157C55-157 80-60 75 0H25v-261h50l-1 109c12-26 28-41 61-42 86-1 58 113 63 194h-50c-7-57 23-157-34-157" id="aa"/><g id="d"><use transform="matrix(0.05,0,0,0.05,0,0)" xlink:href="#Y"/><use transform="matrix(0.05,0,0,0.05,10,0)" xlink:href="#Z"/><use transform="matrix(0.05,0,0,0.05,20,0)" xlink:href="#Y"/><use transform="matrix(0.05,0,0,0.05,30,0)" xlink:href="#aa"/><use transform="matrix(0.05,0,0,0.05,40.95,0)" xlink:href="#X"/></g><path d="M126-127c33 6 58 20 58 59 0 88-139 92-164 29-3-8-5-16-6-25l32-3c6 27 21 44 54 44 32 0 52-15 52-46 0-38-36-46-79-43v-28c39 1 72-4 72-42 0-27-17-43-46-43-28 0-47 15-49 41l-32-3c6-42 35-63 81-64 48-1 79 21 79 65 0 36-21 52-52 59" id="ab"/><path d="M33 0v-38h34V0H33" id="ac"/><g id="e"><use transform="matrix(0.05,0,0,0.05,0,0)" xlink:href="#ab"/><use transform="matrix(0.05,0,0,0.05,10,0)" xlink:href="#ac"/></g><path d="M63-220v92h138v28H63V0H30v-248h175v28H63" id="ad"/><path d="M100-194c63 0 86 42 84 106H49c0 40 14 67 53 68 26 1 43-12 49-29l28 8c-11 28-37 45-77 45C44 4 14-33 15-96c1-61 26-98 85-98zm52 81c6-60-76-77-97-28-3 7-6 17-6 28h103" id="ae"/><path d="M59-47c-2 24 18 29 38 22v24C64 9 27 4 27-40v-127H5v-23h24l9-43h21v43h35v23H59v120" id="af"/><path d="M96-169c-40 0-48 33-48 73s9 75 48 75c24 0 41-14 43-38l32 2c-6 37-31 61-74 61-59 0-76-41-82-99-10-93 101-131 147-64 4 7 5 14 7 22l-32 3c-4-21-16-35-41-35" id="ag"/><path d="M106-169C34-169 62-67 57 0H25v-261h32l-1 103c12-21 28-36 61-36 89 0 53 116 60 194h-32v-121c2-32-8-49-39-48" id="ah"/><g id="f"><use transform="matrix(0.05,0,0,0.05,0,0)" xlink:href="#ad"/><use transform="matrix(0.05,0,0,0.05,10.950000000000001,0)" xlink:href="#ae"/><use transform="matrix(0.05,0,0,0.05,20.950000000000003,0)" xlink:href="#af"/><use transform="matrix(0.05,0,0,0.05,25.950000000000003,0)" xlink:href="#ag"/><use transform="matrix(0.05,0,0,0.05,34.95,0)" xlink:href="#ah"/></g><path d="M197 0v-115H63V0H30v-248h33v105h134v-105h34V0h-34" id="ai"/><path d="M127-220V0H93v-220H8v-28h204v28h-85" id="aj"/><path d="M240 0l2-218c-23 76-54 145-80 218h-23L58-218 59 0H30v-248h44l77 211c21-75 51-140 76-211h43V0h-30" id="ak"/><path d="M30 0v-248h33v221h125V0H30" id="al"/><g id="g"><use transform="matrix(0.05,0,0,0.05,0,0)" xlink:href="#ai"/><use transform="matrix(0.05,0,0,0.05,12.950000000000001,0)" xlink:href="#aj"/><use transform="matrix(0.05,0,0,0.05,23.900000000000002,0)" xlink:href="#ak"/><use transform="matrix(0.05,0,0,0.05,38.85,0)" xlink:href="#al"/></g><path d="M101-251c82-7 93 87 43 132L82-64C71-53 59-42 53-27h129V0H18c2-99 128-94 128-182 0-28-16-43-45-43s-46 15-49 41l-32-3c6-41 34-60 81-64" id="am"/><g id="h"><use transform="matrix(0.05,0,0,0.05,0,0)" xlink:href="#am"/><use transform="matrix(0.05,0,0,0.05,10,0)" xlink:href="#ac"/></g><g id="i"><use transform="matrix(0.05,0,0,0.05,0,0)" xlink:href="#ai"/><use transform="matrix(0.05,0,0,0.05,12.950000000000001,0)" xlink:href="#aj"/><use transform="matrix(0.05,0,0,0.05,23.900000000000002,0)" xlink:href="#ak"/><use transform="matrix(0.05,0,0,0.05,38.85,0)" xlink:href="#al"/></g><path d="M155-56V0h-30v-56H8v-25l114-167h33v167h35v25h-35zm-30-156c-27 46-58 90-88 131h88v-131" id="an"/><g id="j"><use transform="matrix(0.05,0,0,0.05,0,0)" xlink:href="#an"/><use transform="matrix(0.05,0,0,0.05,10,0)" xlink:href="#ac"/></g><path d="M185-189c-5-48-123-54-124 2 14 75 158 14 163 119 3 78-121 87-175 55-17-10-28-26-33-46l33-7c5 56 141 63 141-1 0-78-155-14-162-118-5-82 145-84 179-34 5 7 8 16 11 25" id="ao"/><path d="M100-194c62-1 85 37 85 99 1 63-27 99-86 99S16-35 15-95c0-66 28-99 85-99zM99-20c44 1 53-31 53-75 0-43-8-75-51-75s-53 32-53 75 10 74 51 75" id="ap"/><path d="M114-163C36-179 61-72 57 0H25l-1-190h30c1 12-1 29 2 39 6-27 23-49 58-41v29" id="aq"/><g id="k"><use transform="matrix(0.05,0,0,0.05,0,0)" xlink:href="#ao"/><use transform="matrix(0.05,0,0,0.05,12,0)" xlink:href="#af"/><use transform="matrix(0.05,0,0,0.05,17,0)" xlink:href="#ap"/><use transform="matrix(0.05,0,0,0.05,27,0)" xlink:href="#aq"/><use transform="matrix(0.05,0,0,0.05,32.95,0)" xlink:href="#ae"/></g><path fill="#fff" d="M67-125c0 53 21 87 73 88 37 1 54-22 65-47l45 17C233-25 199 4 140 4 58 4 20-42 15-125 8-235 124-281 211-232c18 10 29 29 36 50l-46 12c-8-25-30-41-62-41-52 0-71 34-72 86" id="ar"/><path fill="#fff" d="M135-150c-39-12-60 13-60 57V0H25l-1-190h47c2 13-1 29 3 40 6-28 27-53 61-41v41" id="as"/><path fill="#fff" d="M110-194c64 0 96 36 96 99 0 64-35 99-97 99-61 0-95-36-95-99 0-62 34-99 96-99zm-1 164c35 0 45-28 45-65 0-40-10-65-43-65-34 0-45 26-45 65 0 36 10 65 43 65" id="at"/><path fill="#fff" d="M135-194c87-1 58 113 63 194h-50c-7-57 23-157-34-157-59 0-34 97-39 157H25l-1-190h47c2 12-1 28 3 38 12-26 28-41 61-42" id="au"/><g id="l"><use transform="matrix(0.05,0,0,0.05,0,0)" xlink:href="#ar"/><use transform="matrix(0.05,0,0,0.05,12.950000000000001,0)" xlink:href="#as"/><use transform="matrix(0.05,0,0,0.05,19.950000000000003,0)" xlink:href="#at"/><use transform="matrix(0.05,0,0,0.05,30.900000000000006,0)" xlink:href="#au"/></g><path fill="#fff" d="M137-138c1-29-70-34-71-4 15 46 118 7 119 86 1 83-164 76-172 9l43-7c4 19 20 25 44 25 33 8 57-30 24-41C81-84 22-81 20-136c-2-80 154-74 161-7" id="av"/><path fill="#fff" d="M135-194c53 0 70 44 70 98 0 56-19 98-73 100-31 1-45-17-59-34 3 33 2 69 2 105H25l-1-265h48c2 10 0 23 3 31 11-24 29-35 60-35zM114-30c33 0 39-31 40-66 0-38-9-64-40-64-56 0-55 130 0 130" id="aw"/><path fill="#fff" d="M115-3C79 11 28 4 28-45v-112H4v-33h27l15-45h31v45h36v33H77v99c-1 23 16 31 38 25v30" id="ax"/><g id="m"><use transform="matrix(0.05,0,0,0.05,0,0)" xlink:href="#av"/><use transform="matrix(0.05,0,0,0.05,10,0)" xlink:href="#Y"/><use transform="matrix(0.05,0,0,0.05,20,0)" xlink:href="#as"/><use transform="matrix(0.05,0,0,0.05,27,0)" xlink:href="#V"/><use transform="matrix(0.05,0,0,0.05,32,0)" xlink:href="#aw"/><use transform="matrix(0.05,0,0,0.05,42.95,0)" xlink:href="#ax"/></g><linearGradient gradientUnits="userSpaceOnUse" id="n" x1="400" y1="560" x2="400" y2="640"><stop offset="0%" stop-color="#ea465f"/><stop offset="100%" stop-color="#da2a46"/></linearGradient><path fill="#fff" d="M240-174c0 40-23 61-54 70L253 0h-59l-57-94H76V0H24v-248c93 4 217-23 216 74zM76-134c48-2 112 12 112-38 0-48-66-32-112-35v73" id="ay"/><path fill="#fff" d="M88-194c31-1 46 15 58 34l-1-101h50l1 261h-48c-2-10 0-23-3-31C134-8 116 4 84 4 32 4 16-41 15-95c0-56 19-97 73-99zm17 164c33 0 40-30 41-66 1-37-9-64-41-64s-38 30-39 65c0 43 13 65 39 65" id="az"/><g id="o"><use transform="matrix(0.05,0,0,0.05,0,0)" xlink:href="#ay"/><use transform="matrix(0.05,0,0,0.05,12.950000000000001,0)" xlink:href="#X"/><use transform="matrix(0.05,0,0,0.05,22.950000000000003,0)" xlink:href="#az"/></g><path fill="#fff" d="M195-6C206 82 75 100 31 46c-4-6-6-13-8-21l49-6c3 16 16 24 34 25 40 0 42-37 40-79-11 22-30 35-61 35-53 0-70-43-70-97 0-56 18-96 73-97 30 0 46 14 59 34l2-30h47zm-90-29c32 0 41-27 41-63 0-35-9-62-40-62-32 0-39 29-40 63 0 36 9 62 39 62" id="aA"/><g id="p"><use transform="matrix(0.05,0,0,0.05,0,0)" xlink:href="#U"/><use transform="matrix(0.05,0,0,0.05,10.950000000000001,0)" xlink:href="#W"/><use transform="matrix(0.05,0,0,0.05,15.950000000000001,0)" xlink:href="#Z"/><use transform="matrix(0.05,0,0,0.05,25.950000000000003,0)" xlink:href="#aA"/><use transform="matrix(0.05,0,0,0.05,36.900000000000006,0)" xlink:href="#av"/></g><path fill="#fff" d="M24 0v-248h195v40H76v63h132v40H76v65h150V0H24" id="aB"/><g id="q"><use transform="matrix(0.05,0,0,0.05,0,0)" xlink:href="#aB"/><use transform="matrix(0.05,0,0,0.05,12,0)" xlink:href="#au"/><use transform="matrix(0.05,0,0,0.05,22.950000000000003,0)" xlink:href="#aA"/><use transform="matrix(0.05,0,0,0.05,33.900000000000006,0)" xlink:href="#V"/><use transform="matrix(0.05,0,0,0.05,38.900000000000006,0)" xlink:href="#au"/><use transform="matrix(0.05,0,0,0.05,49.85000000000001,0)" xlink:href="#X"/></g><path d="M27 0v-27h64v-190l-56 39v-29l58-41h29v221h61V0H27" id="aC"/><g id="r"><use transform="matrix(0.05,0,0,0.05,0,0)" xlink:href="#aC"/><use transform="matrix(0.05,0,0,0.05,10,0)" xlink:href="#ac"/></g><path d="M141-36C126-15 110 5 73 4 37 3 15-17 15-53c-1-64 63-63 125-63 3-35-9-54-41-54-24 1-41 7-42 31l-33-3c5-37 33-52 76-52 45 0 72 20 72 64v82c-1 20 7 32 28 27v20c-31 9-61-2-59-35zM48-53c0 20 12 33 32 33 41-3 63-29 60-74-43 2-92-5-92 41" id="aD"/><path d="M84 4C-5 8 30-112 23-190h32v120c0 31 7 50 39 49 72-2 45-101 50-169h31l1 190h-30c-1-10 1-25-2-33-11 22-28 36-60 37" id="aE"/><path d="M117-194c89-4 53 116 60 194h-32v-121c0-31-8-49-39-48C34-167 62-67 57 0H25l-1-190h30c1 10-1 24 2 32 11-22 29-35 61-36" id="aF"/><g id="s"><use transform="matrix(0.05,0,0,0.05,0,0)" xlink:href="#al"/><use transform="matrix(0.05,0,0,0.05,10,0)" xlink:href="#aD"/><use transform="matrix(0.05,0,0,0.05,20,0)" xlink:href="#aE"/><use transform="matrix(0.05,0,0,0.05,30,0)" xlink:href="#aF"/><use transform="matrix(0.05,0,0,0.05,40,0)" xlink:href="#ag"/><use transform="matrix(0.05,0,0,0.05,49,0)" xlink:href="#ah"/></g><path fill="#fff" d="M230 0l2-204L168 0h-37L68-204 70 0H24v-248h70l56 185 57-185h69V0h-46" id="aG"/><path fill="#fff" d="M123 10C108 53 80 86 19 72V37c35 8 53-11 59-39L3-190h52l48 148c12-52 28-100 44-148h51" id="aH"/><path fill="#fff" d="M169-182c-1-43-94-46-97-3 18 66 151 10 154 114 3 95-165 93-204 36-6-8-10-19-12-30l50-8c3 46 112 56 116 5-17-69-150-10-154-114-4-87 153-88 188-35 5 8 8 18 10 28" id="aI"/><path fill="#fff" d="M140-251c80 0 125 45 125 126 0 70-33 111-92 124 6 28 34 38 68 31l-1 36C177 83 129 55 120 2 51-6 15-50 15-125c0-81 44-126 125-126zm-1 214c52 0 73-35 73-88 0-50-21-86-72-86-52 0-73 35-73 86s22 88 72 88" id="aJ"/><path fill="#fff" d="M24 0v-248h52v208h133V0H24" id="aK"/><g id="t"><use transform="matrix(0.05,0,0,0.05,0,0)" xlink:href="#aG"/><use transform="matrix(0.05,0,0,0.05,14.950000000000001,0)" xlink:href="#aH"/><use transform="matrix(0.05,0,0,0.05,24.950000000000003,0)" xlink:href="#aI"/><use transform="matrix(0.05,0,0,0.05,36.95,0)" xlink:href="#aJ"/><use transform="matrix(0.05,0,0,0.05,50.95,0)" xlink:href="#aK"/></g><path fill="#fff" d="M24-248c120-7 223 5 221 122C244-46 201 0 124 0H24v-248zM76-40c74 7 117-18 117-86 0-67-45-88-117-82v168" id="aL"/><path fill="#fff" d="M135-194c52 0 70 43 70 98 0 56-19 99-73 100-30 1-46-15-58-35L72 0H24l1-261h50v104c11-23 29-37 60-37zM114-30c31 0 40-27 40-66 0-37-7-63-39-63s-41 28-41 65c0 36 8 64 40 64" id="aM"/><g id="u"><use transform="matrix(0.05,0,0,0.05,0,0)" xlink:href="#aL"/><use transform="matrix(0.05,0,0,0.05,12.950000000000001,0)" xlink:href="#Z"/><use transform="matrix(0.05,0,0,0.05,22.950000000000003,0)" xlink:href="#ax"/><use transform="matrix(0.05,0,0,0.05,28.900000000000002,0)" xlink:href="#Z"/><use transform="matrix(0.05,0,0,0.05,38.900000000000006,0)" xlink:href="#aM"/><use transform="matrix(0.05,0,0,0.05,49.85000000000001,0)" xlink:href="#Z"/><use transform="matrix(0.05,0,0,0.05,59.85,0)" xlink:href="#av"/><use transform="matrix(0.05,0,0,0.05,69.85000000000001,0)" xlink:href="#X"/></g><path d="M54-142c48-35 137-8 131 61C196 18 31 33 14-55l32-4c7 23 22 37 52 37 35-1 51-22 54-58 4-55-73-65-99-34H22l8-134h141v27H59" id="aN"/><g id="v"><use transform="matrix(0.05,0,0,0.05,0,0)" xlink:href="#aN"/><use transform="matrix(0.05,0,0,0.05,10,0)" xlink:href="#ac"/></g><path d="M85-194c31 0 48 13 60 33l-1-100h32l1 261h-30c-2-10 0-23-3-31C134-8 116 4 85 4 32 4 16-35 15-94c0-66 23-100 70-100zm9 24c-40 0-46 34-46 75 0 40 6 74 45 74 42 0 51-32 51-76 0-42-9-74-50-73" id="aO"/><g id="w"><use transform="matrix(0.05,0,0,0.05,0,0)" xlink:href="#aO"/><use transform="matrix(0.05,0,0,0.05,10,0)" xlink:href="#aD"/><use transform="matrix(0.05,0,0,0.05,20,0)" xlink:href="#af"/><use transform="matrix(0.05,0,0,0.05,25,0)" xlink:href="#aD"/></g><linearGradient gradientUnits="userSpaceOnUse" id="x" x1="1120" y1="540" x2="1120" y2="660"><stop offset="0%" stop-color="#ea465f"/><stop offset="100%" stop-color="#da2a46"/></linearGradient><path fill="#fff" d="M275 0h-61l-44-196L126 0H64L0-248h53L97-49l45-199h58l43 199 44-199h52" id="aP"/><g id="y"><use transform="matrix(0.05,0,0,0.05,0,0)" xlink:href="#aP"/><use transform="matrix(0.05,0,0,0.05,16.599999999999998,0)" xlink:href="#X"/><use transform="matrix(0.05,0,0,0.05,26.599999999999994,0)" xlink:href="#aM"/><use transform="matrix(0.05,0,0,0.05,37.55,0)" xlink:href="#Z"/><use transform="matrix(0.05,0,0,0.05,47.55,0)" xlink:href="#aw"/><use transform="matrix(0.05,0,0,0.05,58.5,0)" xlink:href="#aw"/></g><path d="M134-131c28 9 52 24 51 62-1 50-34 73-85 73S17-19 16-69c0-36 21-54 49-61-75-25-45-126 34-121 46 3 78 18 79 63 0 33-17 51-44 57zm-34-11c31 1 46-15 46-44 0-28-17-43-47-42-29 0-46 13-45 42 1 28 16 44 46 44zm1 122c35 0 51-18 51-52 0-30-18-46-53-46-33 0-51 17-51 47 0 34 19 51 53 51" id="aQ"/><path d="M68-38c1 34 0 65-14 84H32c9-13 17-26 17-46H33v-38h35" id="aR"/><g id="z"><use transform="matrix(0.05,0,0,0.05,0,0)" xlink:href="#aQ"/><use transform="matrix(0.05,0,0,0.05,10,0)" xlink:href="#ac"/><use transform="matrix(0.05,0,0,0.05,15,0)" xlink:href="#aR"/></g><g id="A"><use transform="matrix(0.05,0,0,0.05,0,0)" xlink:href="#aC"/><use transform="matrix(0.05,0,0,0.05,8.65,0)" xlink:href="#aC"/><use transform="matrix(0.05,0,0,0.05,18.65,0)" xlink:href="#ac"/></g><path d="M233-177c-1 41-23 64-60 70L243 0h-38l-65-103H63V0H30v-248c88 3 205-21 203 71zM63-129c60-2 137 13 137-47 0-61-80-42-137-45v92" id="aS"/><g id="B"><use transform="matrix(0.05,0,0,0.05,0,0)" xlink:href="#aS"/><use transform="matrix(0.05,0,0,0.05,12.950000000000001,0)" xlink:href="#ae"/><use transform="matrix(0.05,0,0,0.05,22.950000000000003,0)" xlink:href="#aD"/><use transform="matrix(0.05,0,0,0.05,32.95,0)" xlink:href="#aO"/></g><path fill="#fff" d="M14-72v-43h91v43H14" id="aT"/><path fill="#fff" d="M238-95c0 69-44 99-111 99C63 4 22-25 22-93v-155h51v151c-1 38 19 59 55 60 90 1 49-130 58-211h52v153" id="aU"/><g id="C"><use transform="matrix(0.05,0,0,0.05,0,0)" xlink:href="#aB"/><use transform="matrix(0.05,0,0,0.05,12,0)" xlink:href="#au"/><use transform="matrix(0.05,0,0,0.05,22.950000000000003,0)" xlink:href="#az"/><use transform="matrix(0.05,0,0,0.05,33.900000000000006,0)" xlink:href="#aT"/><use transform="matrix(0.05,0,0,0.05,39.85000000000001,0)" xlink:href="#aU"/><use transform="matrix(0.05,0,0,0.05,52.80000000000001,0)" xlink:href="#av"/><use transform="matrix(0.05,0,0,0.05,62.80000000000001,0)" xlink:href="#X"/><use transform="matrix(0.05,0,0,0.05,72.80000000000001,0)" xlink:href="#as"/></g><path d="M101-251c68 0 85 55 85 127S166 4 100 4C33 4 14-52 14-124c0-73 17-127 87-127zm-1 229c47 0 54-49 54-102s-4-102-53-102c-51 0-55 48-55 102 0 53 5 102 54 102" id="aV"/><g id="D"><use transform="matrix(0.05,0,0,0.05,0,0)" xlink:href="#aC"/><use transform="matrix(0.05,0,0,0.05,10,0)" xlink:href="#aV"/><use transform="matrix(0.05,0,0,0.05,20,0)" xlink:href="#ac"/></g><path d="M160-131c35 5 61 23 61 61C221 17 115-2 30 0v-248c76 3 177-17 177 60 0 33-19 50-47 57zm-97-11c50-1 110 9 110-42 0-47-63-36-110-37v79zm0 115c55-2 124 14 124-45 0-56-70-42-124-44v89" id="aW"/><path d="M206 0h-36l-40-164L89 0H53L-1-190h32L70-26l43-164h34l41 164 42-164h31" id="aX"/><path d="M135-143c-3-34-86-38-87 0 15 53 115 12 119 90S17 21 10-45l28-5c4 36 97 45 98 0-10-56-113-15-118-90-4-57 82-63 122-42 12 7 21 19 24 35" id="aY"/><g id="E"><use transform="matrix(0.05,0,0,0.05,0,0)" xlink:href="#aW"/><use transform="matrix(0.05,0,0,0.05,12,0)" xlink:href="#aq"/><use transform="matrix(0.05,0,0,0.05,17.95,0)" xlink:href="#ap"/><use transform="matrix(0.05,0,0,0.05,27.950000000000003,0)" xlink:href="#aX"/><use transform="matrix(0.05,0,0,0.05,40.9,0)" xlink:href="#aY"/><use transform="matrix(0.05,0,0,0.05,49.9,0)" xlink:href="#ae"/></g><g id="F"><use transform="matrix(0.05,0,0,0.05,0,0)" xlink:href="#aO"/><use transform="matrix(0.05,0,0,0.05,10,0)" xlink:href="#aD"/><use transform="matrix(0.05,0,0,0.05,20,0)" xlink:href="#af"/><use transform="matrix(0.05,0,0,0.05,25,0)" xlink:href="#aD"/></g><path d="M99-251c64 0 84 50 84 122C183-37 130 33 47-8c-14-7-20-23-25-40l30-5c6 39 69 39 84 7 9-19 16-44 16-74-10 22-31 35-62 35-49 0-73-33-73-83 0-54 28-83 82-83zm-1 141c31-1 51-18 51-49 0-36-14-67-51-67-34 0-49 23-49 58 0 34 15 58 49 58" id="aZ"/><g id="G"><use transform="matrix(0.05,0,0,0.05,0,0)" xlink:href="#aZ"/><use transform="matrix(0.05,0,0,0.05,10,0)" xlink:href="#ac"/></g><g id="H"><use transform="matrix(0.05,0,0,0.05,0,0)" xlink:href="#ao"/><use transform="matrix(0.05,0,0,0.05,12,0)" xlink:href="#ae"/><use transform="matrix(0.05,0,0,0.05,22,0)" xlink:href="#aF"/><use transform="matrix(0.05,0,0,0.05,32,0)" xlink:href="#aO"/></g><path d="M115-194c53 0 69 39 70 98 0 66-23 100-70 100C84 3 66-7 56-30L54 0H23l1-261h32v101c10-23 28-34 59-34zm-8 174c40 0 45-34 45-75 0-40-5-75-45-74-42 0-51 32-51 76 0 43 10 73 51 73" id="ba"/><path d="M24-231v-30h32v30H24zM24 0v-190h32V0H24" id="bb"/><path d="M115-194c55 1 70 41 70 98S169 2 115 4C84 4 66-9 55-30l1 105H24l-1-265h31l2 30c10-21 28-34 59-34zm-8 174c40 0 45-34 45-75s-6-73-45-74c-42 0-51 32-51 76 0 43 10 73 51 73" id="bc"/><g id="I"><use transform="matrix(0.05,0,0,0.05,0,0)" xlink:href="#aY"/><use transform="matrix(0.05,0,0,0.05,9,0)" xlink:href="#aE"/><use transform="matrix(0.05,0,0,0.05,19,0)" xlink:href="#ba"/><use transform="matrix(0.05,0,0,0.05,29,0)" xlink:href="#aY"/><use transform="matrix(0.05,0,0,0.05,38,0)" xlink:href="#ag"/><use transform="matrix(0.05,0,0,0.05,47,0)" xlink:href="#aq"/><use transform="matrix(0.05,0,0,0.05,52.95,0)" xlink:href="#bb"/><use transform="matrix(0.05,0,0,0.05,56.900000000000006,0)" xlink:href="#bc"/><use transform="matrix(0.05,0,0,0.05,66.9,0)" xlink:href="#af"/><use transform="matrix(0.05,0,0,0.05,71.9,0)" xlink:href="#bb"/><use transform="matrix(0.05,0,0,0.05,75.85000000000001,0)" xlink:href="#ap"/><use transform="matrix(0.05,0,0,0.05,85.85000000000001,0)" xlink:href="#aF"/></g><path d="M210-169c-67 3-38 105-44 169h-31v-121c0-29-5-50-35-48C34-165 62-65 56 0H25l-1-190h30c1 10-1 24 2 32 10-44 99-50 107 0 11-21 27-35 58-36 85-2 47 119 55 194h-31v-121c0-29-5-49-35-48" id="bd"/><path d="M24 0v-261h32V0H24" id="be"/><g id="J"><use transform="matrix(0.05,0,0,0.05,0,0)" xlink:href="#ae"/><use transform="matrix(0.05,0,0,0.05,10,0)" xlink:href="#bd"/><use transform="matrix(0.05,0,0,0.05,24.950000000000003,0)" xlink:href="#aD"/><use transform="matrix(0.05,0,0,0.05,34.95,0)" xlink:href="#bb"/><use transform="matrix(0.05,0,0,0.05,38.900000000000006,0)" xlink:href="#be"/><use transform="matrix(0.05,0,0,0.05,42.85000000000001,0)" xlink:href="#aY"/></g><path d="M110-160c48 1 74 30 74 79 0 53-28 85-80 85-65 0-83-55-86-122-5-90 50-162 133-122 14 7 22 21 27 39l-31 6c-5-40-67-38-82-6-9 19-15 44-15 74 11-20 30-34 60-33zm-7 138c34 0 49-23 49-58s-16-56-50-56c-29 0-50 16-49 49 1 36 15 65 50 65" id="bf"/><g id="K"><use transform="matrix(0.05,0,0,0.05,0,0)" xlink:href="#bf"/><use transform="matrix(0.05,0,0,0.05,10,0)" xlink:href="#ac"/></g><path d="M177-190C167-65 218 103 67 71c-23-6-38-20-44-43l32-5c15 47 100 32 89-28v-30C133-14 115 1 83 1 29 1 15-40 15-95c0-56 16-97 71-98 29-1 48 16 59 35 1-10 0-23 2-32h30zM94-22c36 0 50-32 50-73 0-42-14-75-50-75-39 0-46 34-46 75s6 73 46 73" id="bg"/><g id="L"><use transform="matrix(0.05,0,0,0.05,0,0)" xlink:href="#aS"/><use transform="matrix(0.05,0,0,0.05,12.950000000000001,0)" xlink:href="#ae"/><use transform="matrix(0.05,0,0,0.05,22.950000000000003,0)" xlink:href="#bg"/><use transform="matrix(0.05,0,0,0.05,32.95,0)" xlink:href="#ae"/><use transform="matrix(0.05,0,0,0.05,42.95,0)" xlink:href="#aF"/><use transform="matrix(0.05,0,0,0.05,52.95,0)" xlink:href="#ae"/><use transform="matrix(0.05,0,0,0.05,62.95,0)" xlink:href="#aq"/><use transform="matrix(0.05,0,0,0.05,68.9,0)" xlink:href="#aD"/><use transform="matrix(0.05,0,0,0.05,78.9,0)" xlink:href="#af"/><use transform="matrix(0.05,0,0,0.05,83.9,0)" xlink:href="#ae"/></g><g id="M"><use transform="matrix(0.05,0,0,0.05,0,0)" xlink:href="#ah"/><use transform="matrix(0.05,0,0,0.05,10,0)" xlink:href="#ae"/><use transform="matrix(0.05,0,0,0.05,20,0)" xlink:href="#be"/><use transform="matrix(0.05,0,0,0.05,23.95,0)" xlink:href="#bc"/><use transform="matrix(0.05,0,0,0.05,33.95,0)" xlink:href="#ae"/><use transform="matrix(0.05,0,0,0.05,43.95,0)" xlink:href="#aq"/></g><g id="N"><use transform="matrix(0.05,0,0,0.05,0,0)" xlink:href="#af"/><use transform="matrix(0.05,0,0,0.05,5,0)" xlink:href="#aD"/><use transform="matrix(0.05,0,0,0.05,15,0)" xlink:href="#ba"/><use transform="matrix(0.05,0,0,0.05,25,0)" xlink:href="#be"/><use transform="matrix(0.05,0,0,0.05,28.950000000000003,0)" xlink:href="#ae"/><use transform="matrix(0.05,0,0,0.05,38.95,0)" xlink:href="#aY"/></g><path d="M64 0c3-98 48-159 88-221H18v-27h164v26C143-157 98-101 97 0H64" id="bh"/><g id="O"><use transform="matrix(0.05,0,0,0.05,0,0)" xlink:href="#bh"/><use transform="matrix(0.05,0,0,0.05,10,0)" xlink:href="#ac"/></g><g id="P"><use transform="matrix(0.05,0,0,0.05,0,0)" xlink:href="#aj"/><use transform="matrix(0.05,0,0,0.05,10.3,0)" xlink:href="#aq"/><use transform="matrix(0.05,0,0,0.05,16.25,0)" xlink:href="#bb"/><use transform="matrix(0.05,0,0,0.05,20.2,0)" xlink:href="#bg"/><use transform="matrix(0.05,0,0,0.05,30.200000000000003,0)" xlink:href="#bg"/><use transform="matrix(0.05,0,0,0.05,40.2,0)" xlink:href="#ae"/><use transform="matrix(0.05,0,0,0.05,50.2,0)" xlink:href="#aq"/></g><g id="Q"><use transform="matrix(0.05,0,0,0.05,0,0)" xlink:href="#aY"/><use transform="matrix(0.05,0,0,0.05,9,0)" xlink:href="#aE"/><use transform="matrix(0.05,0,0,0.05,19,0)" xlink:href="#ba"/><use transform="matrix(0.05,0,0,0.05,29,0)" xlink:href="#aY"/><use transform="matrix(0.05,0,0,0.05,38,0)" xlink:href="#ag"/><use transform="matrix(0.05,0,0,0.05,47,0)" xlink:href="#aq"/><use transform="matrix(0.05,0,0,0.05,52.95,0)" xlink:href="#bb"/><use transform="matrix(0.05,0,0,0.05,56.900000000000006,0)" xlink:href="#bc"/><use transform="matrix(0.05,0,0,0.05,66.9,0)" xlink:href="#af"/><use transform="matrix(0.05,0,0,0.05,71.9,0)" xlink:href="#bb"/><use transform="matrix(0.05,0,0,0.05,75.85000000000001,0)" xlink:href="#ap"/><use transform="matrix(0.05,0,0,0.05,85.85000000000001,0)" xlink:href="#aF"/><use transform="matrix(0.05,0,0,0.05,95.85000000000001,0)" xlink:href="#aY"/></g></defs></g></svg>