<svg xmlns="http://www.w3.org/2000/svg" xmlns:xlink="http://www.w3.org/1999/xlink" width="1080" height="360"><g transform="translate(-100 -60)"><path d="M190.7 204.83c.72-2.67 3.54-4.83 6.3-4.83h118c2.76 0 4.42 2.16 3.7 4.83l-29.4 110.34c-.72 2.67-3.54 4.83-6.3 4.83H165c-2.76 0-4.42-2.16-3.7-4.83z" stroke="#000" stroke-width="2" fill="url(#a)"/><use xlink:href="#b" transform="matrix(1,0,0,1,160,200) translate(39.63000000000001 51.9)"/><use xlink:href="#c" transform="matrix(1,0,0,1,160,200) translate(99.48 51.9)"/><use xlink:href="#d" transform="matrix(1,0,0,1,160,200) translate(47.105000000000004 73.5)"/><path d="M470.7 204.83c.72-2.67 3.54-4.83 6.3-4.83h118c2.76 0 4.42 2.16 3.7 4.83l-29.4 110.34c-.72 2.67-3.54 4.83-6.3 4.83H445c-2.76 0-4.42-2.16-3.7-4.83z" stroke="#000" stroke-width="2" fill="url(#e)"/><use xlink:href="#f" transform="matrix(1,0,0,1,440,200) translate(40.08 40.65)"/><use xlink:href="#g" transform="matrix(1,0,0,1,440,200) translate(33.10499999999999 62.25)"/><use xlink:href="#h" transform="matrix(1,0,0,1,440,200) translate(75.005 62.25)"/><use xlink:href="#i" transform="matrix(1,0,0,1,440,200) translate(43.55499999999999 83.85000000000001)"/><path d="M750.7 204.83c.72-2.67 3.54-4.83 6.3-4.83h118c2.76 0 4.42 2.16 3.7 4.83l-29.4 110.34c-.72 2.67-3.54 4.83-6.3 4.83H725c-2.76 0-4.42-2.16-3.7-4.83z" stroke="#000" stroke-width="2" fill="#3e78a6"/><use xlink:href="#j" transform="matrix(1,0,0,1,720,200) translate(52.230000000000004 51.9)"/><use xlink:href="#k" transform="matrix(1,0,0,1,720,200) translate(38.08 73.5)"/><path d="M304 260l7.76 1.9 6.86 1.4 6.16.98 5.65.65 5.28.4 5.03.15 4.88-.05 4.88-.26 5.05-.47 5.54-.76 6.9-1.25 30.96-6.64 5.54-.76 5.05-.47 4.87-.26 4.87-.05 5.02.16 5.27.4 5.65.64 6.16.98 6.86 1.4L456 260" stroke="#000" stroke-width="2" fill="none"/><path d="M303.78 260.98h-.04l.27-1.03zM456 260l-14.94 1.38 2.04-9.04z"/><path d="M456.27 259l-.54 2.03-15.94 1.48 2.63-11.72zm-13.93 1.26l10.5-.97-9.06-5.4z"/><path d="M584 260l7.76 1.9 6.86 1.4 6.16.98 5.65.65 5.28.4 5.03.15 4.88-.05 4.88-.26 5.05-.47 5.54-.76 6.9-1.25 30.96-6.64 5.54-.76 5.05-.47 4.87-.26 4.87-.05 5.02.16 5.27.4 5.65.64 6.16.98 6.86 1.4L736 260" stroke="#000" stroke-width="2" fill="none"/><path d="M583.78 260.98h-.04l.27-1.03zM736 260l-14.94 1.38 2.04-9.04z"/><path d="M736.27 259l-.54 2.03-15.94 1.48 2.63-11.72zm-13.93 1.26l10.5-.97-9.06-5.4z"/><path d="M1030.7 204.83c.72-2.67 3.54-4.83 6.3-4.83h118c2.76 0 4.42 2.16 3.7 4.83l-29.4 110.34c-.72 2.67-3.54 4.83-6.3 4.83h-118c-2.76 0-4.42-2.16-3.7-4.83z" stroke="#000" stroke-width="2" fill="url(#l)"/><use xlink:href="#f" transform="matrix(1,0,0,1,1000,200) translate(40.08 40.65)"/><use xlink:href="#g" transform="matrix(1,0,0,1,1000,200) translate(33.10499999999999 62.25)"/><use xlink:href="#h" transform="matrix(1,0,0,1,1000,200) translate(75.005 62.25)"/><use xlink:href="#m" transform="matrix(1,0,0,1,1000,200) translate(50.605000000000004 83.85000000000001)"/><path d="M864 260l7.76 1.9 6.86 1.4 6.16.98 5.65.65 5.28.4 5.03.15 4.88-.05 4.88-.26 5.05-.47 5.54-.76 6.9-1.25 30.96-6.64 5.54-.76 5.05-.47 4.87-.26 4.87-.05 5.02.16 5.27.4 5.65.64 6.16.98 6.86 1.4 7.76 1.9" stroke="#000" stroke-width="2" fill="none"/><path d="M863.78 260.98h-.04l.27-1.03zM1016 260l-14.94 1.38 2.04-9.04z"/><path d="M1016.27 259l-.54 2.03-15.94 1.48 2.63-11.72zm-13.93 1.26l10.5-.97-9.06-5.4z"/><path d="M260 172.5c0-17.95 14.55-32.5 32.5-32.5h455c17.95 0 32.5 14.55 32.5 32.5m0 195c0 17.95-14.55 32.5-32.5 32.5h-455c-17.95 0-32.5-14.55-32.5-32.5M827.53 172.5c0-17.95 14.55-32.5 32.5-32.5h267.47c17.95 0 32.5 14.55 32.5 32.5m0 195c0 17.95-14.55 32.5-32.5 32.5H860.03c-17.95 0-32.5-14.55-32.5-32.5" stroke="#000" stroke-width="2" fill="none"/><path d="M260 85c0-2.76 2.24-5 5-5h510c2.76 0 5 2.24 5 5v50c0 2.76-2.24 5-5 5H265c-2.76 0-5-2.24-5-5z" fill="none"/><g><use xlink:href="#n" transform="matrix(1,0,0,1,260,80) translate(175.7 33.6)"/><use xlink:href="#o" transform="matrix(1,0,0,1,260,80) translate(218.6 33.6)"/><use xlink:href="#p" transform="matrix(1,0,0,1,260,80) translate(284.45 33.6)"/></g><path d="M820 85c0-2.76 2.24-5 5-5h330c2.76 0 5 2.24 5 5v50c0 2.76-2.24 5-5 5H825c-2.76 0-5-2.24-5-5z" fill="none"/><g><use xlink:href="#n" transform="matrix(1,0,0,1,820,80) translate(80.9 33.6)"/><use xlink:href="#o" transform="matrix(1,0,0,1,820,80) translate(123.80000000000001 33.6)"/><use xlink:href="#q" transform="matrix(1,0,0,1,820,80) translate(189.65 33.6)"/></g><path d="M120 85c0-2.76 2.24-5 5-5h110c2.76 0 5 2.24 5 5v50c0 2.76-2.24 5-5 5H125c-2.76 0-5-2.24-5-5z" fill="none"/><g><use xlink:href="#r" transform="matrix(1,0,0,1,120,80) translate(42.05 33.6)"/></g><defs><linearGradient gradientUnits="userSpaceOnUse" id="a" x1="320" y1="200" x2="320" y2="320"><stop offset="0%" stop-color="#95d8d1"/><stop offset="100%" stop-color="#76a8a6"/></linearGradient><path d="M175 0L67-191c6 58 2 128 3 191H24v-248h59L193-55c-6-58-2-129-3-193h46V0h-61" id="s"/><path d="M110-194c64 0 96 36 96 99 0 64-35 99-97 99-61 0-95-36-95-99 0-62 34-99 96-99zm-1 164c35 0 45-28 45-65 0-40-10-65-43-65-34 0-45 26-45 65 0 36 10 65 43 65" id="t"/><path d="M115-3C79 11 28 4 28-45v-112H4v-33h27l15-45h31v45h36v33H77v99c-1 23 16 31 38 25v30" id="u"/><path d="M25-224v-37h50v37H25zM25 0v-190h50V0H25" id="v"/><path d="M190-63c-7 42-38 67-86 67-59 0-84-38-90-98-12-110 154-137 174-36l-49 2c-2-19-15-32-35-32-30 0-35 28-38 64-6 74 65 87 74 30" id="w"/><path d="M185-48c-13 30-37 53-82 52C43 2 14-33 14-96s30-98 90-98c62 0 83 45 84 108H66c0 31 8 55 39 56 18 0 30-7 34-22zm-45-69c5-46-57-63-70-21-2 6-4 13-4 21h74" id="x"/><g id="b"><use transform="matrix(0.05,0,0,0.05,0,0)" xlink:href="#s"/><use transform="matrix(0.05,0,0,0.05,12.950000000000001,0)" xlink:href="#t"/><use transform="matrix(0.05,0,0,0.05,23.900000000000002,0)" xlink:href="#u"/><use transform="matrix(0.05,0,0,0.05,29.85,0)" xlink:href="#v"/><use transform="matrix(0.05,0,0,0.05,34.85,0)" xlink:href="#w"/><use transform="matrix(0.05,0,0,0.05,44.85,0)" xlink:href="#x"/></g><path d="M133-34C117-15 103 5 69 4 32 3 11-16 11-54c-1-60 55-63 116-61 1-26-3-47-28-47-18 1-26 9-28 27l-52-2c7-38 36-58 82-57s74 22 75 68l1 82c-1 14 12 18 25 15v27c-30 8-71 5-69-32zm-48 3c29 0 43-24 42-57-32 0-66-3-65 30 0 17 8 27 23 27" id="y"/><path d="M135-194c52 0 70 43 70 98 0 56-19 99-73 100-30 1-46-15-58-35L72 0H24l1-261h50v104c11-23 29-37 60-37zM114-30c31 0 40-27 40-66 0-37-7-63-39-63s-41 28-41 65c0 36 8 64 40 64" id="z"/><g id="c"><use transform="matrix(0.05,0,0,0.05,0,0)" xlink:href="#u"/><use transform="matrix(0.05,0,0,0.05,5.95,0)" xlink:href="#y"/><use transform="matrix(0.05,0,0,0.05,15.949999999999998,0)" xlink:href="#z"/></g><path d="M186 0v-106H76V0H24v-248h52v99h110v-99h50V0h-50" id="A"/><path d="M136-208V0H84v-208H4v-40h212v40h-80" id="B"/><path d="M230 0l2-204L168 0h-37L68-204 70 0H24v-248h70l56 185 57-185h69V0h-46" id="C"/><path d="M24 0v-248h52v208h133V0H24" id="D"/><path d="M137-138c1-29-70-34-71-4 15 46 118 7 119 86 1 83-164 76-172 9l43-7c4 19 20 25 44 25 33 8 57-30 24-41C81-84 22-81 20-136c-2-80 154-74 161-7" id="E"/><g id="d"><use transform="matrix(0.05,0,0,0.05,0,0)" xlink:href="#A"/><use transform="matrix(0.05,0,0,0.05,12.950000000000001,0)" xlink:href="#B"/><use transform="matrix(0.05,0,0,0.05,23.900000000000002,0)" xlink:href="#C"/><use transform="matrix(0.05,0,0,0.05,38.85,0)" xlink:href="#D"/><use transform="matrix(0.05,0,0,0.05,49.800000000000004,0)" xlink:href="#E"/></g><linearGradient gradientUnits="userSpaceOnUse" id="e" x1="600" y1="200" x2="600" y2="320"><stop offset="0%" stop-color="#ea465f"/><stop offset="100%" stop-color="#da2a46"/></linearGradient><path fill="#fff" d="M24 0v-248h52V0H24" id="F"/><path fill="#fff" d="M135-194c87-1 58 113 63 194h-50c-7-57 23-157-34-157-59 0-34 97-39 157H25l-1-190h47c2 12-1 28 3 38 12-26 28-41 61-42" id="G"/><path fill="#fff" d="M14-72v-43h91v43H14" id="H"/><path fill="#fff" d="M220-157c-53 9-28 100-34 157h-49v-107c1-27-5-49-29-50C55-147 81-57 75 0H25l-1-190h47c2 12-1 28 3 38 10-53 101-56 108 0 13-22 24-43 59-42 82 1 51 116 57 194h-49v-107c-1-25-5-48-29-50" id="I"/><path fill="#fff" d="M185-48c-13 30-37 53-82 52C43 2 14-33 14-96s30-98 90-98c62 0 83 45 84 108H66c0 31 8 55 39 56 18 0 30-7 34-22zm-45-69c5-46-57-63-70-21-2 6-4 13-4 21h74" id="J"/><path fill="#fff" d="M110-194c64 0 96 36 96 99 0 64-35 99-97 99-61 0-95-36-95-99 0-62 34-99 96-99zm-1 164c35 0 45-28 45-65 0-40-10-65-43-65-34 0-45 26-45 65 0 36 10 65 43 65" id="K"/><path fill="#fff" d="M135-150c-39-12-60 13-60 57V0H25l-1-190h47c2 13-1 29 3 40 6-28 27-53 61-41v41" id="L"/><path fill="#fff" d="M123 10C108 53 80 86 19 72V37c35 8 53-11 59-39L3-190h52l48 148c12-52 28-100 44-148h51" id="M"/><g id="f"><use transform="matrix(0.05,0,0,0.05,0,0)" xlink:href="#F"/><use transform="matrix(0.05,0,0,0.05,5,0)" xlink:href="#G"/><use transform="matrix(0.05,0,0,0.05,15.950000000000001,0)" xlink:href="#H"/><use transform="matrix(0.05,0,0,0.05,21.900000000000002,0)" xlink:href="#I"/><use transform="matrix(0.05,0,0,0.05,37.900000000000006,0)" xlink:href="#J"/><use transform="matrix(0.05,0,0,0.05,47.900000000000006,0)" xlink:href="#I"/><use transform="matrix(0.05,0,0,0.05,63.900000000000006,0)" xlink:href="#K"/><use transform="matrix(0.05,0,0,0.05,74.85000000000001,0)" xlink:href="#L"/><use transform="matrix(0.05,0,0,0.05,81.85000000000001,0)" xlink:href="#M"/></g><path fill="#fff" d="M88-194c31-1 46 15 58 34l-1-101h50l1 261h-48c-2-10 0-23-3-31C134-8 116 4 84 4 32 4 16-41 15-95c0-56 19-97 73-99zm17 164c33 0 40-30 41-66 1-37-9-64-41-64s-38 30-39 65c0 43 13 65 39 65" id="N"/><path fill="#fff" d="M133-34C117-15 103 5 69 4 32 3 11-16 11-54c-1-60 55-63 116-61 1-26-3-47-28-47-18 1-26 9-28 27l-52-2c7-38 36-58 82-57s74 22 75 68l1 82c-1 14 12 18 25 15v27c-30 8-71 5-69-32zm-48 3c29 0 43-24 42-57-32 0-66-3-65 30 0 17 8 27 23 27" id="O"/><path fill="#fff" d="M115-3C79 11 28 4 28-45v-112H4v-33h27l15-45h31v45h36v33H77v99c-1 23 16 31 38 25v30" id="P"/><g id="g"><use transform="matrix(0.05,0,0,0.05,0,0)" xlink:href="#N"/><use transform="matrix(0.05,0,0,0.05,10.950000000000001,0)" xlink:href="#O"/><use transform="matrix(0.05,0,0,0.05,20.950000000000003,0)" xlink:href="#P"/><use transform="matrix(0.05,0,0,0.05,26.900000000000002,0)" xlink:href="#O"/></g><path fill="#fff" d="M25 0v-261h50V0H25" id="Q"/><g id="h"><use transform="matrix(0.05,0,0,0.05,0,0)" xlink:href="#I"/><use transform="matrix(0.05,0,0,0.05,16,0)" xlink:href="#K"/><use transform="matrix(0.05,0,0,0.05,26.950000000000003,0)" xlink:href="#N"/><use transform="matrix(0.05,0,0,0.05,37.900000000000006,0)" xlink:href="#J"/><use transform="matrix(0.05,0,0,0.05,47.900000000000006,0)" xlink:href="#Q"/></g><path fill="#fff" d="M67-93c0 74 22 123 53 168H70C40 30 18-18 18-93s22-123 52-168h50c-32 44-53 94-53 168" id="R"/><path fill="#fff" d="M24-248c93 1 206-16 204 79-1 75-69 88-152 82V0H24v-248zm52 121c47 0 100 7 100-41 0-47-54-39-100-39v80" id="S"/><path fill="#fff" d="M140-251c80 0 125 45 125 126S219 4 139 4C58 4 15-44 15-125s44-126 125-126zm-1 214c52 0 73-35 73-88 0-50-21-86-72-86-52 0-73 35-73 86s22 88 72 88" id="T"/><path fill="#fff" d="M176-78C186 10 51 31 16-35c-5-9-9-19-11-32l52-8c4 21 12 37 35 38 23 0 32-16 32-40v-130H75v-41h101v170" id="U"/><path fill="#fff" d="M102-93c0 74-22 123-52 168H0C30 29 54-18 53-93c0-74-22-123-53-168h50c30 45 52 94 52 168" id="V"/><g id="i"><use transform="matrix(0.05,0,0,0.05,0,0)" xlink:href="#R"/><use transform="matrix(0.05,0,0,0.05,5.95,0)" xlink:href="#S"/><use transform="matrix(0.05,0,0,0.05,17.95,0)" xlink:href="#T"/><use transform="matrix(0.05,0,0,0.05,31.950000000000003,0)" xlink:href="#U"/><use transform="matrix(0.05,0,0,0.05,41.95,0)" xlink:href="#T"/><use transform="matrix(0.05,0,0,0.05,55.95,0)" xlink:href="#V"/></g><path fill="#fff" d="M230 0l2-204L168 0h-37L68-204 70 0H24v-248h70l56 185 57-185h69V0h-46" id="W"/><path fill="#fff" d="M169-182c-1-43-94-46-97-3 18 66 151 10 154 114 3 95-165 93-204 36-6-8-10-19-12-30l50-8c3 46 112 56 116 5-17-69-150-10-154-114-4-87 153-88 188-35 5 8 8 18 10 28" id="X"/><path fill="#fff" d="M140-251c80 0 125 45 125 126 0 70-33 111-92 124 6 28 34 38 68 31l-1 36C177 83 129 55 120 2 51-6 15-50 15-125c0-81 44-126 125-126zm-1 214c52 0 73-35 73-88 0-50-21-86-72-86-52 0-73 35-73 86s22 88 72 88" id="Y"/><path fill="#fff" d="M24 0v-248h52v208h133V0H24" id="Z"/><g id="j"><use transform="matrix(0.05,0,0,0.05,0,0)" xlink:href="#W"/><use transform="matrix(0.05,0,0,0.05,14.950000000000001,0)" xlink:href="#M"/><use transform="matrix(0.05,0,0,0.05,24.950000000000003,0)" xlink:href="#X"/><use transform="matrix(0.05,0,0,0.05,36.95,0)" xlink:href="#Y"/><use transform="matrix(0.05,0,0,0.05,50.95,0)" xlink:href="#Z"/></g><path fill="#fff" d="M135-194c52 0 70 43 70 98 0 56-19 99-73 100-30 1-46-15-58-35L72 0H24l1-261h50v104c11-23 29-37 60-37zM114-30c31 0 40-27 40-66 0-37-7-63-39-63s-41 28-41 65c0 36 8 64 40 64" id="aa"/><path fill="#fff" d="M137-138c1-29-70-34-71-4 15 46 118 7 119 86 1 83-164 76-172 9l43-7c4 19 20 25 44 25 33 8 57-30 24-41C81-84 22-81 20-136c-2-80 154-74 161-7" id="ab"/><g id="k"><use transform="matrix(0.05,0,0,0.05,0,0)" xlink:href="#N"/><use transform="matrix(0.05,0,0,0.05,10.950000000000001,0)" xlink:href="#O"/><use transform="matrix(0.05,0,0,0.05,20.950000000000003,0)" xlink:href="#P"/><use transform="matrix(0.05,0,0,0.05,26.900000000000002,0)" xlink:href="#O"/><use transform="matrix(0.05,0,0,0.05,36.900000000000006,0)" xlink:href="#aa"/><use transform="matrix(0.05,0,0,0.05,47.85000000000001,0)" xlink:href="#O"/><use transform="matrix(0.05,0,0,0.05,57.85,0)" xlink:href="#ab"/><use transform="matrix(0.05,0,0,0.05,67.85000000000001,0)" xlink:href="#J"/></g><linearGradient gradientUnits="userSpaceOnUse" id="l" x1="1160" y1="200" x2="1160" y2="320"><stop offset="0%" stop-color="#ea465f"/><stop offset="100%" stop-color="#da2a46"/></linearGradient><path fill="#fff" d="M135-194c53 0 70 44 70 98 0 56-19 98-73 100-31 1-45-17-59-34 3 33 2 69 2 105H25l-1-265h48c2 10 0 23 3 31 11-24 29-35 60-35zM114-30c33 0 39-31 40-66 0-38-9-64-40-64-56 0-55 130 0 130" id="ac"/><g id="m"><use transform="matrix(0.05,0,0,0.05,0,0)" xlink:href="#R"/><use transform="matrix(0.05,0,0,0.05,5.95,0)" xlink:href="#W"/><use transform="matrix(0.05,0,0,0.05,20.900000000000002,0)" xlink:href="#O"/><use transform="matrix(0.05,0,0,0.05,30.900000000000002,0)" xlink:href="#ac"/><use transform="matrix(0.05,0,0,0.05,41.85,0)" xlink:href="#V"/></g><path d="M240-174c0 40-23 61-54 70L253 0h-59l-57-94H76V0H24v-248c93 4 217-23 216 74zM76-134c48-2 112 12 112-38 0-48-66-32-112-35v73" id="ad"/><path d="M24 0v-248h195v40H76v63h132v40H76v65h150V0H24" id="ae"/><path d="M24-248c120-7 223 5 221 122C244-46 201 0 124 0H24v-248zM76-40c74 7 117-18 117-86 0-67-45-88-117-82v168" id="af"/><g id="n"><use transform="matrix(0.05,0,0,0.05,0,0)" xlink:href="#ad"/><use transform="matrix(0.05,0,0,0.05,12.950000000000001,0)" xlink:href="#ae"/><use transform="matrix(0.05,0,0,0.05,24.950000000000003,0)" xlink:href="#af"/></g><path d="M76-208v77h127v40H76V0H24v-248h183v40H76" id="ag"/><path d="M199 0l-22-63H83L61 0H9l90-248h61L250 0h-51zm-33-102l-36-108c-10 38-24 72-36 108h72" id="ah"/><path d="M67-125c0 54 23 88 75 88 28 0 53-7 68-21v-34h-60v-39h108v91C232-14 192 4 140 4 58 4 20-42 15-125 8-236 126-280 215-234c19 10 29 26 37 47l-47 15c-11-23-29-39-63-39-53 1-75 33-75 86" id="ai"/><path d="M169-182c-1-43-94-46-97-3 18 66 151 10 154 114 3 95-165 93-204 36-6-8-10-19-12-30l50-8c3 46 112 56 116 5-17-69-150-10-154-114-4-87 153-88 188-35 5 8 8 18 10 28" id="aj"/><g id="o"><use transform="matrix(0.05,0,0,0.05,0,0)" xlink:href="#ag"/><use transform="matrix(0.05,0,0,0.05,10.950000000000001,0)" xlink:href="#D"/><use transform="matrix(0.05,0,0,0.05,21.900000000000002,0)" xlink:href="#ah"/><use transform="matrix(0.05,0,0,0.05,34.85,0)" xlink:href="#ai"/><use transform="matrix(0.05,0,0,0.05,48.85,0)" xlink:href="#aj"/></g><path d="M135-194c87-1 58 113 63 194h-50c-7-57 23-157-34-157-59 0-34 97-39 157H25l-1-190h47c2 12-1 28 3 38 12-26 28-41 61-42" id="ak"/><path d="M195-6C206 82 75 100 31 46c-4-6-6-13-8-21l49-6c3 16 16 24 34 25 40 0 42-37 40-79-11 22-30 35-61 35-53 0-70-43-70-97 0-56 18-96 73-97 30 0 46 14 59 34l2-30h47zm-90-29c32 0 41-27 41-63 0-35-9-62-40-62-32 0-39 29-40 63 0 36 9 62 39 62" id="al"/><g id="p"><use transform="matrix(0.05,0,0,0.05,0,0)" xlink:href="#ae"/><use transform="matrix(0.05,0,0,0.05,12,0)" xlink:href="#ak"/><use transform="matrix(0.05,0,0,0.05,22.950000000000003,0)" xlink:href="#al"/><use transform="matrix(0.05,0,0,0.05,33.900000000000006,0)" xlink:href="#v"/><use transform="matrix(0.05,0,0,0.05,38.900000000000006,0)" xlink:href="#ak"/><use transform="matrix(0.05,0,0,0.05,49.85000000000001,0)" xlink:href="#x"/></g><path d="M275 0h-61l-44-196L126 0H64L0-248h53L97-49l45-199h58l43 199 44-199h52" id="am"/><path d="M135-194c53 0 70 44 70 98 0 56-19 98-73 100-31 1-45-17-59-34 3 33 2 69 2 105H25l-1-265h48c2 10 0 23 3 31 11-24 29-35 60-35zM114-30c33 0 39-31 40-66 0-38-9-64-40-64-56 0-55 130 0 130" id="an"/><g id="q"><use transform="matrix(0.05,0,0,0.05,0,0)" xlink:href="#am"/><use transform="matrix(0.05,0,0,0.05,16.599999999999998,0)" xlink:href="#x"/><use transform="matrix(0.05,0,0,0.05,26.599999999999994,0)" xlink:href="#z"/><use transform="matrix(0.05,0,0,0.05,37.55,0)" xlink:href="#y"/><use transform="matrix(0.05,0,0,0.05,47.55,0)" xlink:href="#an"/><use transform="matrix(0.05,0,0,0.05,58.5,0)" xlink:href="#an"/></g><g id="r"><use transform="matrix(0.05,0,0,0.05,0,0)" xlink:href="#B"/><use transform="matrix(0.05,0,0,0.05,10.950000000000001,0)" xlink:href="#ae"/><use transform="matrix(0.05,0,0,0.05,22.950000000000003,0)" xlink:href="#af"/></g></defs></g></svg>