<svg xmlns="http://www.w3.org/2000/svg" xmlns:xlink="http://www.w3.org/1999/xlink" width="960" height="840"><g transform="translate(-220 -180)"><path d="M760 820l10.67-.22 10.16-.64 9.7-1.02 9.33-1.37 8.98-1.72 8.66-2.03 8.4-2.34 8.16-2.65 7.95-2.95 7.78-3.27 7.62-3.58 7.48-3.9 7.37-4.27 7.27-4.6 7.2-5 7.12-5.43 7.08-5.86 7.05-6.34 7.02-6.88 7-7.46 7-8.1 6.98-8.83 6.98-9.6 6.98-10.52 6.96-11.5 6.93-12.6 6.87-13.86 6.78-15.25 6.65-16.8 6.45-18.53 6.15-20.42 5.76-22.46 5.22-24.63 4.52-26.82 3.66-28.95 2.58-30.85 1.35-32.3.17-16.45" fill="none"/><path d="M760 820l9.87-.2m9.84-.6l1.13-.06 9.7-1.02 8.76-1.3m9.68-1.82l8.52-2 8.4-2.34 2.15-.7m9.33-3.2l4.63-1.7 7.78-3.28 5.75-2.7m8.78-4.5l.58-.3 7.37-4.25 7.27-4.6 1.6-1.13m8.04-5.74l4.68-3.56 7.08-5.86 3.46-3.1m7.18-6.76l3.43-3.36 7-7.46 3.06-3.56m6.32-7.57l4.6-5.8 6.98-9.6.25-.38m5.46-8.22l1.28-1.92 6.96-11.5 1.9-3.48m4.76-8.64l.27-.48 6.87-13.86 1.5-3.4m4.02-9l1.26-2.85 6.12-15.46m3.3-9.3l3.68-10.57 2.46-8.16m2.84-9.44l.85-2.8 4.17-16.27m2.3-9.6l4.1-19.3m1.73-9.7l3.2-19.05.07-.4m1.23-9.8l2.37-18.75.06-.83m.83-9.82l1.63-19.66m.44-9.87l.82-19.7m.2-9.87l.1-9.86" stroke="#000" stroke-width="2" fill="none"/><path d="M760.04 821H760v-1.17zM1024.5 434.3l-9.28-.08L1020 420z"/><path d="M1025.85 435.33l-12.02-.13 5.1-15.2h2.12zm-9.25-2.1l6.52.07-3.15-10.06z"/><path d="M440 245c0-2.76 2.24-5 5-5h150c2.76 0 5 2.24 5 5v70c0 2.76-2.24 5-5 5H445c-2.76 0-5-2.24-5-5z" stroke="#000" stroke-width="2" fill="url(#a)"/><use xlink:href="#b" transform="matrix(1,0,0,1,440,240) translate(54.505 31.9)"/><use xlink:href="#c" transform="matrix(1,0,0,1,440,240) translate(6.704999999999993 53.5)"/><use xlink:href="#d" transform="matrix(1,0,0,1,440,240) translate(68.555 53.5)"/><use xlink:href="#e" transform="matrix(1,0,0,1,440,240) translate(91.50500000000001 53.5)"/><path d="M240 605c0-2.76 2.24-5 5-5h150c2.76 0 5 2.24 5 5v70c0 2.76-2.24 5-5 5H245c-2.76 0-5-2.24-5-5z" stroke="#000" stroke-width="2" fill="url(#f)"/><path d="M256 600v80m-16-64h160" stroke="#000" stroke-width="2" fill="none"/><use xlink:href="#g" transform="matrix(1,0,0,1,256,616) translate(18.974999999999987 34.4)"/><path d="M520 320l-.12 5.5-.33 5.4-.56 5.3-.78 5.2-.97 5.1-1.17 5-1.37 4.88-1.54 4.8-1.75 4.68-1.9 4.58-2.12 4.47-2.27 4.37-2.44 4.24-2.62 4.13-2.78 4-2.94 3.87-3.1 3.74-3.24 3.6-3.4 3.47-3.52 3.33-3.67 3.17-3.82 3-3.93 2.87-4.07 2.7-4.18 2.53-4.3 2.37-4.4 2.2-4.54 2-4.63 1.84-4.74 1.66-4.85 1.46-4.95 1.27-5.04 1.06-5.15.87-5.24.66-5.35.44-5.44.23-2.76.03" stroke="#000" stroke-width="2" fill="none"/><path d="M523.8 334.52l-9.27-.55L520 320z"/><path d="M525.1 335.6l-12-.7 5.83-14.9h2.1zm-9.13-2.55l6.5.4-2.66-10.22zM400.06 441H400v-1z"/><use xlink:href="#h" transform="matrix(1,0,0,1,420.8359569820153,361.308454355972) translate(0 14.4)"/><use xlink:href="#i" transform="matrix(1,0,0,1,420.8359569820153,361.308454355972) translate(34 14.4)"/><use xlink:href="#j" transform="matrix(1,0,0,1,420.8359569820153,361.308454355972) translate(0 36)"/><use xlink:href="#k" transform="matrix(1,0,0,1,420.8359569820153,361.308454355972) translate(52.95 36)"/><path d="M400 640l2.38-.05 2.32-.15 2.26-.23 2.2-.33 2.2-.42 2.15-.5 2.14-.6 2.13-.7 2.13-.78 2.13-.9 2.16-1 2.16-1.15 2.22-1.3 2.26-1.42 2.3-1.62 2.4-1.8L438 625l2.6-2.3 2.68-2.66 2.85-3.03 3.03-3.5 3.25-4.1 3.54-4.87 3.88-5.86 4.37-7.23 5.05-9.22 6.2-12.5 8.52-19.27 40.6-100.18 6.18-12.5 5.06-9.2 4.38-7.24 3.88-5.86 3.53-4.86 3.24-4.1 3.03-3.5 2.85-3.04 2.7-2.65 2.57-2.3 2.46-2.05 2.4-1.8 2.3-1.63 2.26-1.43 2.22-1.3 2.17-1.13 2.17-1 2.13-.9 2.13-.8 2.13-.7 2.13-.6 2.15-.5 2.18-.4 2.2-.34 2.27-.23 2.32-.15L600 380" stroke="#000" stroke-width="2" fill="none"/><path d="M400.14 641H400V640zM600 380l-13.5 6.54-1.27-9.18z"/><path d="M600 378.98v2.13l-14.3 6.94-1.64-11.9zm-12.7 6.06l9.5-4.6-10.4-1.85z"/><use xlink:href="#l" transform="matrix(1,0,0,1,454.7406959305474,465.1158311405661) translate(0 14.4)"/><path d="M600 365c0-2.76 2.24-5 5-5h150c2.76 0 5 2.24 5 5v30c0 2.76-2.24 5-5 5H605c-2.76 0-5-2.24-5-5z" stroke="#000" stroke-width="2" fill="url(#m)"/><use xlink:href="#n" transform="matrix(1,0,0,1,600,360) translate(13.579999999999993 24.4)"/><use xlink:href="#o" transform="matrix(1,0,0,1,600,360) translate(93.53 24.4)"/><path d="M600 605c0-2.76 2.24-5 5-5h150c2.76 0 5 2.24 5 5v50c0 2.76-2.24 5-5 5H605c-2.76 0-5-2.24-5-5z" stroke="#000" stroke-width="2" fill="url(#p)"/><use xlink:href="#q" transform="matrix(1,0,0,1,600,600) translate(15.579999999999993 19.41)"/><use xlink:href="#r" transform="matrix(1,0,0,1,600,600) translate(93.43 19.41)"/><use xlink:href="#s" transform="matrix(1,0,0,1,600,600) translate(10.104999999999999 41.01)"/><use xlink:href="#o" transform="matrix(1,0,0,1,600,600) translate(97.00500000000001 41.01)"/><path d="M400 640l45.47-.86 31.75-2 77.3-6.28L600 630" stroke="#000" stroke-width="2" fill="none"/><path d="M400.02 641H400v-1.16zM600 630l-14.18 4.9-.17-9.27z"/><path d="M600 628.95v2.1l-15.15 5.25-.23-12.02zm-13.2 4.56l9.96-3.44-10.08-3.07z"/><path d="M960 615c0-2.76 2.24-5 5-5h150c2.76 0 5 2.24 5 5v30c0 2.76-2.24 5-5 5H965c-2.76 0-5-2.24-5-5z" stroke="#000" stroke-width="2" fill="url(#t)"/><use xlink:href="#u" transform="matrix(1,0,0,1,960,610) translate(17.12999999999999 24.4)"/><path d="M600 685c0-2.76 2.24-5 5-5h150c2.76 0 5 2.24 5 5v30c0 2.76-2.24 5-5 5H605c-2.76 0-5-2.24-5-5z" stroke="#000" stroke-width="2" fill="url(#v)"/><use xlink:href="#w" transform="matrix(1,0,0,1,600,680) translate(18.304999999999986 24.4)"/><use xlink:href="#x" transform="matrix(1,0,0,1,600,680) translate(59.20499999999999 24.4)"/><use xlink:href="#o" transform="matrix(1,0,0,1,600,680) translate(88.80499999999999 24.4)"/><path d="M760 630h200" stroke="#000" stroke-width="2" fill="none"/><path d="M760 631v-2zM960 630l-14.27 4.64v-9.28z"/><path d="M960 628.95v2.1L944.73 636v-12zm-13.27 4.3l10.03-3.25-10.03-3.26z"/><use xlink:href="#y" transform="matrix(1,0,0,1,813.0416666666656,634) translate(0 14.4)"/><use xlink:href="#z" transform="matrix(1,0,0,1,813.0416666666656,634) translate(95.75 14.4)"/><path d="M400 640l9.8.2 8.67.54 7.8.82 7.12 1.05 6.58 1.27 6.2 1.45 5.95 1.66 5.8 1.9 5.8 2.14 6 2.52 6.5 3.06 7.87 4.13 39.68 22.67 6.5 3.06 6 2.52 5.78 2.15 5.8 1.9 5.95 1.65 6.22 1.45 6.6 1.26 7.1 1.04 7.8.82 8.68.54 9.8.2" stroke="#000" stroke-width="2" fill="none"/><path d="M400.04 639l-.04 1.1V639zM600 700l-14.42 4.13.33-9.26z"/><path d="M600 698.94v2.1l-15.47 4.43.42-12zm-13.37 3.85l10.14-2.9-9.9-3.62z"/><path d="M600 545c0-2.76 2.24-5 5-5h150c2.76 0 5 2.24 5 5v30c0 2.76-2.24 5-5 5H605c-2.76 0-5-2.24-5-5z" stroke="#000" stroke-width="2" fill="url(#A)"/><use xlink:href="#B" transform="matrix(1,0,0,1,600,540) translate(6.179999999999987 24.4)"/><use xlink:href="#C" transform="matrix(1,0,0,1,600,540) translate(43.12999999999999 24.4)"/><use xlink:href="#o" transform="matrix(1,0,0,1,600,540) translate(100.93 24.4)"/><path d="M400 640l7.47-.15 6.8-.43 6.27-.66 5.82-.86 5.47-1.04 5.18-1.2 4.98-1.4 4.8-1.56 4.72-1.75 4.67-1.97 4.7-2.2 4.84-2.54 5.13-2.96 5.65-3.6 6.8-4.73 11.6-8.87 21.83-17.03 6.82-4.74 5.65-3.58 5.12-2.96 4.83-2.53 4.7-2.2 4.67-1.98 4.7-1.75 4.82-1.56 4.97-1.4 5.17-1.2 5.47-1.04 5.82-.86 6.26-.66 6.8-.43L600 560" stroke="#000" stroke-width="2" fill="none"/><path d="M400.05 641H400v-1.07zM600 560l-14.05 5.25-.4-9.26z"/><path d="M600 558.96v2.1l-15 5.6-.5-12zm-13.1 4.87l9.87-3.7-10.17-2.8z"/><path d="M600 865c0-2.76 2.24-5 5-5h150c2.76 0 5 2.24 5 5v30c0 2.76-2.24 5-5 5H605c-2.76 0-5-2.24-5-5z" stroke="#000" stroke-width="2" fill="url(#D)"/><use xlink:href="#E" transform="matrix(1,0,0,1,600,860) translate(8.104999999999999 24.4)"/><use xlink:href="#F" transform="matrix(1,0,0,1,600,860) translate(84.00500000000001 24.4)"/><path d="M400 640l2.58.05 2.5.16 2.43.27 2.4.35 2.32.44 2.3.54 2.3.64 2.25.74 2.26.84 2.27.95 2.28 1.07 2.3 1.2 2.34 1.36 2.38 1.5 2.44 1.7 2.5 1.92 2.6 2.15 2.72 2.43 2.83 2.78 3 3.2 3.17 3.7 3.43 4.32 3.74 5.15 4.16 6.26 4.73 7.84 5.62 10.25 7.3 14.75 13.9 31.6 23.8 55.3 7.3 14.76 5.62 10.26 4.73 7.83 4.16 6.25 3.74 5.15 3.43 4.33 3.18 3.7 3 3.2 2.84 2.77 2.7 2.43 2.6 2.15 2.52 1.9 2.44 1.7 2.38 1.52 2.34 1.35 2.3 1.2 2.28 1.08 2.27.95 2.26.84 2.26.74 2.27.64 2.3.54 2.34.44 2.4.35 2.43.26 2.5.15 2.57.05" stroke="#000" stroke-width="2" fill="none"/><path d="M400.13 639l-.13 1.02V639zM600 880l-14.74 2.8 1.17-9.2z"/><path d="M600 878.9V881l-15.9 3 1.52-11.9zm-13.57 2.66l10.36-1.97-9.55-4.5z"/><path d="M600 925c0-2.76 2.24-5 5-5h150c2.76 0 5 2.24 5 5v30c0 2.76-2.24 5-5 5H605c-2.76 0-5-2.24-5-5z" stroke="#000" stroke-width="2" fill="url(#G)"/><use xlink:href="#H" transform="matrix(1,0,0,1,600,920) translate(13.904999999999982 24.4)"/><use xlink:href="#F" transform="matrix(1,0,0,1,600,920) translate(78.205 24.4)"/><path d="M400 640l2.07.04 2.02.13 1.97.2 1.94.3 1.94.36 1.9.45 1.9.53 1.9.63 1.9.7 1.9.8 1.95.92 1.95 1.03 2 1.15 2.05 1.3 2.1 1.47 2.18 1.65 2.26 1.87 2.35 2.12 2.46 2.42 2.6 2.77 2.78 3.2 2.96 3.76 3.2 4.4 3.52 5.3 3.9 6.44 4.4 8.04 5.14 10.36 6.28 14.17 8.62 21.9 44.3 125.1 6.28 14.16 5.14 10.36 4.4 8.04 3.9 6.44 3.5 5.3 3.22 4.4 2.96 3.76 2.77 3.2 2.6 2.78 2.48 2.42 2.36 2.12 2.26 1.87 2.17 1.65 2.1 1.46 2.04 1.3 2 1.16 1.97 1.03 1.95.9 1.9.82 1.9.7 1.9.62 1.9.52 1.9.45 1.94.36 1.93.3 1.98.2 2.03.13 2.07.04" stroke="#000" stroke-width="2" fill="none"/><path d="M400.16 639l-.16 1.02V639zM600 940l-14.82 2.34 1.46-9.15z"/><path d="M600 938.88V941l-16.02 2.55 1.88-11.88zm-13.6 2.26l10.4-1.65-9.4-4.8z"/><path d="M600 745c0-2.76 2.24-5 5-5h150c2.76 0 5 2.24 5 5v30c0 2.76-2.24 5-5 5H605c-2.76 0-5-2.24-5-5z" stroke="#000" stroke-width="2" fill="url(#I)"/><use xlink:href="#J" transform="matrix(1,0,0,1,600,740) translate(38.05499999999999 24.4)"/><use xlink:href="#K" transform="matrix(1,0,0,1,600,740) translate(111.95500000000001 24.4)"/><path d="M600 805c0-2.76 2.24-5 5-5h150c2.76 0 5 2.24 5 5v30c0 2.76-2.24 5-5 5H605c-2.76 0-5-2.24-5-5z" stroke="#000" stroke-width="2" fill="url(#L)"/><use xlink:href="#J" transform="matrix(1,0,0,1,600,800) translate(36.57999999999999 24.4)"/><use xlink:href="#M" transform="matrix(1,0,0,1,600,800) translate(110.48 24.4)"/><path d="M400 640l5.07.1 4.75.3 4.5.48 4.27.63 4.08.8 3.95.9 3.82 1.08 3.72 1.2 3.66 1.37 3.6 1.5 3.6 1.7 3.6 1.88 3.62 2.1 3.7 2.35 3.83 2.66 4 3.04 4.27 3.54 4.7 4.23 5.4 5.3 6.9 7.38 36.8 42.32 5.4 5.3 4.7 4.23 4.27 3.54 4 3.04 3.83 2.66 3.7 2.35 3.63 2.1 3.6 1.88 3.6 1.7 3.6 1.5 3.65 1.36 3.72 1.22 3.82 1.07 3.95.9 4.1.8 4.27.62 4.48.48 4.75.3 5.07.1" stroke="#000" stroke-width="2" fill="none"/><path d="M400.07 639l-.07 1.05V639zM600 760l-14.54 3.7.6-9.25z"/><path d="M600 758.92v2.1l-15.62 4 .78-12zm-13.45 3.47l10.22-2.6-9.8-3.9z"/><path d="M400 640l3.42.07 3.27.2 3.15.34 3.05.46 2.98.57 2.9.68 2.86.8 2.82.92 2.8 1.04 2.77 1.17 2.77 1.3 2.8 1.46 2.8 1.62 2.87 1.82 2.92 2.03 3 2.28 3.1 2.57 3.25 2.93 3.42 3.35 3.65 3.9 3.96 4.58 4.4 5.55 5.05 6.97 6.22 9.4 9.3 15.42 30.2 52.6 6.22 9.38 5.06 6.97 4.4 5.55 3.95 4.6 3.65 3.88 3.42 3.35 3.25 2.93 3.1 2.57 3 2.28 2.93 2.03 2.86 1.82 2.8 1.63 2.8 1.47 2.77 1.3 2.78 1.17 2.8 1.04 2.8.9 2.86.8 2.92.7 2.98.56 3.05.45 3.16.32 3.28.2 3.42.08" stroke="#000" stroke-width="2" fill="none"/><path d="M400.1 639l-.1 1.03V639zM600 820l-14.65 3.24.9-9.23z"/><path d="M600 818.9v2.12l-15.77 3.5 1.15-11.97zm-13.52 3.07l10.3-2.28-9.67-4.22z"/><path d="M1088 820c6.63 0 12 17.9 12 40s-5.37 40-12 40h-96c-6.63 0-12-17.9-12-40s5.37-40 12-40z" stroke="#000" stroke-width="2" fill="#8b928c"/><path d="M1088 900c-6.63 0-12-17.9-12-40s5.37-40 12-40" stroke="#000" stroke-width="2" fill="none"/><use xlink:href="#N" transform="matrix(1,0,0,1,980,820) translate(31.58 44.4)"/><path d="M1080 992c0 4.42-17.9 8-40 8s-40-3.58-40-8v-64c0-4.42 17.9-8 40-8s40 3.58 40 8z" stroke="#000" stroke-width="2" fill="#3e78a6"/><path d="M1080 928c0 4.42-17.9 8-40 8s-40-3.58-40-8" stroke="#000" stroke-width="2" fill="none"/><use xlink:href="#O" transform="matrix(1,0,0,1,1000,941) translate(27.53 32.8375)"/><path d="M760 940l36.52.7 26.1 1.63 22.46 2.36 92.3 12.97 26.1 1.62 36.52.7" stroke="#000" stroke-width="2" fill="none"/><path d="M760.02 939l-.02 1.18V939zM1000 960l-14.35 4.36.18-9.27z"/><path d="M1000 958.94v2.1l-15.38 4.67.23-12zM986.67 963l10.1-3.06-9.97-3.46z"/><use xlink:href="#P" transform="matrix(1,0,0,1,850.0574538297573,923.387512010991) translate(0 14.4)"/><path d="M240 245c0-2.76 2.24-5 5-5h150c2.76 0 5 2.24 5 5v70c0 2.76-2.24 5-5 5H245c-2.76 0-5-2.24-5-5z" stroke="#000" stroke-width="2" fill="url(#Q)"/><use xlink:href="#R" transform="matrix(1,0,0,1,240,240) translate(32.05499999999999 44.4)"/><path d="M320 320v80" stroke="#000" stroke-width="2" fill="none"/><path d="M324.64 334.27h-9.28L320 320z"/><path d="M326 335.27h-12l4.95-15.27h2.1zm-9.26-2h6.52L320 323.24z"/><use xlink:href="#h" transform="matrix(1,0,0,1,233.0500000000001,349.2005999940001) translate(0 14.4)"/><use xlink:href="#S" transform="matrix(1,0,0,1,233.0500000000001,349.2005999940001) translate(34 14.4)"/><path d="M940 345c0-2.76 2.24-5 5-5h150c2.76 0 5 2.24 5 5v70c0 2.76-2.24 5-5 5H945c-2.76 0-5-2.24-5-5z" stroke="#000" stroke-width="2" fill="url(#T)"/><use xlink:href="#U" transform="matrix(1,0,0,1,940,340) translate(49.029999999999994 31.9)"/><use xlink:href="#V" transform="matrix(1,0,0,1,940,340) translate(24.57999999999999 53.5)"/><use xlink:href="#W" transform="matrix(1,0,0,1,940,340) translate(65.47999999999999 53.5)"/><path d="M1148 200c6.63 0 12 17.9 12 40s-5.37 40-12 40h-96c-6.63 0-12-17.9-12-40s5.37-40 12-40z" stroke="#000" stroke-width="2" fill="#8b928c"/><path d="M1148 280c-6.63 0-12-17.9-12-40s5.37-40 12-40" stroke="#000" stroke-width="2" fill="none"/><use xlink:href="#N" transform="matrix(1,0,0,1,1040,200) translate(31.58 44.4)"/><path d="M895 256c-8.28 0-15-7.16-15-16 0-7.07 4.06-13.03 10.36-15.22C890 204 915 200 925 208c5-12 30-8 30 4 15-4 30 12 20 32 10 16 0 36-20 28-5 10.4-25 10.4-30 0-10 8-30 4-30-16z" stroke="#000" stroke-width="2" fill="url(#X)"/><use xlink:href="#Y" transform="matrix(1,0,0,1,880,200) translate(37.05499999999999 44.4)"/><path d="M600 425c0-2.76 2.24-5 5-5h150c2.76 0 5 2.24 5 5v30c0 2.76-2.24 5-5 5H605c-2.76 0-5-2.24-5-5z" stroke="#000" stroke-width="2" fill="url(#Z)"/><use xlink:href="#aa" transform="matrix(1,0,0,1,600,420) translate(26.154999999999994 24.4)"/><use xlink:href="#ab" transform="matrix(1,0,0,1,600,420) translate(94.055 24.4)"/><path d="M400 640l3.08-.06 2.97-.2 2.87-.3 2.8-.4 2.72-.52 2.67-.63 2.65-.75 2.6-.84 2.6-.96 2.57-1.08 2.6-1.22 2.6-1.36 2.63-1.53 2.68-1.7 2.74-1.9 2.8-2.14 2.92-2.4 3.02-2.72 3.18-3.12 3.38-3.6 3.62-4.2 3.95-5 4.4-6.07 5.1-7.68 6.28-10.4 9.3-17.02 31.84-61.42 6.28-10.4 5.1-7.67 4.4-6.07 3.95-5 3.62-4.2 3.38-3.6 3.18-3.1 3.03-2.74 2.92-2.4 2.8-2.15 2.75-1.9 2.68-1.7 2.63-1.53 2.6-1.36 2.6-1.22 2.58-1.08 2.6-.97 2.6-.85 2.63-.74 2.66-.62 2.73-.52 2.78-.4 2.87-.3 2.97-.2L600 440" stroke="#000" stroke-width="2" fill="none"/><path d="M400.1 641h-.1v-1.03zM600 440l-13.7 6.12-.98-9.2z"/><path d="M600 438.98v2.12l-14.54 6.5-1.28-11.96zm-12.84 5.67l9.62-4.3-10.32-2.18z"/><path d="M600 485c0-2.76 2.24-5 5-5h150c2.76 0 5 2.24 5 5v30c0 2.76-2.24 5-5 5H605c-2.76 0-5-2.24-5-5z" stroke="#000" stroke-width="2" fill="url(#ac)"/><use xlink:href="#ad" transform="matrix(1,0,0,1,600,480) translate(47.07999999999999 24.4)"/><path d="M1020 340l.03-1.03.1-1 .15-.96.2-.94.28-.93.33-.94.4-.95.48-.95.58-.98.68-1 .8-1.07 1-1.12 1.18-1.2 1.47-1.3 1.84-1.45 2.4-1.64 3.27-1.95 4.8-2.47 8.72-3.8 31.28-12.46 4.8-2.46 3.25-1.94 2.4-1.64 1.86-1.45 1.48-1.3 1.2-1.2.97-1.12.8-1.06.7-1.02.57-.98.48-.95.4-.94.34-.93.27-.93.22-.95.15-.97.1-1 .03-1.03" stroke="#000" stroke-width="2" fill="none"/><path d="M1020 340h-1.1l.2-.43zM1098 294.87l-8.35-4L1100 280z"/><path d="M1098.82 296.36l-10.84-5.2 10.64-11.16h2.4zm-7.5-5.8l5.88 2.8 1.4-10.44z"/><path d="M1020 340l-.06-1.82-.15-1.64-.25-1.5-.3-1.4-.38-1.3-.45-1.24-.5-1.18-.58-1.13-.64-1.12-.73-1.07-.82-1.06-.93-1.06-1.06-1.07-1.23-1.08-1.42-1.1-1.67-1.16-2.04-1.22-2.56-1.32-3.34-1.46-4.8-1.75-9.33-2.72-22.1-6-4.9-1.8-3.4-1.5-2.63-1.34-2.1-1.25-1.75-1.2-1.48-1.16-1.27-1.13-1.1-1.1-.98-1.1-.85-1.12-.77-1.13-.67-1.16-.6-1.2-.54-1.24-.47-1.3-.4-1.38-.32-1.47-.25-1.6-.17-1.73-.03-.67" stroke="#000" stroke-width="2" fill="none"/><path d="M1021.05 340H1020l.95-.3zM949.18 291.86l-8.72 3.13-.46-15z"/><path d="M950.82 292.34l-11.32 4.06-.5-16.62 2.03-.08zm-9.4 1.25l6.13-2.22-6.46-8.33z"/><path d="M760 380l3.36.12 3.74.3 4.2.5 4.77.78 5.5 1.15 6.5 1.62 7.77 2.3 9.67 3.32 12.7 4.95 18.66 8.2 100.64 48.8 10.73 4.18 7.94 2.72 6.25 1.85 5.1 1.3 4.28.87 3.65.6 3.17.38 2.8.22 2.47.1 2.22-.02 2.02-.1 1.84-.16 1.7-.24 1.56-.27 1.46-.33 1.36-.36 1.28-.38 1.2-.43 1.15-.47 1.08-.5 1.04-.52 1-.54.97-.6.9-.62.9-.66.9-.7.84-.74.82-.8.82-.83.8-.88.77-.96.77-1.03.76-1.1.75-1.2.73-1.28.73-1.4.7-1.55.7-1.7.7-1.88.65-2.1.64-2.34.6-2.65.55-3.03.5-3.48.4-4.05.25-4.37" stroke="#000" stroke-width="2" fill="none"/><path d="M760.1 379l-.1 1.03V379zM1023 434.7l-9.22-1.05L1020 420z"/><path d="M1024.25 435.85l-11.95-1.36 6.6-14.5h2.12zm-9-3.04l6.5.75-2.12-10.33z"/><path d="M760 500l51.9 1.4 68.32 2.05 22.86-.44 15.94-.98 12.26-1.27 9.88-1.46 8.23-1.57 6.97-1.64 6.03-1.7 5.28-1.7 4.67-1.74 4.17-1.75 3.75-1.75 3.4-1.77 3.1-1.8 2.83-1.8 2.62-1.8 2.42-1.84 2.24-1.86 2.1-1.88 1.95-1.92 1.83-1.95 1.72-2 1.6-2.03 1.54-2.1 1.43-2.15 1.35-2.23 1.27-2.3 1.2-2.4 1.1-2.53 1.05-2.64.97-2.76.87-2.92.8-3.1.7-3.3.6-3.55.47-3.8.35-4.13.18-4.5.02-2.4" stroke="#000" stroke-width="2" fill="none"/><path d="M760.03 499l-.03 1.12V499zM1023.62 434.56l-9.25-.66L1020 420z"/><path d="M1024.92 435.65l-12-.85 6-14.8h2.1zm-9.1-2.65l6.5.46-2.55-10.23z"/><use xlink:href="#ae" transform="matrix(1,0,0,1,835.4519811229285,477.72182015126674) translate(0 14.4)"/><use xlink:href="#af" transform="matrix(1,0,0,1,835.4519811229285,477.72182015126674) translate(49.95 14.4)"/><path d="M760 880l31.16-.6 22.64-1.42 19.1-2 21.23-3.16 52.98-8.8 19.1-2 22.64-1.4L980 860" stroke="#000" stroke-width="2" fill="none"/><path d="M760.02 881H760v-1.17zM980 860l-14.17 4.9-.18-9.25z"/><path d="M980.06 858.97L980 860l.04 1.05-15.2 5.26-.22-12zm-13.26 4.55l9.96-3.46-10.1-3.06z"/><use xlink:href="#ag" transform="matrix(1,0,0,1,851.0280010180028,844.0238264528391) translate(0 14.4)"/><path d="M400 640l4.36-.1 4.14-.25 3.93-.4 3.78-.57 3.65-.7 3.52-.82 3.43-.96 3.36-1.1 3.3-1.22 3.3-1.38 3.25-1.53 3.28-1.7 3.3-1.9 3.33-2.14 3.44-2.38 3.54-2.7 3.7-3.06 3.94-3.55 4.27-4.2 4.76-5.08 5.64-6.54 7.6-9.62 34-45.83 5.64-6.54 4.77-5.1 4.28-4.18 3.93-3.54 3.72-3.06 3.54-2.7 3.43-2.37 3.33-2.13 3.3-1.9 3.26-1.7 3.25-1.54 3.28-1.38 3.3-1.23 3.37-1.1 3.43-.96 3.52-.83 3.64-.68 3.77-.56 3.93-.4 4.14-.27 4.36-.1" stroke="#000" stroke-width="2" fill="none"/><path d="M400.08 641H400v-1.04zM600 500l-13.87 5.7-.7-9.24z"/><path d="M600 498.97v2.1l-14.77 6.08-.9-12zm-12.98 5.28l9.75-4-10.24-2.5z"/><path d="M760 820l1.88-.04 1.82-.1 1.78-.2 1.73-.26 1.7-.32 1.67-.4 1.64-.45 1.62-.52 1.6-.6 1.6-.65 1.57-.75 1.56-.82 1.57-.9 1.57-1 1.57-1.1 1.6-1.2 1.58-1.32 1.6-1.45 1.63-1.58 1.64-1.74 1.66-1.92 1.67-2.12 1.7-2.33 1.7-2.56 1.72-2.84 1.72-3.13 1.7-3.48 1.72-3.84 1.68-4.24 1.62-4.67 1.54-5.12 1.44-5.6 1.28-6.05 1.1-6.5.87-6.88.6-7.2.3-7.38v-7.46l-.3-7.38-.6-7.2-.87-6.88-1.1-6.5-1.3-6.05-1.42-5.6-1.54-5.1-1.63-4.68-1.68-4.24-1.7-3.83-1.73-3.47-1.74-3.14-1.72-2.85-1.7-2.57-1.7-2.33-1.67-2.1-1.65-1.93-1.64-1.75-1.62-1.6-1.6-1.43-1.6-1.32-1.6-1.2-1.57-1.1-1.58-1-1.57-.9-1.57-.83-1.58-.75-1.58-.66-1.6-.6-1.62-.53-1.63-.46-1.67-.38-1.7-.32-1.73-.26-1.77-.2-1.82-.1L760 630" fill="none"/><path d="M760 820l1.88-.04 1.82-.1 1.78-.2 1.73-.26 1.7-.32 1.2-.28m9.5-3.63l.56-.3 1.57-.9 1.57-1 1.57-1.1 1.6-1.2 1.58-1.3 1.6-1.46 1.63-1.58 1.64-1.74 1.66-1.92.46-.6m5.8-8.37l.53-.9 1.72-3.13 1.7-3.48 1.72-3.84 1.68-4.24 1.03-2.97m2.9-9.77l.67-2.64 1.28-6.06 1.1-6.5.6-4.84m.9-10.15l.28-6.48v-7.46l-.27-6.45m-.9-10.14l-.62-4.86-1.1-6.5-1.3-6.05-.66-2.63m-2.9-9.78l-1.03-2.97-1.68-4.24-1.7-3.83-1.73-3.47-1.74-3.14-.53-.9m-5.8-8.37l-.46-.6-1.65-1.9-1.64-1.76-1.62-1.6-1.6-1.43-1.6-1.32-1.6-1.2-1.57-1.1-1.58-1-1.57-.9-.55-.3m-9.5-3.62l-1.2-.28-1.7-.32-1.73-.26-1.77-.2-1.82-.1L760 630" stroke="#000" stroke-width="2" fill="none"/><path d="M760.18 820.98l-.18.04V820zM773.23 637.06L760 630l14.86-2.06z"/><path d="M773.98 638.6L760 631.12V629l16.08-2.24zm-10.8-8.03l9.3 4.96 1.15-6.4z"/><path d="M760 630l14.68-.3 14.54-.92 14.33-1.5 14-2.08 13.65-2.6 13.2-3.1 12.7-3.54 12.16-3.95 11.6-4.3 11.03-4.63 10.42-4.9 9.85-5.16 9.28-5.35 8.72-5.53 8.18-5.68 7.67-5.82 7.17-5.93 6.68-6.04 6.25-6.1 5.83-6.22 5.42-6.28 5.04-6.36 4.68-6.43 4.33-6.52 4-6.6 3.67-6.7 3.37-6.78 3.08-6.9 2.77-7.02 2.5-7.15 2.2-7.3 1.9-7.46 1.63-7.64 1.33-7.84 1.02-8.06.7-8.3.35-8.6.05-4.4" stroke="#000" stroke-width="2" fill="none"/><path d="M760.03 631H760v-1.18zM1024.1 434.43l-9.28-.35L1020 420z"/><path d="M1025.42 435.48l-12-.45 5.5-15.03h2.12zm-9.18-2.35l6.5.25-2.86-10.15z"/><path d="M600 280l5 .06 5.53.3 6.13.6 6.88.94 7.8 1.42 8.95 2 10.4 2.82 12.35 3.9 14.96 5.4 18.75 7.7 24.73 11.4 36.4 18.67 172.93 97 15.07 6.94 10.54 4.33 7.9 2.87 6.2 1.95 5 1.34 4.15.93 3.5.64 2.98.42 2.6.25 2.28.13 2.04.02 1.8-.05 1.65-.12 1.48-.17 1.36-.22 1.25-.25 1.15-.27 1.08-.3 1-.35.96-.36.88-.4.85-.4.8-.43.77-.46.73-.47.7-.5.7-.53.64-.55.63-.6.62-.6.6-.65.58-.7.56-.7.55-.8.55-.82.53-.88.5-.96.5-1.04.5-1.12.47-1.22.45-1.34.43-1.48.4-1.64.38-1.84.33-2.06.28-2.35.2-2.67.1-2.73" stroke="#000" stroke-width="2" fill="none"/><path d="M600.06 279l-.06 1.08V279zM1022.58 434.78l-9.18-1.3L1020 420z"/><path d="M1023.8 435.96l-11.9-1.7 7-14.26h2.12zm-8.9-3.3l6.45.93-1.8-10.4z"/><path d="M240 405c0-2.76 2.24-5 5-5h150c2.76 0 5 2.24 5 5v70c0 2.76-2.24 5-5 5H245c-2.76 0-5-2.24-5-5z" stroke="#000" stroke-width="2" fill="url(#ah)"/><g><use xlink:href="#ai" transform="matrix(1,0,0,1,240,400) translate(31.104999999999997 31.9)"/><use xlink:href="#aj" transform="matrix(1,0,0,1,240,400) translate(60.005 31.9)"/><use xlink:href="#ak" transform="matrix(1,0,0,1,240,400) translate(40.029999999999994 53.5)"/></g><path d="M320 480v120" stroke="#000" stroke-width="2" fill="none"/><path d="M321 480h-2 2zM320 600l-4.64-14.27h9.28z"/><path d="M321.05 600h-2.1L314 584.73h12zm-4.3-13.27l3.25 10.03 3.26-10.03z"/><g><use xlink:href="#al" transform="matrix(1,0,0,1,263.05000000000007,529.2008999910001) translate(0 14.4)"/></g><defs><linearGradient gradientUnits="userSpaceOnUse" id="a" x1="600" y1="240" x2="600" y2="320"><stop offset="0%" stop-color="#ea465f"/><stop offset="100%" stop-color="#da2a46"/></linearGradient><path fill="#fff" d="M185-189c-5-48-123-54-124 2 14 75 158 14 163 119 3 78-121 87-175 55-17-10-28-26-33-46l33-7c5 56 141 63 141-1 0-78-155-14-162-118-5-82 145-84 179-34 5 7 8 16 11 25" id="am"/><path fill="#fff" d="M96-169c-40 0-48 33-48 73s9 75 48 75c24 0 41-14 43-38l32 2c-6 37-31 61-74 61-59 0-76-41-82-99-10-93 101-131 147-64 4 7 5 14 7 22l-32 3c-4-21-16-35-41-35" id="an"/><path fill="#fff" d="M100-194c62-1 85 37 85 99 1 63-27 99-86 99S16-35 15-95c0-66 28-99 85-99zM99-20c44 1 53-31 53-75 0-43-8-75-51-75s-53 32-53 75 10 74 51 75" id="ao"/><path fill="#fff" d="M115-194c55 1 70 41 70 98S169 2 115 4C84 4 66-9 55-30l1 105H24l-1-265h31l2 30c10-21 28-34 59-34zm-8 174c40 0 45-34 45-75s-6-73-45-74c-42 0-51 32-51 76 0 43 10 73 51 73" id="ap"/><path fill="#fff" d="M100-194c63 0 86 42 84 106H49c0 40 14 67 53 68 26 1 43-12 49-29l28 8c-11 28-37 45-77 45C44 4 14-33 15-96c1-61 26-98 85-98zm52 81c6-60-76-77-97-28-3 7-6 17-6 28h103" id="aq"/><g id="b"><use transform="matrix(0.05,0,0,0.05,0,0)" xlink:href="#am"/><use transform="matrix(0.05,0,0,0.05,12,0)" xlink:href="#an"/><use transform="matrix(0.05,0,0,0.05,21,0)" xlink:href="#ao"/><use transform="matrix(0.05,0,0,0.05,31,0)" xlink:href="#ap"/><use transform="matrix(0.05,0,0,0.05,41,0)" xlink:href="#aq"/></g><path fill="#fff" d="M87 75C49 33 22-17 22-94c0-76 28-126 65-167h31c-38 41-64 92-64 168S80 34 118 75H87" id="ar"/><path fill="#fff" d="M190 0L58-211 59 0H30v-248h39L202-35l-2-213h31V0h-41" id="as"/><path fill="#fff" d="M59-47c-2 24 18 29 38 22v24C64 9 27 4 27-40v-127H5v-23h24l9-43h21v43h35v23H59v120" id="at"/><path fill="#fff" d="M24-231v-30h32v30H24zM24 0v-190h32V0H24" id="au"/><g id="c"><use transform="matrix(0.05,0,0,0.05,0,0)" xlink:href="#ar"/><use transform="matrix(0.05,0,0,0.05,5.95,0)" xlink:href="#as"/><use transform="matrix(0.05,0,0,0.05,18.900000000000002,0)" xlink:href="#ao"/><use transform="matrix(0.05,0,0,0.05,28.900000000000002,0)" xlink:href="#at"/><use transform="matrix(0.05,0,0,0.05,33.900000000000006,0)" xlink:href="#au"/><use transform="matrix(0.05,0,0,0.05,37.85000000000001,0)" xlink:href="#an"/><use transform="matrix(0.05,0,0,0.05,46.85000000000001,0)" xlink:href="#aq"/></g><path fill="#fff" d="M33 0v-248h34V0H33" id="av"/><path fill="#fff" d="M30-248c118-7 216 8 213 122C240-48 200 0 122 0H30v-248zM63-27c89 8 146-16 146-99s-60-101-146-95v194" id="aw"/><g id="d"><use transform="matrix(0.05,0,0,0.05,0,0)" xlink:href="#av"/><use transform="matrix(0.05,0,0,0.05,5,0)" xlink:href="#aw"/></g><path fill="#fff" d="M114-163C36-179 61-72 57 0H25l-1-190h30c1 12-1 29 2 39 6-27 23-49 58-41v29" id="ax"/><path fill="#fff" d="M141-36C126-15 110 5 73 4 37 3 15-17 15-53c-1-64 63-63 125-63 3-35-9-54-41-54-24 1-41 7-42 31l-33-3c5-37 33-52 76-52 45 0 72 20 72 64v82c-1 20 7 32 28 27v20c-31 9-61-2-59-35zM48-53c0 20 12 33 32 33 41-3 63-29 60-74-43 2-92-5-92 41" id="ay"/><path fill="#fff" d="M33-261c38 41 65 92 65 168S71 34 33 75H2C39 34 66-17 66-93S39-220 2-261h31" id="az"/><g id="e"><use transform="matrix(0.05,0,0,0.05,0,0)" xlink:href="#au"/><use transform="matrix(0.05,0,0,0.05,3.95,0)" xlink:href="#at"/><use transform="matrix(0.05,0,0,0.05,8.95,0)" xlink:href="#aq"/><use transform="matrix(0.05,0,0,0.05,18.95,0)" xlink:href="#ax"/><use transform="matrix(0.05,0,0,0.05,24.9,0)" xlink:href="#ay"/><use transform="matrix(0.05,0,0,0.05,34.9,0)" xlink:href="#at"/><use transform="matrix(0.05,0,0,0.05,39.9,0)" xlink:href="#ao"/><use transform="matrix(0.05,0,0,0.05,49.9,0)" xlink:href="#ax"/><use transform="matrix(0.05,0,0,0.05,55.85,0)" xlink:href="#az"/></g><linearGradient gradientUnits="userSpaceOnUse" id="f" x1="400" y1="600" x2="400" y2="680"><stop offset="0%" stop-color="#ea465f"/><stop offset="100%" stop-color="#da2a46"/></linearGradient><path fill="#fff" d="M143 4C61 4 22-44 18-125c-5-107 100-154 193-111 17 8 29 25 37 43l-32 9c-13-25-37-40-76-40-61 0-88 39-88 99 0 61 29 100 91 101 35 0 62-11 79-27v-45h-74v-28h105v86C228-13 192 4 143 4" id="aA"/><path fill="#fff" d="M127-220V0H93v-220H8v-28h204v28h-85" id="aB"/><path fill="#fff" d="M117-194c89-4 53 116 60 194h-32v-121c0-31-8-49-39-48C34-167 62-67 57 0H25l-1-190h30c1 10-1 24 2 32 11-22 29-35 61-36" id="aC"/><path fill="#fff" d="M135-143c-3-34-86-38-87 0 15 53 115 12 119 90S17 21 10-45l28-5c4 36 97 45 98 0-10-56-113-15-118-90-4-57 82-63 122-42 12 7 21 19 24 35" id="aD"/><g id="g"><use transform="matrix(0.05,0,0,0.05,0,0)" xlink:href="#aA"/><use transform="matrix(0.05,0,0,0.05,14,0)" xlink:href="#aq"/><use transform="matrix(0.05,0,0,0.05,24,0)" xlink:href="#ay"/><use transform="matrix(0.05,0,0,0.05,34,0)" xlink:href="#ax"/><use transform="matrix(0.05,0,0,0.05,39.95,0)" xlink:href="#aB"/><use transform="matrix(0.05,0,0,0.05,50.25000000000001,0)" xlink:href="#ax"/><use transform="matrix(0.05,0,0,0.05,56.20000000000002,0)" xlink:href="#ay"/><use transform="matrix(0.05,0,0,0.05,66.20000000000002,0)" xlink:href="#au"/><use transform="matrix(0.05,0,0,0.05,70.15000000000002,0)" xlink:href="#aC"/><use transform="matrix(0.05,0,0,0.05,80.15000000000002,0)" xlink:href="#ar"/><use transform="matrix(0.05,0,0,0.05,86.10000000000002,0)" xlink:href="#aD"/><use transform="matrix(0.05,0,0,0.05,95.10000000000002,0)" xlink:href="#az"/></g><path d="M143 4C61 4 22-44 18-125c-5-107 100-154 193-111 17 8 29 25 37 43l-32 9c-13-25-37-40-76-40-61 0-88 39-88 99 0 61 29 100 91 101 35 0 62-11 79-27v-45h-74v-28h105v86C228-13 192 4 143 4" id="aE"/><path d="M100-194c63 0 86 42 84 106H49c0 40 14 67 53 68 26 1 43-12 49-29l28 8c-11 28-37 45-77 45C44 4 14-33 15-96c1-61 26-98 85-98zm52 81c6-60-76-77-97-28-3 7-6 17-6 28h103" id="aF"/><path d="M59-47c-2 24 18 29 38 22v24C64 9 27 4 27-40v-127H5v-23h24l9-43h21v43h35v23H59v120" id="aG"/><g id="h"><use transform="matrix(0.05,0,0,0.05,0,0)" xlink:href="#aE"/><use transform="matrix(0.05,0,0,0.05,14,0)" xlink:href="#aF"/><use transform="matrix(0.05,0,0,0.05,24,0)" xlink:href="#aG"/></g><path d="M117-194c89-4 53 116 60 194h-32v-121c0-31-8-49-39-48C34-167 62-67 57 0H25l-1-190h30c1 10-1 24 2 32 11-22 29-35 61-36" id="aH"/><path d="M141 0L90-78 38 0H4l68-98-65-92h35l48 74 47-74h35l-64 92 68 98h-35" id="aI"/><g id="i"><use transform="matrix(0.05,0,0,0.05,0,0)" xlink:href="#aH"/><use transform="matrix(0.05,0,0,0.05,10,0)" xlink:href="#aF"/><use transform="matrix(0.05,0,0,0.05,20,0)" xlink:href="#aI"/><use transform="matrix(0.05,0,0,0.05,29,0)" xlink:href="#aG"/></g><path d="M100-194c62-1 85 37 85 99 1 63-27 99-86 99S16-35 15-95c0-66 28-99 85-99zM99-20c44 1 53-31 53-75 0-43-8-75-51-75s-53 32-53 75 10 74 51 75" id="aJ"/><path d="M24-231v-30h32v30H24zM24 0v-190h32V0H24" id="aK"/><path d="M96-169c-40 0-48 33-48 73s9 75 48 75c24 0 41-14 43-38l32 2c-6 37-31 61-74 61-59 0-76-41-82-99-10-93 101-131 147-64 4 7 5 14 7 22l-32 3c-4-21-16-35-41-35" id="aL"/><g id="j"><use transform="matrix(0.05,0,0,0.05,0,0)" xlink:href="#aH"/><use transform="matrix(0.05,0,0,0.05,10,0)" xlink:href="#aJ"/><use transform="matrix(0.05,0,0,0.05,20,0)" xlink:href="#aG"/><use transform="matrix(0.05,0,0,0.05,25,0)" xlink:href="#aK"/><use transform="matrix(0.05,0,0,0.05,28.950000000000003,0)" xlink:href="#aL"/><use transform="matrix(0.05,0,0,0.05,37.95,0)" xlink:href="#aF"/></g><path d="M33 0v-248h34V0H33" id="aM"/><path d="M30-248c118-7 216 8 213 122C240-48 200 0 122 0H30v-248zM63-27c89 8 146-16 146-99s-60-101-146-95v194" id="aN"/><g id="k"><use transform="matrix(0.05,0,0,0.05,0,0)" xlink:href="#aM"/><use transform="matrix(0.05,0,0,0.05,5,0)" xlink:href="#aN"/></g><path d="M190 0L58-211 59 0H30v-248h39L202-35l-2-213h31V0h-41" id="aO"/><g id="l"><use transform="matrix(0.05,0,0,0.05,0,0)" xlink:href="#aO"/><use transform="matrix(0.05,0,0,0.05,12.950000000000001,0)" xlink:href="#aJ"/><use transform="matrix(0.05,0,0,0.05,22.950000000000003,0)" xlink:href="#aG"/><use transform="matrix(0.05,0,0,0.05,27.950000000000003,0)" xlink:href="#aK"/><use transform="matrix(0.05,0,0,0.05,31.900000000000002,0)" xlink:href="#aL"/><use transform="matrix(0.05,0,0,0.05,40.900000000000006,0)" xlink:href="#aF"/></g><linearGradient gradientUnits="userSpaceOnUse" id="m" x1="760" y1="360" x2="760" y2="400"><stop offset="0%" stop-color="#ea465f"/><stop offset="100%" stop-color="#da2a46"/></linearGradient><path fill="#fff" d="M240 0l2-218c-23 76-54 145-80 218h-23L58-218 59 0H30v-248h44l77 211c21-75 51-140 76-211h43V0h-30" id="aP"/><path fill="#fff" d="M85-194c31 0 48 13 60 33l-1-100h32l1 261h-30c-2-10 0-23-3-31C134-8 116 4 85 4 32 4 16-35 15-94c0-66 23-100 70-100zm9 24c-40 0-46 34-46 75 0 40 6 74 45 74 42 0 51-32 51-76 0-42-9-74-50-73" id="aQ"/><g id="n"><use transform="matrix(0.05,0,0,0.05,0,0)" xlink:href="#aP"/><use transform="matrix(0.05,0,0,0.05,14.950000000000001,0)" xlink:href="#aq"/><use transform="matrix(0.05,0,0,0.05,24.950000000000003,0)" xlink:href="#at"/><use transform="matrix(0.05,0,0,0.05,29.950000000000003,0)" xlink:href="#ay"/><use transform="matrix(0.05,0,0,0.05,39.95,0)" xlink:href="#aQ"/><use transform="matrix(0.05,0,0,0.05,49.95,0)" xlink:href="#ay"/><use transform="matrix(0.05,0,0,0.05,59.95,0)" xlink:href="#at"/><use transform="matrix(0.05,0,0,0.05,64.95,0)" xlink:href="#ay"/></g><path fill="#fff" d="M30-248c87 1 191-15 191 75 0 78-77 80-158 76V0H30v-248zm33 125c57 0 124 11 124-50 0-59-68-47-124-48v98" id="aR"/><g id="o"><use transform="matrix(0.05,0,0,0.05,0,0)" xlink:href="#aR"/><use transform="matrix(0.05,0,0,0.05,12,0)" xlink:href="#ay"/><use transform="matrix(0.05,0,0,0.05,22,0)" xlink:href="#ax"/><use transform="matrix(0.05,0,0,0.05,27.950000000000003,0)" xlink:href="#aD"/><use transform="matrix(0.05,0,0,0.05,36.95,0)" xlink:href="#aq"/><use transform="matrix(0.05,0,0,0.05,46.95,0)" xlink:href="#ax"/></g><linearGradient gradientUnits="userSpaceOnUse" id="p" x1="760" y1="600" x2="760" y2="660"><stop offset="0%" stop-color="#ea465f"/><stop offset="100%" stop-color="#da2a46"/></linearGradient><path fill="#fff" d="M210-169c-67 3-38 105-44 169h-31v-121c0-29-5-50-35-48C34-165 62-65 56 0H25l-1-190h30c1 10-1 24 2 32 10-44 99-50 107 0 11-21 27-35 58-36 85-2 47 119 55 194h-31v-121c0-29-5-49-35-48" id="aS"/><path fill="#fff" d="M24 0v-261h32V0H24" id="aT"/><g id="q"><use transform="matrix(0.05,0,0,0.05,0,0)" xlink:href="#aB"/><use transform="matrix(0.05,0,0,0.05,8.950000000000001,0)" xlink:href="#aq"/><use transform="matrix(0.05,0,0,0.05,18.950000000000003,0)" xlink:href="#aS"/><use transform="matrix(0.05,0,0,0.05,33.900000000000006,0)" xlink:href="#ap"/><use transform="matrix(0.05,0,0,0.05,43.900000000000006,0)" xlink:href="#aT"/><use transform="matrix(0.05,0,0,0.05,47.85000000000001,0)" xlink:href="#ay"/><use transform="matrix(0.05,0,0,0.05,57.85,0)" xlink:href="#at"/><use transform="matrix(0.05,0,0,0.05,62.85,0)" xlink:href="#aq"/></g><path fill="#fff" d="M160-131c35 5 61 23 61 61C221 17 115-2 30 0v-248c76 3 177-17 177 60 0 33-19 50-47 57zm-97-11c50-1 110 9 110-42 0-47-63-36-110-37v79zm0 115c55-2 124 14 124-45 0-56-70-42-124-44v89" id="aU"/><g id="r"><use transform="matrix(0.05,0,0,0.05,0,0)" xlink:href="#aU"/><use transform="matrix(0.05,0,0,0.05,12,0)" xlink:href="#ay"/><use transform="matrix(0.05,0,0,0.05,22,0)" xlink:href="#aD"/><use transform="matrix(0.05,0,0,0.05,31,0)" xlink:href="#aq"/><use transform="matrix(0.05,0,0,0.05,41,0)" xlink:href="#aQ"/></g><path fill="#fff" d="M84 4C-5 8 30-112 23-190h32v120c0 31 7 50 39 49 72-2 45-101 50-169h31l1 190h-30c-1-10 1-25-2-33-11 22-28 36-60 37" id="aV"/><g id="s"><use transform="matrix(0.05,0,0,0.05,0,0)" xlink:href="#aw"/><use transform="matrix(0.05,0,0,0.05,12.950000000000001,0)" xlink:href="#ao"/><use transform="matrix(0.05,0,0,0.05,22.950000000000003,0)" xlink:href="#an"/><use transform="matrix(0.05,0,0,0.05,31.950000000000003,0)" xlink:href="#aV"/><use transform="matrix(0.05,0,0,0.05,41.95,0)" xlink:href="#aS"/><use transform="matrix(0.05,0,0,0.05,56.900000000000006,0)" xlink:href="#aq"/><use transform="matrix(0.05,0,0,0.05,66.9,0)" xlink:href="#aC"/><use transform="matrix(0.05,0,0,0.05,76.9,0)" xlink:href="#at"/></g><linearGradient gradientUnits="userSpaceOnUse" id="t" x1="1120" y1="610" x2="1120" y2="650"><stop offset="0%" stop-color="#ea465f"/><stop offset="100%" stop-color="#da2a46"/></linearGradient><g id="u"><use transform="matrix(0.05,0,0,0.05,0,0)" xlink:href="#aB"/><use transform="matrix(0.05,0,0,0.05,8.950000000000001,0)" xlink:href="#aq"/><use transform="matrix(0.05,0,0,0.05,18.950000000000003,0)" xlink:href="#aS"/><use transform="matrix(0.05,0,0,0.05,33.900000000000006,0)" xlink:href="#ap"/><use transform="matrix(0.05,0,0,0.05,43.900000000000006,0)" xlink:href="#aT"/><use transform="matrix(0.05,0,0,0.05,47.85000000000001,0)" xlink:href="#ay"/><use transform="matrix(0.05,0,0,0.05,57.85,0)" xlink:href="#at"/><use transform="matrix(0.05,0,0,0.05,62.85,0)" xlink:href="#aq"/><use transform="matrix(0.05,0,0,0.05,72.85000000000001,0)" xlink:href="#aR"/><use transform="matrix(0.05,0,0,0.05,84.85000000000001,0)" xlink:href="#ay"/><use transform="matrix(0.05,0,0,0.05,94.85000000000001,0)" xlink:href="#ax"/><use transform="matrix(0.05,0,0,0.05,100.80000000000001,0)" xlink:href="#aD"/><use transform="matrix(0.05,0,0,0.05,109.80000000000001,0)" xlink:href="#aq"/><use transform="matrix(0.05,0,0,0.05,119.80000000000001,0)" xlink:href="#ax"/></g><linearGradient gradientUnits="userSpaceOnUse" id="v" x1="760" y1="680" x2="760" y2="720"><stop offset="0%" stop-color="#ea465f"/><stop offset="100%" stop-color="#da2a46"/></linearGradient><path fill="#fff" d="M233-177c-1 41-23 64-60 70L243 0h-38l-65-103H63V0H30v-248c88 3 205-21 203 71zM63-129c60-2 137 13 137-47 0-61-80-42-137-45v92" id="aW"/><path fill="#fff" d="M206 0h-36l-40-164L89 0H53L-1-190h32L70-26l43-164h34l41 164 42-164h31" id="aX"/><g id="w"><use transform="matrix(0.05,0,0,0.05,0,0)" xlink:href="#aW"/><use transform="matrix(0.05,0,0,0.05,12.950000000000001,0)" xlink:href="#ay"/><use transform="matrix(0.05,0,0,0.05,22.950000000000003,0)" xlink:href="#aX"/></g><path fill="#fff" d="M137 0h-34L2-248h35l83 218 83-218h36" id="aY"/><g id="x"><use transform="matrix(0.05,0,0,0.05,0,0)" xlink:href="#aY"/><use transform="matrix(0.05,0,0,0.05,10.65,0)" xlink:href="#ay"/><use transform="matrix(0.05,0,0,0.05,20.65,0)" xlink:href="#aT"/></g><path d="M114-163C36-179 61-72 57 0H25l-1-190h30c1 12-1 29 2 39 6-27 23-49 58-41v29" id="aZ"/><path d="M210-169c-67 3-38 105-44 169h-31v-121c0-29-5-50-35-48C34-165 62-65 56 0H25l-1-190h30c1 10-1 24 2 32 10-44 99-50 107 0 11-21 27-35 58-36 85-2 47 119 55 194h-31v-121c0-29-5-49-35-48" id="ba"/><path d="M141-36C126-15 110 5 73 4 37 3 15-17 15-53c-1-64 63-63 125-63 3-35-9-54-41-54-24 1-41 7-42 31l-33-3c5-37 33-52 76-52 45 0 72 20 72 64v82c-1 20 7 32 28 27v20c-31 9-61-2-59-35zM48-53c0 20 12 33 32 33 41-3 63-29 60-74-43 2-92-5-92 41" id="bb"/><path d="M24 0v-261h32V0H24" id="bc"/><path d="M9 0v-24l116-142H16v-24h144v24L44-24h123V0H9" id="bd"/><path d="M85-194c31 0 48 13 60 33l-1-100h32l1 261h-30c-2-10 0-23-3-31C134-8 116 4 85 4 32 4 16-35 15-94c0-66 23-100 70-100zm9 24c-40 0-46 34-46 75 0 40 6 74 45 74 42 0 51-32 51-76 0-42-9-74-50-73" id="be"/><g id="y"><use transform="matrix(0.05,0,0,0.05,0,0)" xlink:href="#aO"/><use transform="matrix(0.05,0,0,0.05,12.950000000000001,0)" xlink:href="#aJ"/><use transform="matrix(0.05,0,0,0.05,22.950000000000003,0)" xlink:href="#aZ"/><use transform="matrix(0.05,0,0,0.05,28.900000000000002,0)" xlink:href="#ba"/><use transform="matrix(0.05,0,0,0.05,43.85,0)" xlink:href="#bb"/><use transform="matrix(0.05,0,0,0.05,53.85,0)" xlink:href="#bc"/><use transform="matrix(0.05,0,0,0.05,57.800000000000004,0)" xlink:href="#aK"/><use transform="matrix(0.05,0,0,0.05,61.75,0)" xlink:href="#bd"/><use transform="matrix(0.05,0,0,0.05,70.75,0)" xlink:href="#aF"/><use transform="matrix(0.05,0,0,0.05,80.75,0)" xlink:href="#be"/></g><g id="z"><use transform="matrix(0.05,0,0,0.05,0,0)" xlink:href="#be"/><use transform="matrix(0.05,0,0,0.05,10,0)" xlink:href="#aJ"/><use transform="matrix(0.05,0,0,0.05,20,0)" xlink:href="#aL"/></g><linearGradient gradientUnits="userSpaceOnUse" id="A" x1="760" y1="540" x2="760" y2="580"><stop offset="0%" stop-color="#ea465f"/><stop offset="100%" stop-color="#da2a46"/></linearGradient><g id="B"><use transform="matrix(0.05,0,0,0.05,0,0)" xlink:href="#aw"/><use transform="matrix(0.05,0,0,0.05,12.950000000000001,0)" xlink:href="#ao"/><use transform="matrix(0.05,0,0,0.05,22.950000000000003,0)" xlink:href="#an"/></g><path fill="#fff" d="M63-220v92h138v28H63V0H30v-248h175v28H63" id="bf"/><path fill="#fff" d="M179-190L93 31C79 59 56 82 12 73V49c39 6 53-20 64-50L1-190h34L92-34l54-156h33" id="bg"/><g id="C"><use transform="matrix(0.05,0,0,0.05,0,0)" xlink:href="#bf"/><use transform="matrix(0.05,0,0,0.05,10.950000000000001,0)" xlink:href="#ay"/><use transform="matrix(0.05,0,0,0.05,20.950000000000003,0)" xlink:href="#aS"/><use transform="matrix(0.05,0,0,0.05,35.900000000000006,0)" xlink:href="#au"/><use transform="matrix(0.05,0,0,0.05,39.85000000000001,0)" xlink:href="#aT"/><use transform="matrix(0.05,0,0,0.05,43.80000000000001,0)" xlink:href="#bg"/></g><linearGradient gradientUnits="userSpaceOnUse" id="D" x1="760" y1="860" x2="760" y2="900"><stop offset="0%" stop-color="#ea465f"/><stop offset="100%" stop-color="#da2a46"/></linearGradient><path fill="#fff" d="M101-234c-31-9-42 10-38 44h38v23H63V0H32v-167H5v-23h27c-7-52 17-82 69-68v24" id="bh"/><path fill="#fff" d="M177-190C167-65 218 103 67 71c-23-6-38-20-44-43l32-5c15 47 100 32 89-28v-30C133-14 115 1 83 1 29 1 15-40 15-95c0-56 16-97 71-98 29-1 48 16 59 35 1-10 0-23 2-32h30zM94-22c36 0 50-32 50-73 0-42-14-75-50-75-39 0-46 34-46 75s6 73 46 73" id="bi"/><g id="E"><use transform="matrix(0.05,0,0,0.05,0,0)" xlink:href="#aW"/><use transform="matrix(0.05,0,0,0.05,12.950000000000001,0)" xlink:href="#aq"/><use transform="matrix(0.05,0,0,0.05,22.950000000000003,0)" xlink:href="#aQ"/><use transform="matrix(0.05,0,0,0.05,32.95,0)" xlink:href="#bh"/><use transform="matrix(0.05,0,0,0.05,37.95,0)" xlink:href="#aT"/><use transform="matrix(0.05,0,0,0.05,41.900000000000006,0)" xlink:href="#ay"/><use transform="matrix(0.05,0,0,0.05,51.900000000000006,0)" xlink:href="#bi"/><use transform="matrix(0.05,0,0,0.05,61.900000000000006,0)" xlink:href="#aD"/></g><path fill="#fff" d="M30 0v-248h187v28H63v79h144v27H63v87h162V0H30" id="bj"/><path fill="#fff" d="M141 0L90-78 38 0H4l68-98-65-92h35l48 74 47-74h35l-64 92 68 98h-35" id="bk"/><g id="F"><use transform="matrix(0.05,0,0,0.05,0,0)" xlink:href="#bj"/><use transform="matrix(0.05,0,0,0.05,12,0)" xlink:href="#bk"/><use transform="matrix(0.05,0,0,0.05,21,0)" xlink:href="#ap"/><use transform="matrix(0.05,0,0,0.05,31,0)" xlink:href="#ao"/><use transform="matrix(0.05,0,0,0.05,41,0)" xlink:href="#ax"/><use transform="matrix(0.05,0,0,0.05,46.95,0)" xlink:href="#at"/><use transform="matrix(0.05,0,0,0.05,51.95,0)" xlink:href="#aq"/><use transform="matrix(0.05,0,0,0.05,61.95,0)" xlink:href="#ax"/></g><linearGradient gradientUnits="userSpaceOnUse" id="G" x1="760" y1="920" x2="760" y2="960"><stop offset="0%" stop-color="#ea465f"/><stop offset="100%" stop-color="#da2a46"/></linearGradient><path fill="#fff" d="M140-251c81 0 123 46 123 126C263-53 228-8 163 1c7 30 30 48 69 40v23c-55 16-95-15-103-61C56-3 17-48 17-125c0-80 42-126 123-126zm0 227c63 0 89-41 89-101s-29-99-89-99c-61 0-89 39-89 99S79-25 140-24" id="bl"/><path fill="#fff" d="M30 0v-248h33v221h125V0H30" id="bm"/><g id="H"><use transform="matrix(0.05,0,0,0.05,0,0)" xlink:href="#aP"/><use transform="matrix(0.05,0,0,0.05,14.950000000000001,0)" xlink:href="#bg"/><use transform="matrix(0.05,0,0,0.05,23.950000000000003,0)" xlink:href="#am"/><use transform="matrix(0.05,0,0,0.05,35.95,0)" xlink:href="#bl"/><use transform="matrix(0.05,0,0,0.05,49.95,0)" xlink:href="#bm"/></g><linearGradient gradientUnits="userSpaceOnUse" id="I" x1="760" y1="740" x2="760" y2="780"><stop offset="0%" stop-color="#ea465f"/><stop offset="100%" stop-color="#da2a46"/></linearGradient><g id="J"><use transform="matrix(0.05,0,0,0.05,0,0)" xlink:href="#av"/><use transform="matrix(0.05,0,0,0.05,5,0)" xlink:href="#aC"/><use transform="matrix(0.05,0,0,0.05,15,0)" xlink:href="#aQ"/><use transform="matrix(0.05,0,0,0.05,25,0)" xlink:href="#au"/><use transform="matrix(0.05,0,0,0.05,28.950000000000003,0)" xlink:href="#an"/><use transform="matrix(0.05,0,0,0.05,37.95,0)" xlink:href="#ay"/><use transform="matrix(0.05,0,0,0.05,47.95,0)" xlink:href="#at"/><use transform="matrix(0.05,0,0,0.05,52.95,0)" xlink:href="#ao"/><use transform="matrix(0.05,0,0,0.05,62.95,0)" xlink:href="#ax"/></g><path fill="#fff" d="M27 0v-27h64v-190l-56 39v-29l58-41h29v221h61V0H27" id="bn"/><use transform="matrix(0.05,0,0,0.05,0,0)" xlink:href="#bn" id="K"/><linearGradient gradientUnits="userSpaceOnUse" id="L" x1="760" y1="800" x2="760" y2="840"><stop offset="0%" stop-color="#ea465f"/><stop offset="100%" stop-color="#da2a46"/></linearGradient><use transform="matrix(0.05,0,0,0.05,0,0)" xlink:href="#as" id="M"/><path d="M197 0v-115H63V0H30v-248h33v105h134v-105h34V0h-34" id="bo"/><g id="N"><use transform="matrix(0.05,0,0,0.05,0,0)" xlink:href="#bo"/><use transform="matrix(0.05,0,0,0.05,12.950000000000001,0)" xlink:href="#aN"/><use transform="matrix(0.05,0,0,0.05,25.900000000000002,0)" xlink:href="#aN"/></g><g id="O"><use transform="matrix(0.05,0,0,0.05,0,0)" xlink:href="#aw"/><use transform="matrix(0.05,0,0,0.05,12.950000000000001,0)" xlink:href="#aU"/></g><path d="M233-177c-1 41-23 64-60 70L243 0h-38l-65-103H63V0H30v-248c88 3 205-21 203 71zM63-129c60-2 137 13 137-47 0-61-80-42-137-45v92" id="bp"/><path d="M135-143c-3-34-86-38-87 0 15 53 115 12 119 90S17 21 10-45l28-5c4 36 97 45 98 0-10-56-113-15-118-90-4-57 82-63 122-42 12 7 21 19 24 35" id="bq"/><g id="P"><use transform="matrix(0.05,0,0,0.05,0,0)" xlink:href="#bp"/><use transform="matrix(0.05,0,0,0.05,12.950000000000001,0)" xlink:href="#aF"/><use transform="matrix(0.05,0,0,0.05,22.950000000000003,0)" xlink:href="#aL"/><use transform="matrix(0.05,0,0,0.05,31.950000000000003,0)" xlink:href="#aJ"/><use transform="matrix(0.05,0,0,0.05,41.95,0)" xlink:href="#aZ"/><use transform="matrix(0.05,0,0,0.05,47.900000000000006,0)" xlink:href="#be"/><use transform="matrix(0.05,0,0,0.05,57.900000000000006,0)" xlink:href="#bq"/></g><linearGradient gradientUnits="userSpaceOnUse" id="Q" x1="400" y1="240" x2="400" y2="320"><stop offset="0%" stop-color="#ea465f"/><stop offset="100%" stop-color="#da2a46"/></linearGradient><g id="R"><use transform="matrix(0.05,0,0,0.05,0,0)" xlink:href="#aA"/><use transform="matrix(0.05,0,0,0.05,14,0)" xlink:href="#aq"/><use transform="matrix(0.05,0,0,0.05,24,0)" xlink:href="#ay"/><use transform="matrix(0.05,0,0,0.05,34,0)" xlink:href="#ax"/><use transform="matrix(0.05,0,0,0.05,39.95,0)" xlink:href="#bm"/><use transform="matrix(0.05,0,0,0.05,49.95,0)" xlink:href="#ao"/><use transform="matrix(0.05,0,0,0.05,59.95,0)" xlink:href="#ay"/><use transform="matrix(0.05,0,0,0.05,69.95,0)" xlink:href="#aQ"/><use transform="matrix(0.05,0,0,0.05,79.95,0)" xlink:href="#aq"/><use transform="matrix(0.05,0,0,0.05,89.95,0)" xlink:href="#ax"/></g><path d="M177-190C167-65 218 103 67 71c-23-6-38-20-44-43l32-5c15 47 100 32 89-28v-30C133-14 115 1 83 1 29 1 15-40 15-95c0-56 16-97 71-98 29-1 48 16 59 35 1-10 0-23 2-32h30zM94-22c36 0 50-32 50-73 0-42-14-75-50-75-39 0-46 34-46 75s6 73 46 73" id="br"/><g id="S"><use transform="matrix(0.05,0,0,0.05,0,0)" xlink:href="#br"/><use transform="matrix(0.05,0,0,0.05,10,0)" xlink:href="#aF"/><use transform="matrix(0.05,0,0,0.05,20,0)" xlink:href="#bb"/><use transform="matrix(0.05,0,0,0.05,30,0)" xlink:href="#aZ"/><use transform="matrix(0.05,0,0,0.05,35.95,0)" xlink:href="#bq"/></g><linearGradient gradientUnits="userSpaceOnUse" id="T" x1="1100" y1="340" x2="1100" y2="420"><stop offset="0%" stop-color="#ea465f"/><stop offset="100%" stop-color="#da2a46"/></linearGradient><path fill="#fff" d="M212-179c-10-28-35-45-73-45-59 0-87 40-87 99 0 60 29 101 89 101 43 0 62-24 78-52l27 14C228-24 195 4 139 4 59 4 22-46 18-125c-6-104 99-153 187-111 19 9 31 26 39 46" id="bs"/><path fill="#fff" d="M106-169C34-169 62-67 57 0H25v-261h32l-1 103c12-21 28-36 61-36 89 0 53 116 60 194h-32v-121c2-32-8-49-39-48" id="bt"/><g id="U"><use transform="matrix(0.05,0,0,0.05,0,0)" xlink:href="#bs"/><use transform="matrix(0.05,0,0,0.05,12.950000000000001,0)" xlink:href="#ay"/><use transform="matrix(0.05,0,0,0.05,22.950000000000003,0)" xlink:href="#an"/><use transform="matrix(0.05,0,0,0.05,31.950000000000003,0)" xlink:href="#bt"/><use transform="matrix(0.05,0,0,0.05,41.95,0)" xlink:href="#aq"/><use transform="matrix(0.05,0,0,0.05,51.95,0)" xlink:href="#aQ"/></g><g id="V"><use transform="matrix(0.05,0,0,0.05,0,0)" xlink:href="#aB"/><use transform="matrix(0.05,0,0,0.05,10.950000000000001,0)" xlink:href="#bj"/><use transform="matrix(0.05,0,0,0.05,22.950000000000003,0)" xlink:href="#aw"/></g><g id="W"><use transform="matrix(0.05,0,0,0.05,0,0)" xlink:href="#av"/><use transform="matrix(0.05,0,0,0.05,5,0)" xlink:href="#aC"/><use transform="matrix(0.05,0,0,0.05,15,0)" xlink:href="#at"/><use transform="matrix(0.05,0,0,0.05,20,0)" xlink:href="#aq"/><use transform="matrix(0.05,0,0,0.05,30,0)" xlink:href="#ax"/><use transform="matrix(0.05,0,0,0.05,35.95,0)" xlink:href="#bh"/><use transform="matrix(0.05,0,0,0.05,40.95,0)" xlink:href="#ay"/><use transform="matrix(0.05,0,0,0.05,50.95,0)" xlink:href="#an"/><use transform="matrix(0.05,0,0,0.05,59.95,0)" xlink:href="#aq"/></g><linearGradient gradientUnits="userSpaceOnUse" id="X" x1="980" y1="200" x2="980" y2="280"><stop offset="0%" stop-color="#95d8d1"/><stop offset="100%" stop-color="#76a8a6"/></linearGradient><path d="M127-220V0H93v-220H8v-28h204v28h-85" id="bu"/><path d="M30 0v-248h187v28H63v79h144v27H63v87h162V0H30" id="bv"/><g id="Y"><use transform="matrix(0.05,0,0,0.05,0,0)" xlink:href="#bu"/><use transform="matrix(0.05,0,0,0.05,10.950000000000001,0)" xlink:href="#bv"/><use transform="matrix(0.05,0,0,0.05,22.950000000000003,0)" xlink:href="#aN"/></g><linearGradient gradientUnits="userSpaceOnUse" id="Z" x1="760" y1="420" x2="760" y2="460"><stop offset="0%" stop-color="#ea465f"/><stop offset="100%" stop-color="#da2a46"/></linearGradient><g id="aa"><use transform="matrix(0.05,0,0,0.05,0,0)" xlink:href="#bs"/><use transform="matrix(0.05,0,0,0.05,12.950000000000001,0)" xlink:href="#ao"/><use transform="matrix(0.05,0,0,0.05,22.950000000000003,0)" xlink:href="#aV"/><use transform="matrix(0.05,0,0,0.05,32.95,0)" xlink:href="#aC"/><use transform="matrix(0.05,0,0,0.05,42.95,0)" xlink:href="#at"/><use transform="matrix(0.05,0,0,0.05,47.95,0)" xlink:href="#ax"/><use transform="matrix(0.05,0,0,0.05,53.900000000000006,0)" xlink:href="#bg"/></g><g id="ab"><use transform="matrix(0.05,0,0,0.05,0,0)" xlink:href="#bf"/><use transform="matrix(0.05,0,0,0.05,10.950000000000001,0)" xlink:href="#au"/><use transform="matrix(0.05,0,0,0.05,14.9,0)" xlink:href="#aT"/><use transform="matrix(0.05,0,0,0.05,18.85,0)" xlink:href="#at"/><use transform="matrix(0.05,0,0,0.05,23.85,0)" xlink:href="#aq"/><use transform="matrix(0.05,0,0,0.05,33.85,0)" xlink:href="#ax"/></g><linearGradient gradientUnits="userSpaceOnUse" id="ac" x1="760" y1="480" x2="760" y2="520"><stop offset="0%" stop-color="#ea465f"/><stop offset="100%" stop-color="#da2a46"/></linearGradient><path fill="#fff" d="M205 0l-28-72H64L36 0H1l101-248h38L239 0h-34zm-38-99l-47-123c-12 45-31 82-46 123h93" id="bw"/><path fill="#fff" d="M108 0H70L1-190h34L89-25l56-165h34" id="bx"/><g id="ad"><use transform="matrix(0.05,0,0,0.05,0,0)" xlink:href="#bw"/><use transform="matrix(0.05,0,0,0.05,12,0)" xlink:href="#ax"/><use transform="matrix(0.05,0,0,0.05,17.95,0)" xlink:href="#an"/><use transform="matrix(0.05,0,0,0.05,26.950000000000003,0)" xlink:href="#bt"/><use transform="matrix(0.05,0,0,0.05,36.95,0)" xlink:href="#au"/><use transform="matrix(0.05,0,0,0.05,40.900000000000006,0)" xlink:href="#bx"/><use transform="matrix(0.05,0,0,0.05,49.900000000000006,0)" xlink:href="#aq"/><use transform="matrix(0.05,0,0,0.05,59.900000000000006,0)" xlink:href="#ax"/></g><path d="M63-220v92h138v28H63V0H30v-248h175v28H63" id="by"/><path d="M106-169C34-169 62-67 57 0H25v-261h32l-1 103c12-21 28-36 61-36 89 0 53 116 60 194h-32v-121c2-32-8-49-39-48" id="bz"/><g id="ae"><use transform="matrix(0.05,0,0,0.05,0,0)" xlink:href="#by"/><use transform="matrix(0.05,0,0,0.05,10.950000000000001,0)" xlink:href="#aF"/><use transform="matrix(0.05,0,0,0.05,20.950000000000003,0)" xlink:href="#aG"/><use transform="matrix(0.05,0,0,0.05,25.950000000000003,0)" xlink:href="#aL"/><use transform="matrix(0.05,0,0,0.05,34.95,0)" xlink:href="#bz"/></g><path d="M240 0l2-218c-23 76-54 145-80 218h-23L58-218 59 0H30v-248h44l77 211c21-75 51-140 76-211h43V0h-30" id="bA"/><path d="M30 0v-248h33v221h125V0H30" id="bB"/><g id="af"><use transform="matrix(0.05,0,0,0.05,0,0)" xlink:href="#bo"/><use transform="matrix(0.05,0,0,0.05,12.950000000000001,0)" xlink:href="#bu"/><use transform="matrix(0.05,0,0,0.05,23.900000000000002,0)" xlink:href="#bA"/><use transform="matrix(0.05,0,0,0.05,38.85,0)" xlink:href="#bB"/></g><path d="M212-179c-10-28-35-45-73-45-59 0-87 40-87 99 0 60 29 101 89 101 43 0 62-24 78-52l27 14C228-24 195 4 139 4 59 4 22-46 18-125c-6-104 99-153 187-111 19 9 31 26 39 46" id="bC"/><path d="M185-189c-5-48-123-54-124 2 14 75 158 14 163 119 3 78-121 87-175 55-17-10-28-26-33-46l33-7c5 56 141 63 141-1 0-78-155-14-162-118-5-82 145-84 179-34 5 7 8 16 11 25" id="bD"/><path d="M137 0h-34L2-248h35l83 218 83-218h36" id="bE"/><g id="ag"><use transform="matrix(0.05,0,0,0.05,0,0)" xlink:href="#bC"/><use transform="matrix(0.05,0,0,0.05,12.950000000000001,0)" xlink:href="#bD"/><use transform="matrix(0.05,0,0,0.05,24.950000000000003,0)" xlink:href="#bE"/></g><linearGradient gradientUnits="userSpaceOnUse" id="ah" x1="400" y1="400" x2="400" y2="480"><stop offset="0%" stop-color="#ea465f"/><stop offset="100%" stop-color="#da2a46"/></linearGradient><g id="ai"><use transform="matrix(0.05,0,0,0.05,0,0)" xlink:href="#aW"/><use transform="matrix(0.05,0,0,0.05,12.950000000000001,0)" xlink:href="#bf"/></g><g id="aj"><use transform="matrix(0.05,0,0,0.05,0,0)" xlink:href="#bj"/><use transform="matrix(0.05,0,0,0.05,12,0)" xlink:href="#as"/><use transform="matrix(0.05,0,0,0.05,24.950000000000003,0)" xlink:href="#aA"/><use transform="matrix(0.05,0,0,0.05,38.95,0)" xlink:href="#av"/><use transform="matrix(0.05,0,0,0.05,43.95,0)" xlink:href="#as"/><use transform="matrix(0.05,0,0,0.05,56.900000000000006,0)" xlink:href="#bj"/></g><path fill="#fff" d="M140-251c81 0 123 46 123 126C263-46 219 4 140 4 59 4 17-45 17-125s42-126 123-126zm0 227c63 0 89-41 89-101s-29-99-89-99c-61 0-89 39-89 99S79-25 140-24" id="bF"/><g id="ak"><use transform="matrix(0.05,0,0,0.05,0,0)" xlink:href="#am"/><use transform="matrix(0.05,0,0,0.05,12,0)" xlink:href="#bj"/><use transform="matrix(0.05,0,0,0.05,24,0)" xlink:href="#am"/><use transform="matrix(0.05,0,0,0.05,36,0)" xlink:href="#am"/><use transform="matrix(0.05,0,0,0.05,48,0)" xlink:href="#av"/><use transform="matrix(0.05,0,0,0.05,53,0)" xlink:href="#bF"/><use transform="matrix(0.05,0,0,0.05,67,0)" xlink:href="#as"/></g><g id="al"><use transform="matrix(0.05,0,0,0.05,0,0)" xlink:href="#aE"/><use transform="matrix(0.05,0,0,0.05,14,0)" xlink:href="#aF"/><use transform="matrix(0.05,0,0,0.05,24,0)" xlink:href="#bb"/><use transform="matrix(0.05,0,0,0.05,34,0)" xlink:href="#aZ"/><use transform="matrix(0.05,0,0,0.05,39.95,0)" xlink:href="#bq"/></g></defs></g></svg>