<svg xmlns="http://www.w3.org/2000/svg" xmlns:xlink="http://www.w3.org/1999/xlink" width="760" height="580"><g transform="translate(-100 -60)"><path d="M120 85c0-2.76 2.24-5 5-5h70c2.76 0 5 2.24 5 5v75c-13.33-13.33-21.67-13.33-26.67-13.33-8 0-18.66 13.33-26.66 13.33-5 0-13.34 0-26.67-13.33z" stroke="#000" stroke-width="2" fill="url(#a)"/><use xlink:href="#b" transform="matrix(1,0,0,1,120,80) translate(15.104999999999999 44.4)"/><path d="M240 85c0-2.76 2.24-5 5-5h110c2.76 0 5 2.24 5 5v70c0 2.76-2.24 5-5 5H245c-2.76 0-5-2.24-5-5z" stroke="#000" stroke-width="2" fill="url(#c)"/><use xlink:href="#d" transform="matrix(1,0,0,1,240,80) translate(13.554999999999994 44.4)"/><path d="M400 85c0-2.76 2.24-5 5-5h70c2.76 0 5 2.24 5 5v75c-13.33-13.33-21.67-13.33-26.67-13.33-8 0-18.66 13.33-26.66 13.33-5 0-13.34 0-26.67-13.33z" stroke="#000" stroke-width="2" fill="url(#e)"/><use xlink:href="#f" transform="matrix(1,0,0,1,400,80) translate(23.055 44.4)"/><path d="M760 85c0-2.76 2.24-5 5-5h70c2.76 0 5 2.24 5 5v75c-13.33-13.33-21.67-13.33-26.67-13.33-8 0-18.66 13.33-26.66 13.33-5 0-13.34 0-26.67-13.33z" stroke="#000" stroke-width="2" fill="url(#g)"/><use xlink:href="#h" transform="matrix(1,0,0,1,760,80) translate(23.055 44.4)"/><path d="M200 120h40" stroke="#000" stroke-width="2" fill="none"/><path d="M200 121v-2zM240 120l-14.27 4.64v-9.28z"/><path d="M240 118.95v2.1L224.73 126v-12zm-13.27 4.3l10.03-3.25-10.03-3.26z"/><path d="M360 120h40" stroke="#000" stroke-width="2" fill="none"/><path d="M360 121v-2zM400 120l-14.27 4.64v-9.28z"/><path d="M400 118.95v2.1L384.73 126v-12zm-13.27 4.3l10.03-3.25-10.03-3.26z"/><path d="M560 205c0-2.76 2.24-5 5-5h110c2.76 0 5 2.24 5 5v70c0 2.76-2.24 5-5 5H565c-2.76 0-5-2.24-5-5z" stroke="#000" stroke-width="2" fill="url(#i)"/><use xlink:href="#j" transform="matrix(1,0,0,1,560,200) translate(29.07999999999999 44.4)"/><path d="M440 345c0-2.76 2.24-5 5-5h98c2.76 0 5 2.24 5 5v97c-18-17-29.25-17-36-17-10.8 0-25.2 17-36 17-6.75 0-18 0-36-17z" stroke="#000" stroke-width="2" fill="url(#k)"/><path d="M446 354c0-2.76 2.24-5 5-5h98c2.76 0 5 2.24 5 5v97c-18-17-29.25-17-36-17-10.8 0-25.2 17-36 17-6.75 0-18 0-36-17z" stroke="#000" stroke-width="2" fill="url(#l)"/><path d="M452 363c0-2.76 2.24-5 5-5h98c2.76 0 5 2.24 5 5v97c-18-17-29.25-17-36-17-10.8 0-25.2 17-36 17-6.75 0-18 0-36-17z" stroke="#000" stroke-width="2" fill="url(#m)"/><use xlink:href="#n" transform="matrix(1,0,0,1,440,340) translate(38.730000000000004 63.15)"/><path d="M680 345c0-2.76 2.24-5 5-5h98c2.76 0 5 2.24 5 5v97c-18-17-29.25-17-36-17-10.8 0-25.2 17-36 17-6.75 0-18 0-36-17z" stroke="#000" stroke-width="2" fill="url(#o)"/><path d="M686 354c0-2.76 2.24-5 5-5h98c2.76 0 5 2.24 5 5v97c-18-17-29.25-17-36-17-10.8 0-25.2 17-36 17-6.75 0-18 0-36-17z" stroke="#000" stroke-width="2" fill="url(#p)"/><path d="M692 363c0-2.76 2.24-5 5-5h98c2.76 0 5 2.24 5 5v97c-18-17-29.25-17-36-17-10.8 0-25.2 17-36 17-6.75 0-18 0-36-17z" stroke="#000" stroke-width="2" fill="url(#q)"/><use xlink:href="#r" transform="matrix(1,0,0,1,680,340) translate(38.05499999999999 63.15)"/><path d="M480 120l9.27.2 9 .57 8.62.9 8.1 1.2 7.5 1.45 6.95 1.64 6.37 1.8 5.8 1.9 5.3 1.97 4.84 2.05 4.4 2.1 4.02 2.1 3.66 2.13 3.35 2.16 3.06 2.15 2.82 2.16 2.58 2.16 2.38 2.17 2.2 2.16 2.02 2.18 1.86 2.18 1.72 2.2 1.6 2.22 1.46 2.25 1.35 2.25 1.25 2.3 1.13 2.34 1.04 2.38.94 2.43.86 2.5.75 2.57.66 2.65.55 2.73.46 2.83.34 2.94.23 3.07.1 3.2v.8" stroke="#000" stroke-width="2" fill="none"/><path d="M480.04 119l-.04 1.05V119zM598.53 199l-6.07-13.72 9.22-.95z"/><path d="M599.34 200h-1.46l-6.9-15.57 11.97-1.23zm-5.4-13.86l4.26 9.64 2.2-10.3z"/><path d="M620 280v.47l-.04.46-.05.45-.05.45-.1.44-.1.45-.12.44-.14.45-.18.46-.2.46-.2.46-.26.47-.28.5-.3.5-.37.5-.4.54-.46.55-.53.58-.6.6-.68.66-.8.7-.95.73-1.1.8-1.33.9-1.6.95-1.96 1.08-2.47 1.22-3.18 1.42-4.3 1.7-6.16 2.13-10.33 3.1-51.8 13.84-6.16 2.14-4.3 1.7-3.18 1.42-2.48 1.22-1.96 1.08-1.6.96-1.32.88-1.1.8-.95.75-.82.7-.7.66-.6.6-.52.6-.46.55-.4.55-.37.5-.3.5-.3.5-.24.47-.23.46-.2.46-.16.45-.13.44-.13.44-.1.45-.1.44-.05.45-.06.45-.03.46v.47" stroke="#000" stroke-width="2" fill="none"/><path d="M620.84 280.55L620 280h1.2zM511.66 330.57L500 340l3.9-14.5z"/><path d="M513.36 330.48L501.6 340h-2.64l4.32-16.08zm-11.6 6.8l8.2-6.63-5.46-3.55z"/><path d="M620 280v.47l.04.46.05.45.05.45.1.44.1.45.12.44.14.45.18.46.2.46.2.46.26.47.28.5.3.5.37.5.4.54.46.55.53.58.6.6.68.66.8.7.95.73 1.1.8 1.33.9 1.6.95 1.96 1.08 2.47 1.22 3.18 1.42 4.3 1.7 6.16 2.13 10.33 3.1 51.8 13.84 6.16 2.14 4.3 1.7 3.18 1.42 2.48 1.22 1.96 1.08 1.6.96 1.32.88 1.1.8.95.75.82.7.7.66.6.6.52.6.46.55.4.55.37.5.3.5.3.5.24.47.23.46.2.46.16.45.13.44.13.44.1.45.1.44.05.45.06.45.03.46v.47" stroke="#000" stroke-width="2" fill="none"/><path d="M619.16 280.55l-.35-.55h1.2zM740 340l-11.66-9.43 7.77-5.06z"/><path d="M741.04 340h-2.63l-11.76-9.52 10.08-6.56zm-11-9.35l8.2 6.64-2.74-10.2z"/><path d="M760 120l-9.45.2-9.18.57-8.73.92-8.2 1.2-7.6 1.45-7 1.64-6.4 1.77-5.85 1.9-5.32 1.97-4.84 2.04-4.4 2.07-4.03 2.1-3.65 2.1-3.35 2.14-3.07 2.12-2.8 2.13-2.6 2.14-2.38 2.13-2.2 2.15-2 2.15-1.88 2.16-1.72 2.17-1.6 2.2-1.46 2.2-1.37 2.24-1.25 2.28-1.14 2.3-1.05 2.36-.96 2.4-.86 2.46-.76 2.52-.67 2.6-.57 2.7-.47 2.77-.35 2.9-.25 3-.14 3.16V199" stroke="#000" stroke-width="2" fill="none"/><path d="M760 120.05l-.04-1.05h.04zM646.52 185.28L640.45 199l-3.15-14.67z"/><path d="M648 184.43L641.1 200h-1.46l-3.6-16.8zm-7.22 11.35l4.27-9.64-6.48-.67z"/><path d="M540 545c0-2.76 2.24-5 5-5h150c2.76 0 5 2.24 5 5v70c0 2.76-2.24 5-5 5H545c-2.76 0-5-2.24-5-5z" stroke="#000" stroke-width="2" fill="url(#s)"/><use xlink:href="#t" transform="matrix(1,0,0,1,540,540) translate(36.12999999999999 31.9)"/><use xlink:href="#u" transform="matrix(1,0,0,1,540,540) translate(52.005 53.5)"/><path d="M500 455.2l1.67 2.53 1.8 2.44 1.93 2.38 2.1 2.34 2.3 2.3 2.56 2.3 2.84 2.33 3.22 2.38 3.74 2.5 4.48 2.64 5.7 3 8.57 3.95 30.22 12.85 4.57 2.4 3.4 2.02 2.72 1.8 2.27 1.68 1.94 1.6 1.68 1.52 1.5 1.5 1.32 1.46 1.2 1.46 1.07 1.46.98 1.48.9 1.5.8 1.55.73 1.6.68 1.64.6 1.73.52 1.83.45 1.94.38 2.07.3 2.25.2 2.44.06 2.66v.24" stroke="#000" stroke-width="2" fill="none"/><path d="M500.78 454.57l-1.56 1.26-.2-.23 1.73-1.06zM599.4 539l-6.85-13.35 9.15-1.47z"/><path d="M600.25 540h-1.47l-7.75-15.12 11.87-1.9zm-6.18-13.58l4.8 9.4 1.63-10.44z"/><path d="M740 455.2l.95 1.6.74 1.42.57 1.26.46 1.14.36 1.04.27.96.2.9.16.82.1.78.07.75.02.7v.7l-.05.66-.08.64-.12.64-.13.63-.17.6-.2.62-.24.6-.27.63-.32.62-.36.64-.42.65-.48.66-.55.7-.63.7-.74.78-.86.8-1.03.88-1.24.94-1.5 1.03-1.9 1.15-2.4 1.33-3.26 1.58-4.73 2-8.3 3.04-39.26 13.07-6.4 2.72-4.67 2.26-3.65 2-2.95 1.82-2.45 1.68-2.06 1.58-1.76 1.5-1.52 1.42-1.33 1.37-1.15 1.33-1.03 1.3-.9 1.28-.8 1.26-.72 1.25-.63 1.25-.56 1.25-.48 1.26-.42 1.3-.36 1.3-.3 1.35-.23 1.38-.16 1.44-.1 1.5L640 539" stroke="#000" stroke-width="2" fill="none"/><path d="M740.97 454.95l-1.53.4 1.4-.88zM648.18 526.42L640 539l-.77-14.98z"/><path d="M649.77 525.8l-9.2 14.2h-1.5l-.9-17.3zm-8.92 10.07l5.74-8.84-6.3-1.7z"/><defs><linearGradient gradientUnits="userSpaceOnUse" id="a" x1="200" y1="80" x2="200" y2="160"><stop offset="0%" stop-color="#95d8d1"/><stop offset="100%" stop-color="#76a8a6"/></linearGradient><path d="M186 0v-106H76V0H24v-248h52v99h110v-99h50V0h-50" id="v"/><path d="M136-208V0H84v-208H4v-40h212v40h-80" id="w"/><path d="M230 0l2-204L168 0h-37L68-204 70 0H24v-248h70l56 185 57-185h69V0h-46" id="x"/><path d="M24 0v-248h52v208h133V0H24" id="y"/><g id="b"><use transform="matrix(0.05,0,0,0.05,0,0)" xlink:href="#v"/><use transform="matrix(0.05,0,0,0.05,12.950000000000001,0)" xlink:href="#w"/><use transform="matrix(0.05,0,0,0.05,23.900000000000002,0)" xlink:href="#x"/><use transform="matrix(0.05,0,0,0.05,38.85,0)" xlink:href="#y"/></g><linearGradient gradientUnits="userSpaceOnUse" id="c" x1="360" y1="80" x2="360" y2="160"><stop offset="0%" stop-color="#ea465f"/><stop offset="100%" stop-color="#da2a46"/></linearGradient><path fill="#fff" d="M175 0L67-191c6 58 2 128 3 191H24v-248h59L193-55c-6-58-2-129-3-193h46V0h-61" id="z"/><path fill="#fff" d="M110-194c64 0 96 36 96 99 0 64-35 99-97 99-61 0-95-36-95-99 0-62 34-99 96-99zm-1 164c35 0 45-28 45-65 0-40-10-65-43-65-34 0-45 26-45 65 0 36 10 65 43 65" id="A"/><path fill="#fff" d="M135-150c-39-12-60 13-60 57V0H25l-1-190h47c2 13-1 29 3 40 6-28 27-53 61-41v41" id="B"/><path fill="#fff" d="M220-157c-53 9-28 100-34 157h-49v-107c1-27-5-49-29-50C55-147 81-57 75 0H25l-1-190h47c2 12-1 28 3 38 10-53 101-56 108 0 13-22 24-43 59-42 82 1 51 116 57 194h-49v-107c-1-25-5-48-29-50" id="C"/><path fill="#fff" d="M133-34C117-15 103 5 69 4 32 3 11-16 11-54c-1-60 55-63 116-61 1-26-3-47-28-47-18 1-26 9-28 27l-52-2c7-38 36-58 82-57s74 22 75 68l1 82c-1 14 12 18 25 15v27c-30 8-71 5-69-32zm-48 3c29 0 43-24 42-57-32 0-66-3-65 30 0 17 8 27 23 27" id="D"/><path fill="#fff" d="M25 0v-261h50V0H25" id="E"/><path fill="#fff" d="M25-224v-37h50v37H25zM25 0v-190h50V0H25" id="F"/><path fill="#fff" d="M12 0v-35l95-120H19v-35h142v35L67-36h103V0H12" id="G"/><path fill="#fff" d="M185-48c-13 30-37 53-82 52C43 2 14-33 14-96s30-98 90-98c62 0 83 45 84 108H66c0 31 8 55 39 56 18 0 30-7 34-22zm-45-69c5-46-57-63-70-21-2 6-4 13-4 21h74" id="H"/><g id="d"><use transform="matrix(0.05,0,0,0.05,0,0)" xlink:href="#z"/><use transform="matrix(0.05,0,0,0.05,12.950000000000001,0)" xlink:href="#A"/><use transform="matrix(0.05,0,0,0.05,23.900000000000002,0)" xlink:href="#B"/><use transform="matrix(0.05,0,0,0.05,30.900000000000002,0)" xlink:href="#C"/><use transform="matrix(0.05,0,0,0.05,46.900000000000006,0)" xlink:href="#D"/><use transform="matrix(0.05,0,0,0.05,56.900000000000006,0)" xlink:href="#E"/><use transform="matrix(0.05,0,0,0.05,61.900000000000006,0)" xlink:href="#F"/><use transform="matrix(0.05,0,0,0.05,66.9,0)" xlink:href="#G"/><use transform="matrix(0.05,0,0,0.05,75.9,0)" xlink:href="#H"/><use transform="matrix(0.05,0,0,0.05,85.9,0)" xlink:href="#B"/></g><linearGradient gradientUnits="userSpaceOnUse" id="e" x1="480" y1="80" x2="480" y2="160"><stop offset="0%" stop-color="#95d8d1"/><stop offset="100%" stop-color="#76a8a6"/></linearGradient><path d="M182 0l-62-99L58 0H3l86-130-79-118h55l55 88 55-88h55l-75 118L237 0h-55" id="I"/><g id="f"><use transform="matrix(0.05,0,0,0.05,0,0)" xlink:href="#w"/><use transform="matrix(0.05,0,0,0.05,10.950000000000001,0)" xlink:href="#I"/><use transform="matrix(0.05,0,0,0.05,22.950000000000003,0)" xlink:href="#w"/></g><linearGradient gradientUnits="userSpaceOnUse" id="g" x1="840" y1="80" x2="840" y2="160"><stop offset="0%" stop-color="#95d8d1"/><stop offset="100%" stop-color="#76a8a6"/></linearGradient><path d="M24-248c93 1 206-16 204 79-1 75-69 88-152 82V0H24v-248zm52 121c47 0 100 7 100-41 0-47-54-39-100-39v80" id="J"/><g id="h"><use transform="matrix(0.05,0,0,0.05,0,0)" xlink:href="#w"/><use transform="matrix(0.05,0,0,0.05,10.950000000000001,0)" xlink:href="#J"/><use transform="matrix(0.05,0,0,0.05,22.950000000000003,0)" xlink:href="#y"/></g><linearGradient gradientUnits="userSpaceOnUse" id="i" x1="680" y1="200" x2="680" y2="280"><stop offset="0%" stop-color="#ea465f"/><stop offset="100%" stop-color="#da2a46"/></linearGradient><path fill="#fff" d="M169-182c-1-43-94-46-97-3 18 66 151 10 154 114 3 95-165 93-204 36-6-8-10-19-12-30l50-8c3 46 112 56 116 5-17-69-150-10-154-114-4-87 153-88 188-35 5 8 8 18 10 28" id="K"/><path fill="#fff" d="M135-194c53 0 70 44 70 98 0 56-19 98-73 100-31 1-45-17-59-34 3 33 2 69 2 105H25l-1-265h48c2 10 0 23 3 31 11-24 29-35 60-35zM114-30c33 0 39-31 40-66 0-38-9-64-40-64-56 0-55 130 0 130" id="L"/><path fill="#fff" d="M115-3C79 11 28 4 28-45v-112H4v-33h27l15-45h31v45h36v33H77v99c-1 23 16 31 38 25v30" id="M"/><g id="j"><use transform="matrix(0.05,0,0,0.05,0,0)" xlink:href="#K"/><use transform="matrix(0.05,0,0,0.05,12,0)" xlink:href="#L"/><use transform="matrix(0.05,0,0,0.05,22.950000000000003,0)" xlink:href="#E"/><use transform="matrix(0.05,0,0,0.05,27.950000000000003,0)" xlink:href="#F"/><use transform="matrix(0.05,0,0,0.05,32.95,0)" xlink:href="#M"/><use transform="matrix(0.05,0,0,0.05,38.900000000000006,0)" xlink:href="#M"/><use transform="matrix(0.05,0,0,0.05,44.85000000000001,0)" xlink:href="#H"/><use transform="matrix(0.05,0,0,0.05,54.85,0)" xlink:href="#B"/></g><linearGradient gradientUnits="userSpaceOnUse" id="k" x1="560" y1="340" x2="560" y2="460"><stop offset="0%" stop-color="#95d8d1"/><stop offset="100%" stop-color="#76a8a6"/></linearGradient><linearGradient gradientUnits="userSpaceOnUse" id="l" x1="560" y1="340" x2="560" y2="460"><stop offset="0%" stop-color="#95d8d1"/><stop offset="100%" stop-color="#76a8a6"/></linearGradient><linearGradient gradientUnits="userSpaceOnUse" id="m" x1="560" y1="340" x2="560" y2="460"><stop offset="0%" stop-color="#95d8d1"/><stop offset="100%" stop-color="#76a8a6"/></linearGradient><path d="M137-138c1-29-70-34-71-4 15 46 118 7 119 86 1 83-164 76-172 9l43-7c4 19 20 25 44 25 33 8 57-30 24-41C81-84 22-81 20-136c-2-80 154-74 161-7" id="N"/><g id="n"><use transform="matrix(0.05,0,0,0.05,0,0)" xlink:href="#w"/><use transform="matrix(0.05,0,0,0.05,10.950000000000001,0)" xlink:href="#I"/><use transform="matrix(0.05,0,0,0.05,22.950000000000003,0)" xlink:href="#w"/><use transform="matrix(0.05,0,0,0.05,32.550000000000004,0)" xlink:href="#N"/></g><linearGradient gradientUnits="userSpaceOnUse" id="o" x1="800" y1="340" x2="800" y2="460"><stop offset="0%" stop-color="#95d8d1"/><stop offset="100%" stop-color="#76a8a6"/></linearGradient><linearGradient gradientUnits="userSpaceOnUse" id="p" x1="800" y1="340" x2="800" y2="460"><stop offset="0%" stop-color="#95d8d1"/><stop offset="100%" stop-color="#76a8a6"/></linearGradient><linearGradient gradientUnits="userSpaceOnUse" id="q" x1="800" y1="340" x2="800" y2="460"><stop offset="0%" stop-color="#95d8d1"/><stop offset="100%" stop-color="#76a8a6"/></linearGradient><g id="r"><use transform="matrix(0.05,0,0,0.05,0,0)" xlink:href="#w"/><use transform="matrix(0.05,0,0,0.05,10.950000000000001,0)" xlink:href="#J"/><use transform="matrix(0.05,0,0,0.05,22.950000000000003,0)" xlink:href="#y"/><use transform="matrix(0.05,0,0,0.05,33.900000000000006,0)" xlink:href="#N"/></g><linearGradient gradientUnits="userSpaceOnUse" id="s" x1="700" y1="540" x2="700" y2="620"><stop offset="0%" stop-color="#ea465f"/><stop offset="100%" stop-color="#da2a46"/></linearGradient><path fill="#fff" d="M24-248c120-7 223 5 221 122C244-46 201 0 124 0H24v-248zM76-40c74 7 117-18 117-86 0-67-45-88-117-82v168" id="O"/><path fill="#fff" d="M190-63c-7 42-38 67-86 67-59 0-84-38-90-98-12-110 154-137 174-36l-49 2c-2-19-15-32-35-32-30 0-35 28-38 64-6 74 65 87 74 30" id="P"/><path fill="#fff" d="M85 4C-2 5 27-109 22-190h50c7 57-23 150 33 157 60-5 35-97 40-157h50l1 190h-47c-2-12 1-28-3-38-12 25-28 42-61 42" id="Q"/><path fill="#fff" d="M135-194c87-1 58 113 63 194h-50c-7-57 23-157-34-157-59 0-34 97-39 157H25l-1-190h47c2 12-1 28 3 38 12-26 28-41 61-42" id="R"/><g id="t"><use transform="matrix(0.05,0,0,0.05,0,0)" xlink:href="#O"/><use transform="matrix(0.05,0,0,0.05,12.950000000000001,0)" xlink:href="#A"/><use transform="matrix(0.05,0,0,0.05,23.900000000000002,0)" xlink:href="#P"/><use transform="matrix(0.05,0,0,0.05,33.900000000000006,0)" xlink:href="#Q"/><use transform="matrix(0.05,0,0,0.05,44.85000000000001,0)" xlink:href="#C"/><use transform="matrix(0.05,0,0,0.05,60.85,0)" xlink:href="#H"/><use transform="matrix(0.05,0,0,0.05,70.85000000000001,0)" xlink:href="#R"/><use transform="matrix(0.05,0,0,0.05,81.80000000000001,0)" xlink:href="#M"/></g><path fill="#fff" d="M24-248c93 1 206-16 204 79-1 75-69 88-152 82V0H24v-248zm52 121c47 0 100 7 100-41 0-47-54-39-100-39v80" id="S"/><path fill="#fff" d="M137-138c1-29-70-34-71-4 15 46 118 7 119 86 1 83-164 76-172 9l43-7c4 19 20 25 44 25 33 8 57-30 24-41C81-84 22-81 20-136c-2-80 154-74 161-7" id="T"/><g id="u"><use transform="matrix(0.05,0,0,0.05,0,0)" xlink:href="#S"/><use transform="matrix(0.05,0,0,0.05,12,0)" xlink:href="#D"/><use transform="matrix(0.05,0,0,0.05,22,0)" xlink:href="#B"/><use transform="matrix(0.05,0,0,0.05,29,0)" xlink:href="#T"/><use transform="matrix(0.05,0,0,0.05,39,0)" xlink:href="#H"/><use transform="matrix(0.05,0,0,0.05,49,0)" xlink:href="#B"/></g></defs></g></svg>