<svg xmlns="http://www.w3.org/2000/svg" xmlns:xlink="http://www.w3.org/1999/xlink" width="680" height="280"><g transform="translate(-140 -60)"><path d="M160 85c0-2.76 2.24-5 5-5h70c2.76 0 5 2.24 5 5v75c-13.33-13.33-21.67-13.33-26.67-13.33-8 0-18.66 13.33-26.66 13.33-5 0-13.34 0-26.67-13.33z" stroke="#000" stroke-width="2" fill="url(#a)"/><use xlink:href="#b" transform="matrix(1,0,0,1,160,80) translate(23.055 44.4)"/><path d="M160 245c0-2.76 2.24-5 5-5h70c2.76 0 5 2.24 5 5v75c-13.33-13.33-21.67-13.33-26.67-13.33-8 0-18.66 13.33-26.66 13.33-5 0-13.34 0-26.67-13.33z" stroke="#000" stroke-width="2" fill="url(#c)"/><use xlink:href="#d" transform="matrix(1,0,0,1,160,240) translate(23.055 44.4)"/><path d="M360 165c0-2.76 2.24-5 5-5h150c2.76 0 5 2.24 5 5v70c0 2.76-2.24 5-5 5H365c-2.76 0-5-2.24-5-5z" stroke="#000" stroke-width="2" fill="url(#e)"/><use xlink:href="#f" transform="matrix(1,0,0,1,360,160) translate(41.254999999999995 31.9)"/><use xlink:href="#g" transform="matrix(1,0,0,1,360,160) translate(52.005 53.5)"/><path d="M240 120l11.75-.26 17.65-1.14 91.2-8.95 11.14-.25 8.33.17 6.62.4 5.44.58 4.6.68 3.94.75 3.44.8 3.04.85 2.7.88 2.43.9 2.2.93 2 .95 1.84.96 1.7.98 1.58 1 1.46 1.02 1.37 1.04 1.28 1.06 1.2 1.08 1.15 1.12 1.07 1.15 1.02 1.17.97 1.22.92 1.25.88 1.32.83 1.37.8 1.44.74 1.5.7 1.6.68 1.68.62 1.8.58 1.9.53 2.05.48 2.23.4 2.4.33 2.6.25 2.88.13 3.18.02 1.72" stroke="#000" stroke-width="2" fill="none"/><path d="M240.03 121H240v-1.08zM440 160l-6.1-13.7 9.2-.97z"/><path d="M441.02 160h-2.1l-6.5-14.55 11.95-1.26zm-5.65-12.85l4.3 9.63 2.18-10.3z"/><path d="M240 280l11.75.26 17.65 1.14 91.2 8.95 11.14.25 8.33-.17 6.62-.4 5.44-.58 4.6-.68 3.94-.75 3.44-.8 3.04-.85 2.7-.88 2.43-.9 2.2-.93 2-.95 1.84-.96 1.7-.98 1.58-1 1.46-1.02 1.37-1.04 1.28-1.06 1.2-1.08 1.15-1.12 1.07-1.15 1.02-1.17.97-1.22.92-1.25.88-1.32.83-1.37.8-1.44.74-1.5.7-1.6.68-1.68.62-1.8.58-1.9.53-2.05.48-2.23.4-2.4.33-2.6.25-2.88.13-3.18.02-1.72" stroke="#000" stroke-width="2" fill="none"/><path d="M240.03 279l-.03 1.08V279zM443.1 254.67l-9.2-.97L440 240z"/><path d="M444.37 255.8l-11.95-1.25 6.5-14.55h2.1zm-9-2.95l6.48.68-2.2-10.3z"/><path d="M660.05 164.83c.7-2.67 3.52-4.83 6.28-4.83H795c2.76 0 4.42 2.16 3.7 4.83l-18.75 70.34c-.7 2.67-3.52 4.83-6.28 4.83H645c-2.76 0-4.42-2.16-3.7-4.83z" stroke="#000" stroke-width="2" fill="url(#h)"/><use xlink:href="#i" transform="matrix(1,0,0,1,640,160) translate(36.58 44.4)"/><path d="M520 200l12.92-.27 15.08-.97 49.6-4.62 8.27-.18 7.28.15 6.88.44 6.77.7 6.9 1.03 7.2 1.38 7.7 1.8 2.07.55" stroke="#000" stroke-width="2" fill="none"/><path d="M520.03 201H520v-1.06zM650.67 200l-14.94 1.4 2.03-9.04z"/><path d="M650.93 199l-.54 2.03-15.94 1.5 2.63-11.74zM637 200.28l10.5-1-9.07-5.36z"/><defs><linearGradient gradientUnits="userSpaceOnUse" id="a" x1="240" y1="80" x2="240" y2="160"><stop offset="0%" stop-color="#95d8d1"/><stop offset="100%" stop-color="#76a8a6"/></linearGradient><path d="M136-208V0H84v-208H4v-40h212v40h-80" id="j"/><path d="M182 0l-62-99L58 0H3l86-130-79-118h55l55 88 55-88h55l-75 118L237 0h-55" id="k"/><g id="b"><use transform="matrix(0.05,0,0,0.05,0,0)" xlink:href="#j"/><use transform="matrix(0.05,0,0,0.05,10.950000000000001,0)" xlink:href="#k"/><use transform="matrix(0.05,0,0,0.05,22.950000000000003,0)" xlink:href="#j"/></g><linearGradient gradientUnits="userSpaceOnUse" id="c" x1="240" y1="240" x2="240" y2="320"><stop offset="0%" stop-color="#95d8d1"/><stop offset="100%" stop-color="#76a8a6"/></linearGradient><path d="M24-248c93 1 206-16 204 79-1 75-69 88-152 82V0H24v-248zm52 121c47 0 100 7 100-41 0-47-54-39-100-39v80" id="l"/><path d="M24 0v-248h52v208h133V0H24" id="m"/><g id="d"><use transform="matrix(0.05,0,0,0.05,0,0)" xlink:href="#j"/><use transform="matrix(0.05,0,0,0.05,10.950000000000001,0)" xlink:href="#l"/><use transform="matrix(0.05,0,0,0.05,22.950000000000003,0)" xlink:href="#m"/></g><linearGradient gradientUnits="userSpaceOnUse" id="e" x1="520" y1="160" x2="520" y2="240"><stop offset="0%" stop-color="#ea465f"/><stop offset="100%" stop-color="#da2a46"/></linearGradient><path fill="#fff" d="M136-208V0H84v-208H4v-40h212v40h-80" id="n"/><path fill="#fff" d="M185-48c-13 30-37 53-82 52C43 2 14-33 14-96s30-98 90-98c62 0 83 45 84 108H66c0 31 8 55 39 56 18 0 30-7 34-22zm-45-69c5-46-57-63-70-21-2 6-4 13-4 21h74" id="o"/><path fill="#fff" d="M220-157c-53 9-28 100-34 157h-49v-107c1-27-5-49-29-50C55-147 81-57 75 0H25l-1-190h47c2 12-1 28 3 38 10-53 101-56 108 0 13-22 24-43 59-42 82 1 51 116 57 194h-49v-107c-1-25-5-48-29-50" id="p"/><path fill="#fff" d="M135-194c53 0 70 44 70 98 0 56-19 98-73 100-31 1-45-17-59-34 3 33 2 69 2 105H25l-1-265h48c2 10 0 23 3 31 11-24 29-35 60-35zM114-30c33 0 39-31 40-66 0-38-9-64-40-64-56 0-55 130 0 130" id="q"/><path fill="#fff" d="M25 0v-261h50V0H25" id="r"/><path fill="#fff" d="M133-34C117-15 103 5 69 4 32 3 11-16 11-54c-1-60 55-63 116-61 1-26-3-47-28-47-18 1-26 9-28 27l-52-2c7-38 36-58 82-57s74 22 75 68l1 82c-1 14 12 18 25 15v27c-30 8-71 5-69-32zm-48 3c29 0 43-24 42-57-32 0-66-3-65 30 0 17 8 27 23 27" id="s"/><path fill="#fff" d="M115-3C79 11 28 4 28-45v-112H4v-33h27l15-45h31v45h36v33H77v99c-1 23 16 31 38 25v30" id="t"/><g id="f"><use transform="matrix(0.05,0,0,0.05,0,0)" xlink:href="#n"/><use transform="matrix(0.05,0,0,0.05,9.600000000000001,0)" xlink:href="#o"/><use transform="matrix(0.05,0,0,0.05,19.6,0)" xlink:href="#p"/><use transform="matrix(0.05,0,0,0.05,35.6,0)" xlink:href="#q"/><use transform="matrix(0.05,0,0,0.05,46.550000000000004,0)" xlink:href="#r"/><use transform="matrix(0.05,0,0,0.05,51.550000000000004,0)" xlink:href="#s"/><use transform="matrix(0.05,0,0,0.05,61.550000000000004,0)" xlink:href="#t"/><use transform="matrix(0.05,0,0,0.05,67.5,0)" xlink:href="#o"/></g><path fill="#fff" d="M24-248c93 1 206-16 204 79-1 75-69 88-152 82V0H24v-248zm52 121c47 0 100 7 100-41 0-47-54-39-100-39v80" id="u"/><path fill="#fff" d="M135-150c-39-12-60 13-60 57V0H25l-1-190h47c2 13-1 29 3 40 6-28 27-53 61-41v41" id="v"/><path fill="#fff" d="M137-138c1-29-70-34-71-4 15 46 118 7 119 86 1 83-164 76-172 9l43-7c4 19 20 25 44 25 33 8 57-30 24-41C81-84 22-81 20-136c-2-80 154-74 161-7" id="w"/><g id="g"><use transform="matrix(0.05,0,0,0.05,0,0)" xlink:href="#u"/><use transform="matrix(0.05,0,0,0.05,12,0)" xlink:href="#s"/><use transform="matrix(0.05,0,0,0.05,22,0)" xlink:href="#v"/><use transform="matrix(0.05,0,0,0.05,29,0)" xlink:href="#w"/><use transform="matrix(0.05,0,0,0.05,39,0)" xlink:href="#o"/><use transform="matrix(0.05,0,0,0.05,49,0)" xlink:href="#v"/></g><linearGradient gradientUnits="userSpaceOnUse" id="h" x1="800" y1="160" x2="800" y2="240"><stop offset="0%" stop-color="#95d8d1"/><stop offset="100%" stop-color="#76a8a6"/></linearGradient><path d="M230 0l2-204L168 0h-37L68-204 70 0H24v-248h70l56 185 57-185h69V0h-46" id="x"/><path d="M133-34C117-15 103 5 69 4 32 3 11-16 11-54c-1-60 55-63 116-61 1-26-3-47-28-47-18 1-26 9-28 27l-52-2c7-38 36-58 82-57s74 22 75 68l1 82c-1 14 12 18 25 15v27c-30 8-71 5-69-32zm-48 3c29 0 43-24 42-57-32 0-66-3-65 30 0 17 8 27 23 27" id="y"/><path d="M135-194c53 0 70 44 70 98 0 56-19 98-73 100-31 1-45-17-59-34 3 33 2 69 2 105H25l-1-265h48c2 10 0 23 3 31 11-24 29-35 60-35zM114-30c33 0 39-31 40-66 0-38-9-64-40-64-56 0-55 130 0 130" id="z"/><path d="M15-91v-56l181-69v40L49-119l147 57v40" id="A"/><path d="M195 0l-88-114-31 24V0H24v-248h52v113l112-113h60L142-143 257 0h-62" id="B"/><path d="M76-54c-1 42 2 86-19 110H24C36 42 46 24 48 0H25v-54h51" id="C"/><path d="M147 0H94L2-248h55l64 206c17-72 42-137 63-206h54" id="D"/><path d="M15-22v-40l146-57-146-57v-40l181 69v56" id="E"/><g id="i"><use transform="matrix(0.05,0,0,0.05,0,0)" xlink:href="#x"/><use transform="matrix(0.05,0,0,0.05,14.950000000000001,0)" xlink:href="#y"/><use transform="matrix(0.05,0,0,0.05,24.950000000000003,0)" xlink:href="#z"/><use transform="matrix(0.05,0,0,0.05,35.900000000000006,0)" xlink:href="#A"/><use transform="matrix(0.05,0,0,0.05,46.400000000000006,0)" xlink:href="#B"/><use transform="matrix(0.05,0,0,0.05,59.35,0)" xlink:href="#C"/><use transform="matrix(0.05,0,0,0.05,64.35000000000001,0)" xlink:href="#D"/><use transform="matrix(0.05,0,0,0.05,76.35000000000001,0)" xlink:href="#E"/></g></defs></g></svg>