<svg xmlns="http://www.w3.org/2000/svg" xmlns:xlink="http://www.w3.org/1999/xlink" width="1000.89" height="540"><g transform="translate(-179.11494111680048 -140)"><path d="M229.65 304.4c1.3-2.42 4.6-4.4 7.35-4.4h107c8.84 0 16 26.86 16 60s-7.16 60-16 60H237c-2.76 0-6.05-1.98-7.35-4.4l-27.3-51.2c-1.3-2.42-1.3-6.38 0-8.8z" stroke="#000" stroke-width="2" fill="url(#a)" transform="matrix(-1,1.2246467991473532e-16,-1.2246467991473532e-16,-1,560,720)"/><use xlink:href="#b" transform="matrix(1,0,0,1,199.9999999999999,300.0000000000001) translate(40.05499999999999 63.15)"/><path d="M480 325c0-2.76 2.24-5 5-5h150c2.76 0 5 2.24 5 5v70c0 2.76-2.24 5-5 5H485c-2.76 0-5-2.24-5-5z" stroke="#000" stroke-width="2" fill="url(#c)"/><use xlink:href="#d" transform="matrix(1,0,0,1,480,320) translate(51.57999999999999 31.9)"/><use xlink:href="#e" transform="matrix(1,0,0,1,480,320) translate(54.029999999999994 53.5)"/><path d="M800 325c0-2.76 2.24-5 5-5h150c2.76 0 5 2.24 5 5v70c0 2.76-2.24 5-5 5H805c-2.76 0-5-2.24-5-5z" stroke="#000" stroke-width="2" fill="url(#f)"/><use xlink:href="#g" transform="matrix(1,0,0,1,800,320) translate(32.129999999999995 44.4)"/><path d="M800 565c0-2.76 2.24-5 5-5h150c2.76 0 5 2.24 5 5v70c0 2.76-2.24 5-5 5H805c-2.76 0-5-2.24-5-5z" stroke="#000" stroke-width="2" fill="url(#h)"/><use xlink:href="#i" transform="matrix(1,0,0,1,800,560) translate(43.004999999999995 44.4)"/><path d="M842.1 559V401" stroke="#000" stroke-width="2" fill="none"/><path d="M843.1 560h-2v-1h2zM846.74 415.27h-9.27L842.1 401z"/><path d="M848.1 416.27h-12l5.28-16.27h1.45zm-9.26-2h6.52l-3.26-10.03z"/><use xlink:href="#j" transform="matrix(1,0,0,1,701.2518759067457,510.93555787735454) translate(0 14.4)"/><use xlink:href="#k" transform="matrix(1,0,0,1,701.2518759067457,510.93555787735454) translate(0 36)"/><path d="M480 565c0-2.76 2.24-5 5-5h150c2.76 0 5 2.24 5 5v70c0 2.76-2.24 5-5 5H485c-2.76 0-5-2.24-5-5z" stroke="#000" stroke-width="2" fill="#3e78a6"/><use xlink:href="#l" transform="matrix(1,0,0,1,480,560) translate(31.029999999999994 44.4)"/><path d="M601 401v158" stroke="#000" stroke-width="2" fill="none"/><path d="M602 401h-2v-1h2zM601 559l-4.64-14.27h9.27z"/><path d="M601.72 560h-1.45L595 543.73h12zm-3.98-14.27l3.26 10.03 3.26-10.03z"/><use xlink:href="#m" transform="matrix(1,0,0,1,608.9966834214019,458.4011849881501) translate(0 14.4)"/><use xlink:href="#n" transform="matrix(1,0,0,1,608.9966834214019,458.4011849881501) translate(0 36)"/><use xlink:href="#o" transform="matrix(1,0,0,1,608.9966834214019,458.4011849881501) translate(35 36)"/><path d="M1160 648c0 6.63-26.86 12-60 12s-60-5.37-60-12v-96c0-6.63 26.86-12 60-12s60 5.37 60 12z" stroke="#000" stroke-width="2" fill="#3e78a6"/><path d="M1160 552c0 6.63-26.86 12-60 12s-60-5.37-60-12" stroke="#000" stroke-width="2" fill="none"/><use xlink:href="#p" transform="matrix(1,0,0,1,1040,569) translate(29.229999999999997 37.15)"/><use xlink:href="#q" transform="matrix(1,0,0,1,1040,569) translate(21.07999999999999 58.75)"/><path d="M641 338.53h158" stroke="#000" stroke-width="2" fill="none"/><path d="M641 339.53h-1v-2h1zM799 338.53l-14.27 4.64v-9.28z"/><path d="M800 337.8v1.46l-16.27 5.28v-12.02zm-14.27 4l10.03-3.27-10.03-3.26z"/><use xlink:href="#r" transform="matrix(1,0,0,1,673.5761849881501,312.9299843891477) translate(0 14.4)"/><path d="M799 376.66H641" stroke="#000" stroke-width="2" fill="none"/><path d="M800 377.66h-1v-2h1zM655.27 381.3L641 376.65l14.27-4.64z"/><path d="M656.27 382.67l-16.27-5.3v-1.44l16.27-5.28zm-12.03-6l10.03 3.25v-6.52z"/><use xlink:href="#s" transform="matrix(1,0,0,1,675.7494075029624,380.6582473868299) translate(0 14.4)"/><use xlink:href="#t" transform="matrix(1,0,0,1,675.7494075029624,380.6582473868299) translate(43.550000000000004 14.4)"/><use xlink:href="#n" transform="matrix(1,0,0,1,675.7494075029624,380.6582473868299) translate(0 36)"/><use xlink:href="#o" transform="matrix(1,0,0,1,675.7494075029624,380.6582473868299) translate(35 36)"/><path d="M917.24 401v158" stroke="#000" stroke-width="2" fill="none"/><path d="M918.24 401h-2v-1h2zM917.24 559l-4.64-14.27h9.27z"/><path d="M917.96 560h-1.45l-5.27-16.27h12.02zm-3.98-14.27l3.26 10.03 3.26-10.03z"/><use xlink:href="#j" transform="matrix(1,0,0,1,925.2369824021782,458.4011849881501) translate(0 14.4)"/><use xlink:href="#u" transform="matrix(1,0,0,1,925.2369824021782,458.4011849881501) translate(0 36)"/><path d="M523.62 559V401" stroke="#000" stroke-width="2" fill="none"/><path d="M524.62 560h-2v-1h2zM528.25 415.27h-9.27l4.64-14.27z"/><path d="M529.63 416.27H517.6l5.3-16.27h1.45zm-9.27-2h6.52l-3.26-10.03z"/><use xlink:href="#v" transform="matrix(1,0,0,1,466.7687379261056,469.1994075029625) translate(0 14.4)"/><path d="M345.74 330.34l3.06-1.55 2.93-1.35 2.8-1.14 2.74-.97 2.67-.83 2.62-.7 2.6-.57 2.58-.47 2.6-.35 2.64-.23 2.7-.14 2.76-.02 2.9.1 3.06.24 3.3.38 3.62.58 4.1.84 4.94 1.23 6.6 1.94 39.6 13.2 6.36 1.57 5.57 1.14 5.1.83 4.86.57 4.66.35 4.57.15h1.3" stroke="#000" stroke-width="2" fill="none"/><path d="M346.12 331.27l-1.18.5-.95-1.8 1.36-.55zM479 345.1l-14.55 3.65.64-9.25z"/><path d="M480 344.43v1.46l-16.64 4.16.82-12zm-14.46 3.02l10.23-2.56-9.78-3.95z"/><use xlink:href="#w" transform="matrix(1,0,0,1,383.5242849536725,300.7049799386346) translate(0 14.4)"/><path d="M479 378.37l-4.73.1-4.84.3-5 .53-5.3.78-5.73 1.1-6.54 1.54-8.24 2.3-38.76 12.43-5.05 1.2-4.2.8-3.72.55-3.37.35-3.14.2-2.97.07-2.87-.06-2.76-.18-2.72-.28-2.68-.4-2.67-.5-2.68-.64-2.7-.76-2.77-.9-2.84-1.05-2.92-1.23-3.05-1.43-2.25-1.18" stroke="#000" stroke-width="2" fill="none"/><path d="M480 379.3l-.94.06-.13-2 1.07-.06zM359.43 393.25l-3.58 8.55-11.37-9.78z"/><path d="M360.88 392.37l-4.64 11.1-13.3-11.46.56-1.06zm-5.42 7.78l2.5-6.02-10.5-.86z"/><use xlink:href="#x" transform="matrix(1,0,0,1,365.2499479042578,402.83107356250514) translate(0 14.4)"/><path d="M480 165c0-2.76 2.24-5 5-5h150c2.76 0 5 2.24 5 5v70c0 2.76-2.24 5-5 5H485c-2.76 0-5-2.24-5-5z" stroke="#000" stroke-width="2" fill="url(#y)"/><use xlink:href="#z" transform="matrix(1,0,0,1,480,160) translate(55.555 31.9)"/><use xlink:href="#A" transform="matrix(1,0,0,1,480,160) translate(62.029999999999994 53.5)"/><path d="M560 320v-79" stroke="#000" stroke-width="2" fill="none"/><path d="M560 320l-4.64-14.27h9.28z"/><path d="M561.05 320h-2.1L554 304.73h12zm-4.3-13.27l3.25 10.03 3.26-10.03zM564.64 255.27h-9.28L560 241z"/><path d="M566 256.27h-12l5.27-16.27h1.46zm-9.26-2h6.52L560 244.24z"/><path d="M1040 600h-80" stroke="#000" stroke-width="2" fill="none"/><path d="M1040 600l-14.27 4.64v-9.28z"/><path d="M1040 598.95v2.1l-15.27 4.96v-12zm-13.27 4.3l10.03-3.25-10.03-3.26zM974.27 604.64L960 600l14.27-4.64z"/><path d="M975.27 606L960 601.06v-2.1l15.27-4.96zm-12.03-6l10.03 3.26v-6.52z"/><path d="M224 624c-13.25 0-24-10.75-24-24 0-10.6 6.5-19.55 16.58-22.83C216 546 256 540 272 552c8-18 48-12 48 6 24-6 48 18 32 48 16 24 0 54-32 42-8 15.6-40 15.6-48 0-16 12-48 6-48-24z" stroke="#000" stroke-width="2" fill="url(#B)"/><g><use xlink:href="#C" transform="matrix(1,0,0,1,200,540) translate(60.08 63.15)"/></g><path d="M280 544.05l-1.93-3.93-1.64-3.73-1.4-3.6-1.2-3.47-1-3.4-.85-3.38-.7-3.36-.56-3.42-.42-3.48-.3-3.62-.13-3.83.02-4.15.2-4.65.5-5.53.98-7.4 7.33-43.88.7-7.9.35-7.15.05-4.2" stroke="#000" stroke-width="2" fill="none"/><path d="M280 544.05l-9.83-11.33 8.53-3.62z"/><path d="M280.96 543.57l-.15.06-1.72.9-10.57-12.2 11.08-4.7zm-9.14-10.47l6.92 7.97-.92-10.5zM283.95 434.47l-9.26-.44L280 420z"/><path d="M285.28 435.53l-12-.57 5.65-14.96h2.1zm-9.17-2.43l6.52.3-2.77-10.17z"/><g><use xlink:href="#D" transform="matrix(1,0,0,1,190.11494111680048,464.45813515114634) translate(0 14.4)"/><use xlink:href="#E" transform="matrix(1,0,0,1,190.11494111680048,464.45813515114634) translate(30.95 14.4)"/><use xlink:href="#F" transform="matrix(1,0,0,1,190.11494111680048,464.45813515114634) translate(0 36)"/><use xlink:href="#G" transform="matrix(1,0,0,1,190.11494111680048,464.45813515114634) translate(41.95 36)"/><use xlink:href="#H" transform="matrix(1,0,0,1,190.11494111680048,464.45813515114634) translate(51.95 36)"/></g><defs><linearGradient gradientUnits="userSpaceOnUse" id="a" x1="360" y1="300" x2="360" y2="420"><stop offset="0%" stop-color="#dbdbdb"/><stop offset="100%" stop-color="#fff"/></linearGradient><path d="M182-130c37 4 62 22 62 59C244 23 116-4 24 0v-248c84 5 203-23 205 63 0 31-19 50-47 55zM76-148c40-3 101 13 101-30 0-44-60-28-101-31v61zm0 110c48-3 116 14 116-37 0-48-69-32-116-35v72" id="I"/><path d="M135-150c-39-12-60 13-60 57V0H25l-1-190h47c2 13-1 29 3 40 6-28 27-53 61-41v41" id="J"/><path d="M110-194c64 0 96 36 96 99 0 64-35 99-97 99-61 0-95-36-95-99 0-62 34-99 96-99zm-1 164c35 0 45-28 45-65 0-40-10-65-43-65-34 0-45 26-45 65 0 36 10 65 43 65" id="K"/><path d="M231 0h-52l-39-155L100 0H48L-1-190h46L77-45c9-52 24-97 36-145h53l37 145 32-145h46" id="L"/><path d="M137-138c1-29-70-34-71-4 15 46 118 7 119 86 1 83-164 76-172 9l43-7c4 19 20 25 44 25 33 8 57-30 24-41C81-84 22-81 20-136c-2-80 154-74 161-7" id="M"/><path d="M185-48c-13 30-37 53-82 52C43 2 14-33 14-96s30-98 90-98c62 0 83 45 84 108H66c0 31 8 55 39 56 18 0 30-7 34-22zm-45-69c5-46-57-63-70-21-2 6-4 13-4 21h74" id="N"/><g id="b"><use transform="matrix(0.05,0,0,0.05,0,0)" xlink:href="#I"/><use transform="matrix(0.05,0,0,0.05,12.950000000000001,0)" xlink:href="#J"/><use transform="matrix(0.05,0,0,0.05,19.950000000000003,0)" xlink:href="#K"/><use transform="matrix(0.05,0,0,0.05,30.900000000000006,0)" xlink:href="#L"/><use transform="matrix(0.05,0,0,0.05,44.900000000000006,0)" xlink:href="#M"/><use transform="matrix(0.05,0,0,0.05,54.900000000000006,0)" xlink:href="#N"/><use transform="matrix(0.05,0,0,0.05,64.9,0)" xlink:href="#J"/></g><linearGradient gradientUnits="userSpaceOnUse" id="c" x1="640" y1="320" x2="640" y2="400"><stop offset="0%" stop-color="#95d8d1"/><stop offset="100%" stop-color="#76a8a6"/></linearGradient><path d="M169-182c-1-43-94-46-97-3 18 66 151 10 154 114 3 95-165 93-204 36-6-8-10-19-12-30l50-8c3 46 112 56 116 5-17-69-150-10-154-114-4-87 153-88 188-35 5 8 8 18 10 28" id="O"/><path d="M135-194c53 0 70 44 70 98 0 56-19 98-73 100-31 1-45-17-59-34 3 33 2 69 2 105H25l-1-265h48c2 10 0 23 3 31 11-24 29-35 60-35zM114-30c33 0 39-31 40-66 0-38-9-64-40-64-56 0-55 130 0 130" id="P"/><path d="M25-224v-37h50v37H25zM25 0v-190h50V0H25" id="Q"/><path d="M135-194c87-1 58 113 63 194h-50c-7-57 23-157-34-157-59 0-34 97-39 157H25l-1-190h47c2 12-1 28 3 38 12-26 28-41 61-42" id="R"/><path d="M195-6C206 82 75 100 31 46c-4-6-6-13-8-21l49-6c3 16 16 24 34 25 40 0 42-37 40-79-11 22-30 35-61 35-53 0-70-43-70-97 0-56 18-96 73-97 30 0 46 14 59 34l2-30h47zm-90-29c32 0 41-27 41-63 0-35-9-62-40-62-32 0-39 29-40 63 0 36 9 62 39 62" id="S"/><g id="d"><use transform="matrix(0.05,0,0,0.05,0,0)" xlink:href="#O"/><use transform="matrix(0.05,0,0,0.05,12,0)" xlink:href="#P"/><use transform="matrix(0.05,0,0,0.05,22.950000000000003,0)" xlink:href="#J"/><use transform="matrix(0.05,0,0,0.05,29.950000000000003,0)" xlink:href="#Q"/><use transform="matrix(0.05,0,0,0.05,34.95,0)" xlink:href="#R"/><use transform="matrix(0.05,0,0,0.05,45.900000000000006,0)" xlink:href="#S"/></g><path d="M220-157c-53 9-28 100-34 157h-49v-107c1-27-5-49-29-50C55-147 81-57 75 0H25l-1-190h47c2 12-1 28 3 38 10-53 101-56 108 0 13-22 24-43 59-42 82 1 51 116 57 194h-49v-107c-1-25-5-48-29-50" id="T"/><path d="M133-34C117-15 103 5 69 4 32 3 11-16 11-54c-1-60 55-63 116-61 1-26-3-47-28-47-18 1-26 9-28 27l-52-2c7-38 36-58 82-57s74 22 75 68l1 82c-1 14 12 18 25 15v27c-30 8-71 5-69-32zm-48 3c29 0 43-24 42-57-32 0-66-3-65 30 0 17 8 27 23 27" id="U"/><path d="M190-63c-7 42-38 67-86 67-59 0-84-38-90-98-12-110 154-137 174-36l-49 2c-2-19-15-32-35-32-30 0-35 28-38 64-6 74 65 87 74 30" id="V"/><g id="e"><use transform="matrix(0.05,0,0,0.05,0,0)" xlink:href="#T"/><use transform="matrix(0.05,0,0,0.05,16,0)" xlink:href="#U"/><use transform="matrix(0.05,0,0,0.05,26,0)" xlink:href="#S"/><use transform="matrix(0.05,0,0,0.05,36.95,0)" xlink:href="#Q"/><use transform="matrix(0.05,0,0,0.05,41.95,0)" xlink:href="#V"/></g><linearGradient gradientUnits="userSpaceOnUse" id="f" x1="960" y1="320" x2="960" y2="400"><stop offset="0%" stop-color="#ea465f"/><stop offset="100%" stop-color="#da2a46"/></linearGradient><path fill="#fff" d="M67-125c0 53 21 87 73 88 37 1 54-22 65-47l45 17C233-25 199 4 140 4 58 4 20-42 15-125 8-235 124-281 211-232c18 10 29 29 36 50l-46 12c-8-25-30-41-62-41-52 0-71 34-72 86" id="W"/><path fill="#fff" d="M110-194c64 0 96 36 96 99 0 64-35 99-97 99-61 0-95-36-95-99 0-62 34-99 96-99zm-1 164c35 0 45-28 45-65 0-40-10-65-43-65-34 0-45 26-45 65 0 36 10 65 43 65" id="X"/><path fill="#fff" d="M135-194c87-1 58 113 63 194h-50c-7-57 23-157-34-157-59 0-34 97-39 157H25l-1-190h47c2 12-1 28 3 38 12-26 28-41 61-42" id="Y"/><path fill="#fff" d="M115-3C79 11 28 4 28-45v-112H4v-33h27l15-45h31v45h36v33H77v99c-1 23 16 31 38 25v30" id="Z"/><path fill="#fff" d="M135-150c-39-12-60 13-60 57V0H25l-1-190h47c2 13-1 29 3 40 6-28 27-53 61-41v41" id="aa"/><path fill="#fff" d="M25 0v-261h50V0H25" id="ab"/><path fill="#fff" d="M185-48c-13 30-37 53-82 52C43 2 14-33 14-96s30-98 90-98c62 0 83 45 84 108H66c0 31 8 55 39 56 18 0 30-7 34-22zm-45-69c5-46-57-63-70-21-2 6-4 13-4 21h74" id="ac"/><path fill="#fff" d="M137-138c1-29-70-34-71-4 15 46 118 7 119 86 1 83-164 76-172 9l43-7c4 19 20 25 44 25 33 8 57-30 24-41C81-84 22-81 20-136c-2-80 154-74 161-7" id="ad"/><g id="g"><use transform="matrix(0.05,0,0,0.05,0,0)" xlink:href="#W"/><use transform="matrix(0.05,0,0,0.05,12.950000000000001,0)" xlink:href="#X"/><use transform="matrix(0.05,0,0,0.05,23.900000000000002,0)" xlink:href="#Y"/><use transform="matrix(0.05,0,0,0.05,34.85,0)" xlink:href="#Z"/><use transform="matrix(0.05,0,0,0.05,40.800000000000004,0)" xlink:href="#aa"/><use transform="matrix(0.05,0,0,0.05,47.800000000000004,0)" xlink:href="#X"/><use transform="matrix(0.05,0,0,0.05,58.75,0)" xlink:href="#ab"/><use transform="matrix(0.05,0,0,0.05,63.75,0)" xlink:href="#ab"/><use transform="matrix(0.05,0,0,0.05,68.75,0)" xlink:href="#ac"/><use transform="matrix(0.05,0,0,0.05,78.75,0)" xlink:href="#aa"/><use transform="matrix(0.05,0,0,0.05,85.75,0)" xlink:href="#ad"/></g><linearGradient gradientUnits="userSpaceOnUse" id="h" x1="960" y1="560" x2="960" y2="640"><stop offset="0%" stop-color="#ea465f"/><stop offset="100%" stop-color="#da2a46"/></linearGradient><path fill="#fff" d="M169-182c-1-43-94-46-97-3 18 66 151 10 154 114 3 95-165 93-204 36-6-8-10-19-12-30l50-8c3 46 112 56 116 5-17-69-150-10-154-114-4-87 153-88 188-35 5 8 8 18 10 28" id="ae"/><path fill="#fff" d="M128 0H69L1-190h53L99-40l48-150h52" id="af"/><path fill="#fff" d="M25-224v-37h50v37H25zM25 0v-190h50V0H25" id="ag"/><path fill="#fff" d="M190-63c-7 42-38 67-86 67-59 0-84-38-90-98-12-110 154-137 174-36l-49 2c-2-19-15-32-35-32-30 0-35 28-38 64-6 74 65 87 74 30" id="ah"/><g id="i"><use transform="matrix(0.05,0,0,0.05,0,0)" xlink:href="#ae"/><use transform="matrix(0.05,0,0,0.05,12,0)" xlink:href="#ac"/><use transform="matrix(0.05,0,0,0.05,22,0)" xlink:href="#aa"/><use transform="matrix(0.05,0,0,0.05,29,0)" xlink:href="#af"/><use transform="matrix(0.05,0,0,0.05,39,0)" xlink:href="#ag"/><use transform="matrix(0.05,0,0,0.05,44,0)" xlink:href="#ah"/><use transform="matrix(0.05,0,0,0.05,54,0)" xlink:href="#ac"/><use transform="matrix(0.05,0,0,0.05,64,0)" xlink:href="#ad"/></g><path d="M140-251c81 0 123 46 123 126C263-53 228-8 163 1c7 30 30 48 69 40v23c-55 16-95-15-103-61C56-3 17-48 17-125c0-80 42-126 123-126zm0 227c63 0 89-41 89-101s-29-99-89-99c-61 0-89 39-89 99S79-25 140-24" id="ai"/><path d="M84 4C-5 8 30-112 23-190h32v120c0 31 7 50 39 49 72-2 45-101 50-169h31l1 190h-30c-1-10 1-25-2-33-11 22-28 36-60 37" id="aj"/><path d="M100-194c63 0 86 42 84 106H49c0 40 14 67 53 68 26 1 43-12 49-29l28 8c-11 28-37 45-77 45C44 4 14-33 15-96c1-61 26-98 85-98zm52 81c6-60-76-77-97-28-3 7-6 17-6 28h103" id="ak"/><path d="M114-163C36-179 61-72 57 0H25l-1-190h30c1 12-1 29 2 39 6-27 23-49 58-41v29" id="al"/><path d="M179-190L93 31C79 59 56 82 12 73V49c39 6 53-20 64-50L1-190h34L92-34l54-156h33" id="am"/><path d="M0 4l72-265h28L28 4H0" id="an"/><path d="M96-169c-40 0-48 33-48 73s9 75 48 75c24 0 41-14 43-38l32 2c-6 37-31 61-74 61-59 0-76-41-82-99-10-93 101-131 147-64 4 7 5 14 7 22l-32 3c-4-21-16-35-41-35" id="ao"/><path d="M100-194c62-1 85 37 85 99 1 63-27 99-86 99S16-35 15-95c0-66 28-99 85-99zM99-20c44 1 53-31 53-75 0-43-8-75-51-75s-53 32-53 75 10 74 51 75" id="ap"/><path d="M210-169c-67 3-38 105-44 169h-31v-121c0-29-5-50-35-48C34-165 62-65 56 0H25l-1-190h30c1 10-1 24 2 32 10-44 99-50 107 0 11-21 27-35 58-36 85-2 47 119 55 194h-31v-121c0-29-5-49-35-48" id="aq"/><path d="M141-36C126-15 110 5 73 4 37 3 15-17 15-53c-1-64 63-63 125-63 3-35-9-54-41-54-24 1-41 7-42 31l-33-3c5-37 33-52 76-52 45 0 72 20 72 64v82c-1 20 7 32 28 27v20c-31 9-61-2-59-35zM48-53c0 20 12 33 32 33 41-3 63-29 60-74-43 2-92-5-92 41" id="ar"/><path d="M117-194c89-4 53 116 60 194h-32v-121c0-31-8-49-39-48C34-167 62-67 57 0H25l-1-190h30c1 10-1 24 2 32 11-22 29-35 61-36" id="as"/><path d="M85-194c31 0 48 13 60 33l-1-100h32l1 261h-30c-2-10 0-23-3-31C134-8 116 4 85 4 32 4 16-35 15-94c0-66 23-100 70-100zm9 24c-40 0-46 34-46 75 0 40 6 74 45 74 42 0 51-32 51-76 0-42-9-74-50-73" id="at"/><g id="j"><use transform="matrix(0.05,0,0,0.05,0,0)" xlink:href="#ai"/><use transform="matrix(0.05,0,0,0.05,14,0)" xlink:href="#aj"/><use transform="matrix(0.05,0,0,0.05,24,0)" xlink:href="#ak"/><use transform="matrix(0.05,0,0,0.05,34,0)" xlink:href="#al"/><use transform="matrix(0.05,0,0,0.05,39.95,0)" xlink:href="#am"/><use transform="matrix(0.05,0,0,0.05,48.95,0)" xlink:href="#an"/><use transform="matrix(0.05,0,0,0.05,53.95,0)" xlink:href="#ao"/><use transform="matrix(0.05,0,0,0.05,62.95,0)" xlink:href="#ap"/><use transform="matrix(0.05,0,0,0.05,72.95,0)" xlink:href="#aq"/><use transform="matrix(0.05,0,0,0.05,87.9,0)" xlink:href="#aq"/><use transform="matrix(0.05,0,0,0.05,102.85000000000001,0)" xlink:href="#ar"/><use transform="matrix(0.05,0,0,0.05,112.85000000000001,0)" xlink:href="#as"/><use transform="matrix(0.05,0,0,0.05,122.85000000000001,0)" xlink:href="#at"/></g><path d="M135-143c-3-34-86-38-87 0 15 53 115 12 119 90S17 21 10-45l28-5c4 36 97 45 98 0-10-56-113-15-118-90-4-57 82-63 122-42 12 7 21 19 24 35" id="au"/><path d="M24 0v-261h32V0H24" id="av"/><path d="M59-47c-2 24 18 29 38 22v24C64 9 27 4 27-40v-127H5v-23h24l9-43h21v43h35v23H59v120" id="aw"/><g id="k"><use transform="matrix(0.05,0,0,0.05,0,0)" xlink:href="#al"/><use transform="matrix(0.05,0,0,0.05,5.95,0)" xlink:href="#ak"/><use transform="matrix(0.05,0,0,0.05,15.949999999999998,0)" xlink:href="#au"/><use transform="matrix(0.05,0,0,0.05,24.95,0)" xlink:href="#aj"/><use transform="matrix(0.05,0,0,0.05,34.95,0)" xlink:href="#av"/><use transform="matrix(0.05,0,0,0.05,38.900000000000006,0)" xlink:href="#aw"/></g><path fill="#fff" d="M76-208v77h127v40H76V0H24v-248h183v40H76" id="ax"/><path fill="#fff" d="M220-157c-53 9-28 100-34 157h-49v-107c1-27-5-49-29-50C55-147 81-57 75 0H25l-1-190h47c2 12-1 28 3 38 10-53 101-56 108 0 13-22 24-43 59-42 82 1 51 116 57 194h-49v-107c-1-25-5-48-29-50" id="ay"/><path fill="#fff" d="M133-34C117-15 103 5 69 4 32 3 11-16 11-54c-1-60 55-63 116-61 1-26-3-47-28-47-18 1-26 9-28 27l-52-2c7-38 36-58 82-57s74 22 75 68l1 82c-1 14 12 18 25 15v27c-30 8-71 5-69-32zm-48 3c29 0 43-24 42-57-32 0-66-3-65 30 0 17 8 27 23 27" id="az"/><path fill="#fff" d="M147 0L96-86 75-71V0H25v-261h50v150l67-79h53l-66 74L201 0h-54" id="aA"/><g id="l"><use transform="matrix(0.05,0,0,0.05,0,0)" xlink:href="#ax"/><use transform="matrix(0.05,0,0,0.05,10.950000000000001,0)" xlink:href="#aa"/><use transform="matrix(0.05,0,0,0.05,17.950000000000003,0)" xlink:href="#ac"/><use transform="matrix(0.05,0,0,0.05,27.950000000000003,0)" xlink:href="#ac"/><use transform="matrix(0.05,0,0,0.05,37.95,0)" xlink:href="#ay"/><use transform="matrix(0.05,0,0,0.05,53.95,0)" xlink:href="#az"/><use transform="matrix(0.05,0,0,0.05,63.95,0)" xlink:href="#aa"/><use transform="matrix(0.05,0,0,0.05,70.95,0)" xlink:href="#aA"/><use transform="matrix(0.05,0,0,0.05,80.95,0)" xlink:href="#ac"/><use transform="matrix(0.05,0,0,0.05,90.95,0)" xlink:href="#aa"/></g><path d="M127-220V0H93v-220H8v-28h204v28h-85" id="aB"/><path d="M115-194c55 1 70 41 70 98S169 2 115 4C84 4 66-9 55-30l1 105H24l-1-265h31l2 30c10-21 28-34 59-34zm-8 174c40 0 45-34 45-75s-6-73-45-74c-42 0-51 32-51 76 0 43 10 73 51 73" id="aC"/><g id="m"><use transform="matrix(0.05,0,0,0.05,0,0)" xlink:href="#aB"/><use transform="matrix(0.05,0,0,0.05,8.950000000000001,0)" xlink:href="#ak"/><use transform="matrix(0.05,0,0,0.05,18.950000000000003,0)" xlink:href="#aq"/><use transform="matrix(0.05,0,0,0.05,33.900000000000006,0)" xlink:href="#aC"/><use transform="matrix(0.05,0,0,0.05,43.900000000000006,0)" xlink:href="#av"/><use transform="matrix(0.05,0,0,0.05,47.85000000000001,0)" xlink:href="#ar"/><use transform="matrix(0.05,0,0,0.05,57.85,0)" xlink:href="#aw"/><use transform="matrix(0.05,0,0,0.05,62.85,0)" xlink:href="#ak"/></g><g id="n"><use transform="matrix(0.05,0,0,0.05,0,0)" xlink:href="#ar"/><use transform="matrix(0.05,0,0,0.05,10,0)" xlink:href="#as"/><use transform="matrix(0.05,0,0,0.05,20,0)" xlink:href="#at"/></g><g id="o"><use transform="matrix(0.05,0,0,0.05,0,0)" xlink:href="#aq"/><use transform="matrix(0.05,0,0,0.05,14.950000000000001,0)" xlink:href="#ap"/><use transform="matrix(0.05,0,0,0.05,24.950000000000003,0)" xlink:href="#at"/><use transform="matrix(0.05,0,0,0.05,34.95,0)" xlink:href="#ak"/><use transform="matrix(0.05,0,0,0.05,44.95,0)" xlink:href="#av"/></g><path fill="#fff" d="M230 0l2-204L168 0h-37L68-204 70 0H24v-248h70l56 185 57-185h69V0h-46" id="aD"/><path fill="#fff" d="M123 10C108 53 80 86 19 72V37c35 8 53-11 59-39L3-190h52l48 148c12-52 28-100 44-148h51" id="aE"/><path fill="#fff" d="M140-251c80 0 125 45 125 126 0 70-33 111-92 124 6 28 34 38 68 31l-1 36C177 83 129 55 120 2 51-6 15-50 15-125c0-81 44-126 125-126zm-1 214c52 0 73-35 73-88 0-50-21-86-72-86-52 0-73 35-73 86s22 88 72 88" id="aF"/><path fill="#fff" d="M24 0v-248h52v208h133V0H24" id="aG"/><g id="p"><use transform="matrix(0.05,0,0,0.05,0,0)" xlink:href="#aD"/><use transform="matrix(0.05,0,0,0.05,14.950000000000001,0)" xlink:href="#aE"/><use transform="matrix(0.05,0,0,0.05,24.950000000000003,0)" xlink:href="#ae"/><use transform="matrix(0.05,0,0,0.05,36.95,0)" xlink:href="#aF"/><use transform="matrix(0.05,0,0,0.05,50.95,0)" xlink:href="#aG"/></g><path fill="#fff" d="M88-194c31-1 46 15 58 34l-1-101h50l1 261h-48c-2-10 0-23-3-31C134-8 116 4 84 4 32 4 16-41 15-95c0-56 19-97 73-99zm17 164c33 0 40-30 41-66 1-37-9-64-41-64s-38 30-39 65c0 43 13 65 39 65" id="aH"/><path fill="#fff" d="M135-194c52 0 70 43 70 98 0 56-19 99-73 100-30 1-46-15-58-35L72 0H24l1-261h50v104c11-23 29-37 60-37zM114-30c31 0 40-27 40-66 0-37-7-63-39-63s-41 28-41 65c0 36 8 64 40 64" id="aI"/><g id="q"><use transform="matrix(0.05,0,0,0.05,0,0)" xlink:href="#aH"/><use transform="matrix(0.05,0,0,0.05,10.950000000000001,0)" xlink:href="#az"/><use transform="matrix(0.05,0,0,0.05,20.950000000000003,0)" xlink:href="#Z"/><use transform="matrix(0.05,0,0,0.05,26.900000000000002,0)" xlink:href="#az"/><use transform="matrix(0.05,0,0,0.05,36.900000000000006,0)" xlink:href="#aI"/><use transform="matrix(0.05,0,0,0.05,47.85000000000001,0)" xlink:href="#az"/><use transform="matrix(0.05,0,0,0.05,57.85,0)" xlink:href="#ad"/><use transform="matrix(0.05,0,0,0.05,67.85000000000001,0)" xlink:href="#ac"/></g><path d="M30-248c87 1 191-15 191 75 0 78-77 80-158 76V0H30v-248zm33 125c57 0 124 11 124-50 0-59-68-47-124-48v98" id="aJ"/><g id="r"><use transform="matrix(0.05,0,0,0.05,0,0)" xlink:href="#aJ"/><use transform="matrix(0.05,0,0,0.05,12,0)" xlink:href="#ar"/><use transform="matrix(0.05,0,0,0.05,22,0)" xlink:href="#al"/><use transform="matrix(0.05,0,0,0.05,27.950000000000003,0)" xlink:href="#ar"/><use transform="matrix(0.05,0,0,0.05,37.95,0)" xlink:href="#aq"/><use transform="matrix(0.05,0,0,0.05,52.900000000000006,0)" xlink:href="#ak"/><use transform="matrix(0.05,0,0,0.05,62.900000000000006,0)" xlink:href="#aw"/><use transform="matrix(0.05,0,0,0.05,67.9,0)" xlink:href="#ak"/><use transform="matrix(0.05,0,0,0.05,77.9,0)" xlink:href="#al"/><use transform="matrix(0.05,0,0,0.05,83.85000000000001,0)" xlink:href="#au"/></g><path d="M137 0h-34L2-248h35l83 218 83-218h36" id="aK"/><path d="M24-231v-30h32v30H24zM24 0v-190h32V0H24" id="aL"/><path d="M206 0h-36l-40-164L89 0H53L-1-190h32L70-26l43-164h34l41 164 42-164h31" id="aM"/><g id="s"><use transform="matrix(0.05,0,0,0.05,0,0)" xlink:href="#aK"/><use transform="matrix(0.05,0,0,0.05,11.65,0)" xlink:href="#aL"/><use transform="matrix(0.05,0,0,0.05,15.600000000000001,0)" xlink:href="#ak"/><use transform="matrix(0.05,0,0,0.05,25.6,0)" xlink:href="#aM"/></g><g id="t"><use transform="matrix(0.05,0,0,0.05,0,0)" xlink:href="#as"/><use transform="matrix(0.05,0,0,0.05,10,0)" xlink:href="#ar"/><use transform="matrix(0.05,0,0,0.05,20,0)" xlink:href="#aq"/><use transform="matrix(0.05,0,0,0.05,34.95,0)" xlink:href="#ak"/></g><g id="u"><use transform="matrix(0.05,0,0,0.05,0,0)" xlink:href="#aC"/><use transform="matrix(0.05,0,0,0.05,10,0)" xlink:href="#ar"/><use transform="matrix(0.05,0,0,0.05,20,0)" xlink:href="#al"/><use transform="matrix(0.05,0,0,0.05,25.950000000000003,0)" xlink:href="#ar"/><use transform="matrix(0.05,0,0,0.05,35.95,0)" xlink:href="#aq"/><use transform="matrix(0.05,0,0,0.05,50.900000000000006,0)" xlink:href="#ak"/><use transform="matrix(0.05,0,0,0.05,60.900000000000006,0)" xlink:href="#aw"/><use transform="matrix(0.05,0,0,0.05,65.9,0)" xlink:href="#ak"/><use transform="matrix(0.05,0,0,0.05,75.9,0)" xlink:href="#al"/><use transform="matrix(0.05,0,0,0.05,81.85000000000001,0)" xlink:href="#au"/></g><path d="M197 0v-115H63V0H30v-248h33v105h134v-105h34V0h-34" id="aN"/><path d="M240 0l2-218c-23 76-54 145-80 218h-23L58-218 59 0H30v-248h44l77 211c21-75 51-140 76-211h43V0h-30" id="aO"/><path d="M30 0v-248h33v221h125V0H30" id="aP"/><g id="v"><use transform="matrix(0.05,0,0,0.05,0,0)" xlink:href="#aN"/><use transform="matrix(0.05,0,0,0.05,12.950000000000001,0)" xlink:href="#aB"/><use transform="matrix(0.05,0,0,0.05,23.900000000000002,0)" xlink:href="#aO"/><use transform="matrix(0.05,0,0,0.05,38.85,0)" xlink:href="#aP"/></g><path d="M233-177c-1 41-23 64-60 70L243 0h-38l-65-103H63V0H30v-248c88 3 205-21 203 71zM63-129c60-2 137 13 137-47 0-61-80-42-137-45v92" id="aQ"/><path d="M145-31C134-9 116 4 85 4 32 4 16-35 15-94c0-59 17-99 70-100 32-1 48 14 60 33 0-11-1-24 2-32h30l-1 268h-32zM93-21c41 0 51-33 51-76s-8-73-50-73c-40 0-46 35-46 75s5 74 45 74" id="aR"/><g id="w"><use transform="matrix(0.05,0,0,0.05,0,0)" xlink:href="#aQ"/><use transform="matrix(0.05,0,0,0.05,12.950000000000001,0)" xlink:href="#ak"/><use transform="matrix(0.05,0,0,0.05,22.950000000000003,0)" xlink:href="#aR"/><use transform="matrix(0.05,0,0,0.05,32.95,0)" xlink:href="#aj"/><use transform="matrix(0.05,0,0,0.05,42.95,0)" xlink:href="#ak"/><use transform="matrix(0.05,0,0,0.05,52.95,0)" xlink:href="#au"/><use transform="matrix(0.05,0,0,0.05,61.95,0)" xlink:href="#aw"/></g><g id="x"><use transform="matrix(0.05,0,0,0.05,0,0)" xlink:href="#aQ"/><use transform="matrix(0.05,0,0,0.05,12.950000000000001,0)" xlink:href="#ak"/><use transform="matrix(0.05,0,0,0.05,22.950000000000003,0)" xlink:href="#au"/><use transform="matrix(0.05,0,0,0.05,31.950000000000003,0)" xlink:href="#aC"/><use transform="matrix(0.05,0,0,0.05,41.95,0)" xlink:href="#ap"/><use transform="matrix(0.05,0,0,0.05,51.95,0)" xlink:href="#as"/><use transform="matrix(0.05,0,0,0.05,61.95,0)" xlink:href="#au"/><use transform="matrix(0.05,0,0,0.05,70.95,0)" xlink:href="#ak"/></g><linearGradient gradientUnits="userSpaceOnUse" id="y" x1="640" y1="160" x2="640" y2="240"><stop offset="0%" stop-color="#ea465f"/><stop offset="100%" stop-color="#da2a46"/></linearGradient><g id="z"><use transform="matrix(0.05,0,0,0.05,0,0)" xlink:href="#ae"/><use transform="matrix(0.05,0,0,0.05,12,0)" xlink:href="#Z"/><use transform="matrix(0.05,0,0,0.05,17.95,0)" xlink:href="#az"/><use transform="matrix(0.05,0,0,0.05,27.950000000000003,0)" xlink:href="#Z"/><use transform="matrix(0.05,0,0,0.05,33.9,0)" xlink:href="#ag"/><use transform="matrix(0.05,0,0,0.05,38.9,0)" xlink:href="#ah"/></g><path fill="#fff" d="M121-226c-27-7-43 5-38 36h38v33H83V0H34v-157H6v-33h28c-9-59 32-81 87-68v32" id="aS"/><g id="A"><use transform="matrix(0.05,0,0,0.05,0,0)" xlink:href="#aS"/><use transform="matrix(0.05,0,0,0.05,5.95,0)" xlink:href="#ag"/><use transform="matrix(0.05,0,0,0.05,10.95,0)" xlink:href="#ab"/><use transform="matrix(0.05,0,0,0.05,15.949999999999998,0)" xlink:href="#ac"/><use transform="matrix(0.05,0,0,0.05,25.950000000000003,0)" xlink:href="#ad"/></g><linearGradient gradientUnits="userSpaceOnUse" id="B" x1="360" y1="540" x2="360" y2="660"><stop offset="0%" stop-color="#fff"/><stop offset="100%" stop-color="#ffc374"/></linearGradient><path d="M67-125c0 53 21 87 73 88 37 1 54-22 65-47l45 17C233-25 199 4 140 4 58 4 20-42 15-125 8-235 124-281 211-232c18 10 29 29 36 50l-46 12c-8-25-30-41-62-41-52 0-71 34-72 86" id="aT"/><path d="M24-248c120-7 223 5 221 122C244-46 201 0 124 0H24v-248zM76-40c74 7 117-18 117-86 0-67-45-88-117-82v168" id="aU"/><path d="M175 0L67-191c6 58 2 128 3 191H24v-248h59L193-55c-6-58-2-129-3-193h46V0h-61" id="aV"/><g id="C"><use transform="matrix(0.05,0,0,0.05,0,0)" xlink:href="#aT"/><use transform="matrix(0.05,0,0,0.05,12.950000000000001,0)" xlink:href="#aU"/><use transform="matrix(0.05,0,0,0.05,25.900000000000002,0)" xlink:href="#aV"/></g><path d="M126-127c33 6 58 20 58 59 0 88-139 92-164 29-3-8-5-16-6-25l32-3c6 27 21 44 54 44 32 0 52-15 52-46 0-38-36-46-79-43v-28c39 1 72-4 72-42 0-27-17-43-46-43-28 0-47 15-49 41l-32-3c6-42 35-63 81-64 48-1 79 21 79 65 0 36-21 52-52 59" id="aW"/><g id="D"><use transform="matrix(0.05,0,0,0.05,0,0)" xlink:href="#aW"/><use transform="matrix(0.05,0,0,0.05,10,0)" xlink:href="#al"/><use transform="matrix(0.05,0,0,0.05,15.949999999999998,0)" xlink:href="#at"/></g><g id="E"><use transform="matrix(0.05,0,0,0.05,0,0)" xlink:href="#aC"/><use transform="matrix(0.05,0,0,0.05,10,0)" xlink:href="#ar"/><use transform="matrix(0.05,0,0,0.05,20,0)" xlink:href="#al"/><use transform="matrix(0.05,0,0,0.05,25.950000000000003,0)" xlink:href="#aw"/><use transform="matrix(0.05,0,0,0.05,30.950000000000003,0)" xlink:href="#am"/></g><path d="M212-179c-10-28-35-45-73-45-59 0-87 40-87 99 0 60 29 101 89 101 43 0 62-24 78-52l27 14C228-24 195 4 139 4 59 4 22-46 18-125c-6-104 99-153 187-111 19 9 31 26 39 46" id="aX"/><path d="M185-189c-5-48-123-54-124 2 14 75 158 14 163 119 3 78-121 87-175 55-17-10-28-26-33-46l33-7c5 56 141 63 141-1 0-78-155-14-162-118-5-82 145-84 179-34 5 7 8 16 11 25" id="aY"/><g id="F"><use transform="matrix(0.05,0,0,0.05,0,0)" xlink:href="#aX"/><use transform="matrix(0.05,0,0,0.05,12.950000000000001,0)" xlink:href="#aY"/><use transform="matrix(0.05,0,0,0.05,24.950000000000003,0)" xlink:href="#aY"/></g><use transform="matrix(0.05,0,0,0.05,0,0)" xlink:href="#an" id="G"/><path d="M153-248C145-148 188 4 80 4 36 3 13-21 6-62l32-5c4 25 16 42 43 43 27 0 39-20 39-49v-147H72v-28h81" id="aZ"/><g id="H"><use transform="matrix(0.05,0,0,0.05,0,0)" xlink:href="#aZ"/><use transform="matrix(0.05,0,0,0.05,9,0)" xlink:href="#aY"/></g></defs></g></svg>